<svg width="251" height="99" viewBox="0 0 251 99" fill="none" xmlns="http://www.w3.org/2000/svg">
<path fill-rule="evenodd" clip-rule="evenodd" d="M22.0204 59.651C21.8986 59.8347 18 69.3708 18 69.4854C18 69.5294 18.2076 69.5366 18.4613 69.5015C18.8246 69.4508 19.0607 69.0829 19.57 67.7743L20.2171 66.1113L22.4846 66.1681L24.7517 66.2247L25.4133 67.8812C25.9741 69.2849 26.1494 69.5377 26.5618 69.5377H27.0486L26.6472 68.5839C26.4266 68.0592 25.5349 65.8683 24.6661 63.7148C23.7971 61.5615 22.9847 59.7332 22.8607 59.652C22.566 59.4593 22.148 59.4587 22.0204 59.651ZM33.2398 59.6282C33.1581 59.704 33.0914 61.9646 33.0914 64.6519V69.5377H36.3253C39.4154 69.5377 39.5592 69.5197 39.5592 69.1361C39.5592 68.7551 39.4154 68.7345 36.7605 68.7345H33.9619L33.904 64.1833C33.8492 59.8827 33.7436 59.1587 33.2398 59.6282ZM48.8913 59.7494C48.6726 60.0147 44.9419 69.1293 44.9464 69.387C44.9479 69.4698 45.1302 69.5377 45.3521 69.5377C45.661 69.5377 45.9058 69.1511 46.4006 67.8812L47.046 66.2247L49.3078 66.1681L51.5698 66.1113L52.2639 67.8246C52.8043 69.1575 53.0505 69.5377 53.3734 69.5377C53.6018 69.5377 53.7883 69.4774 53.7883 69.4037C53.7883 69.1553 50.0475 60.0027 49.8425 59.7494C49.7306 59.6115 49.5173 59.4984 49.3685 59.4984C49.2198 59.4984 49.0049 59.6115 48.8913 59.7494ZM60.1915 59.6254C60.1084 59.7029 60.04 61.9646 60.04 64.6519C60.04 69.4037 60.0521 69.5377 60.4719 69.5377C60.8888 69.5377 60.9031 69.4033 60.9038 65.4717L60.9052 61.4059L62.7536 65.2208C63.7696 67.319 64.6525 69.1487 64.7151 69.2867C64.7784 69.4249 64.9919 69.5377 65.1897 69.5377C65.4501 69.5377 66.0869 68.4227 67.4843 65.5193L69.4187 61.5013L69.4771 65.5193C69.5333 69.3834 69.5518 69.5377 69.9659 69.5377C70.3856 69.5377 70.3949 69.419 70.3387 64.5682C70.2832 59.7683 70.2669 59.5989 69.8542 59.5989C69.4308 59.5989 69.004 60.3907 65.904 66.9299L65.1926 68.4313L63.0979 64.0173C61.1485 59.9085 60.6675 59.182 60.1915 59.6254ZM77.8682 59.6274C77.7857 59.7036 77.7188 61.9646 77.7188 64.6519V69.5377H81.1837C84.3684 69.5377 84.6437 69.5091 84.5768 69.1862C84.5127 68.8753 84.1641 68.8285 81.5431 68.7791L78.5811 68.7232V66.8277V64.9321L81.2194 64.8756C83.5331 64.8263 83.8667 64.7758 83.93 64.4678C83.9962 64.1482 83.7572 64.1165 81.2919 64.1165H78.5811V62.209V60.3016H81.6156C84.389 60.3016 84.6429 60.2715 84.5768 59.9502C84.512 59.6371 84.1513 59.5928 81.2606 59.5437C79.4769 59.5134 77.9501 59.5508 77.8682 59.6274ZM91.195 59.7237C91.1302 59.8805 91.1032 62.1301 91.1352 64.723L91.1935 69.4372L93.2976 69.4947C94.4544 69.5263 95.7942 69.4537 96.2737 69.3335C97.4326 69.0427 98.7356 67.9155 99.1878 66.8122C99.5832 65.8472 99.6947 64.0537 99.4328 62.8853C99.1825 61.7742 98.0994 60.527 96.9867 60.0688C95.7048 59.5406 91.3764 59.2829 91.195 59.7237ZM109.023 59.7519C108.817 59.9831 107.85 62.2662 105.406 68.2962L104.892 69.5645L105.36 69.5009C105.726 69.4512 105.974 69.0855 106.495 67.8309L107.161 66.2247L109.418 66.1697L111.675 66.1147L112.323 67.776C112.847 69.1196 113.064 69.4495 113.455 69.5015C113.72 69.5366 113.938 69.5366 113.937 69.5015C113.937 69.4661 113.039 67.2245 111.943 64.5202C109.961 59.6282 109.623 59.0778 109.023 59.7519ZM127.898 59.6084C127.809 59.6952 127.736 61.9646 127.736 64.6519C127.736 69.3748 127.75 69.5377 128.16 69.5377C128.549 69.5377 128.588 69.3722 128.645 67.4796L128.706 65.4216H130.319H131.931L133.083 67.4796C134.078 69.2589 134.306 69.5377 134.774 69.5377C135.309 69.5377 135.303 69.5157 134.112 67.4497C133.451 66.3014 132.91 65.3186 132.91 65.2656C132.91 65.2126 133.201 65.0571 133.555 64.9204C134.48 64.5632 135.066 63.5727 135.066 62.3631C135.066 61.2285 134.59 60.4978 133.512 59.9787C132.799 59.6351 128.182 59.3308 127.898 59.6084ZM141.992 59.7693C141.813 59.9697 141.759 61.401 141.8 64.7439L141.858 69.4372L145.377 69.4924C148.65 69.5438 148.892 69.5228 148.825 69.1913C148.758 68.8738 148.427 68.8288 145.79 68.7791L142.827 68.7232V66.8277V64.9321L145.466 64.8756C147.779 64.8263 148.114 64.7758 148.177 64.4678C148.242 64.1482 148.003 64.1165 145.538 64.1165H142.827V62.209V60.3016H145.754C148.425 60.3016 148.674 60.2709 148.608 59.9502C148.543 59.6378 148.186 59.5926 145.389 59.5434C142.9 59.4997 142.19 59.5466 141.992 59.7693ZM156.574 59.9125C155.511 60.4351 155.08 61.0894 155.08 62.1812C155.08 63.8728 155.753 64.3607 158.89 64.9469C161.024 65.3455 161.584 65.7225 161.584 66.7588C161.584 68.1849 160.428 69.0504 158.566 69.0196C157.2 68.9971 156.222 68.4662 155.794 67.5153C155.561 67.0011 155.301 66.7301 155.036 66.7286C154.695 66.7271 154.653 66.8286 154.77 67.372C154.937 68.1518 155.835 69.0855 156.78 69.462C157.162 69.6139 158.014 69.7384 158.675 69.7384C160.965 69.7384 162.444 68.5479 162.445 66.7036C162.446 65.0851 161.484 64.4508 158.35 64.0058C156.514 63.7454 155.979 63.2981 155.979 62.0269C155.979 60.3252 159.158 59.5029 160.588 60.8346C160.885 61.1105 161.157 61.5328 161.194 61.7727C161.237 62.0501 161.44 62.2327 161.753 62.2741C162.193 62.3323 162.232 62.2775 162.11 61.7722C161.908 60.9372 161.326 60.2472 160.491 59.8502C159.485 59.3723 157.612 59.402 156.574 59.9125ZM169.279 59.6274C169.197 59.7036 169.13 61.9646 169.13 64.6519V69.5377H172.596C175.779 69.5377 176.054 69.5091 175.987 69.1862C175.924 68.8753 175.575 68.8285 172.954 68.7791L169.992 68.7232V66.8277V64.9321L172.63 64.8756C174.944 64.8263 175.277 64.7758 175.34 64.4678C175.407 64.1482 175.168 64.1165 172.703 64.1165H169.992V62.209V60.3016H173.027C175.8 60.3016 176.053 60.2715 175.987 59.9502C175.923 59.6371 175.562 59.5928 172.671 59.5437C170.888 59.5134 169.361 59.5508 169.279 59.6274ZM185.851 59.6788C185.717 59.8827 181.85 69.3288 181.85 69.4555C181.85 69.5007 182.036 69.5377 182.265 69.5377C182.587 69.5377 182.833 69.1575 183.374 67.8246L184.068 66.1113L186.33 66.1681L188.592 66.2247L189.238 67.8812C189.732 69.1511 189.977 69.5377 190.285 69.5377C190.507 69.5377 190.689 69.4448 190.689 69.3316C190.689 69.0063 187.01 60.029 186.762 59.7494C186.503 59.4569 186.024 59.4195 185.851 59.6788ZM197.103 59.6084C197.014 59.6952 196.941 61.9646 196.941 64.6519C196.941 69.4037 196.952 69.5377 197.373 69.5377C197.776 69.5377 197.803 69.4037 197.803 67.4294V65.3212H199.404H201.004L202.218 67.4294C203.12 68.9967 203.54 69.5377 203.851 69.5377C204.082 69.5377 204.271 69.4656 204.271 69.3774C204.271 69.2894 203.786 68.3677 203.193 67.329C202.601 66.2904 202.116 65.3912 202.117 65.3308C202.117 65.2702 202.406 65.068 202.76 64.881C204.746 63.8283 204.738 60.9519 202.746 59.9924C202.005 59.6364 197.396 59.3226 197.103 59.6084ZM212.875 59.9633C209.405 61.6605 209.484 67.8759 212.994 69.3609C214.892 70.1641 217.581 69.6184 218.492 68.2448C219.068 67.3778 219.071 66.7266 218.5 66.7266C218.206 66.7266 218.069 66.8606 218.069 67.1483C218.069 67.3802 217.754 67.8631 217.369 68.2215C215.728 69.7467 212.812 69.1306 211.794 67.0437C211.246 65.9181 211.244 63.3226 211.791 62.2008C213.069 59.5816 217.02 59.4283 218.049 61.9581C218.323 62.6301 218.931 62.6994 218.93 62.0584C218.927 60.0241 215.309 58.7724 212.875 59.9633ZM225.979 59.6282C225.897 59.704 225.83 61.9646 225.83 64.6519C225.83 69.4037 225.843 69.5377 226.261 69.5377C226.667 69.5377 226.692 69.4037 226.692 67.2285V64.9196H229.711H232.73V67.2285C232.73 69.4106 232.753 69.5377 233.164 69.5377C233.59 69.5377 233.599 69.4358 233.542 64.5682C233.492 60.3088 233.438 59.5989 233.161 59.5989C232.896 59.5989 232.827 60.0088 232.776 61.8577L232.715 64.1165H229.711H226.707L226.645 61.8739C226.589 59.7985 226.417 59.2193 225.979 59.6282ZM95.7048 60.4937C97.6282 60.9094 98.6315 62.3229 98.6315 64.6184C98.6315 65.696 98.5137 66.2527 98.1456 66.9235C97.358 68.3598 96.7901 68.6231 94.304 68.7031L92.1632 68.772V64.5369V60.3016L93.5111 60.3064C94.2525 60.309 95.2389 60.3933 95.7048 60.4937ZM133.272 60.7035C134.374 61.3585 134.541 63.03 133.592 63.9139C132.905 64.5539 131.794 64.7849 129.892 64.6823L128.706 64.6184L128.644 62.726C128.609 61.6852 128.636 60.7032 128.701 60.5438C128.86 60.1598 132.575 60.2898 133.272 60.7035ZM201.986 60.5815C203.38 61.1236 203.8 62.4126 202.989 63.6524C202.473 64.4379 201.528 64.7162 199.366 64.7176L197.803 64.7188V62.5102V60.3016H199.535C200.528 60.3016 201.573 60.421 201.986 60.5815ZM23.4623 62.985C23.8967 64.0743 24.2521 65.0457 24.2521 65.1435C24.2521 65.2413 23.4194 65.3212 22.4017 65.3212C21.3839 65.3212 20.5834 65.2501 20.6231 65.1633C20.6626 65.0766 21.083 64.0422 21.5572 62.8646C22.0315 61.687 22.4766 60.7867 22.546 60.864C22.6154 60.9411 23.0276 61.8956 23.4623 62.985ZM50.32 62.9893C50.8047 64.1913 51.2011 65.2077 51.2011 65.2481C51.2011 65.2883 50.3765 65.3212 49.3685 65.3212C48.3606 65.3212 47.536 65.2609 47.536 65.1874C47.536 64.9792 49.3214 60.6926 49.3837 60.7513C49.414 60.7801 49.8353 61.7872 50.32 62.9893ZM110.778 63.9659L111.332 65.3212H109.417H107.503L108.314 63.3635C108.76 62.2867 109.199 61.2251 109.292 61.0043C109.431 60.669 109.521 60.7686 109.841 61.6066C110.051 62.1588 110.473 63.2204 110.778 63.9659ZM187.309 63.0322C187.745 64.1476 188.102 65.1188 188.102 65.1906C188.102 65.2623 187.269 65.3212 186.251 65.3212C185.233 65.3212 184.433 65.2459 184.473 65.1537C184.512 65.0615 184.928 64.0231 185.398 62.8459C185.866 61.6687 186.311 60.7728 186.384 60.8549C186.457 60.9371 186.874 61.9169 187.309 63.0322Z" fill="white"/>
<path fill-rule="evenodd" clip-rule="evenodd" d="M120.691 29.2818C116.465 30.3531 113.176 33.5323 111.704 37.9715C111.231 39.3962 111.168 39.8807 111.171 42.0176C111.175 44.1065 111.249 44.677 111.7 46.1071C112.917 49.957 115.72 52.9339 119.521 54.4107C121.279 55.0944 124.328 55.26 126.378 54.7834C134.374 52.9238 138.488 43.6212 134.707 35.9484C133.709 33.9241 131.19 31.3359 129.244 30.3377C128.446 29.928 127.227 29.4539 126.535 29.2839C124.997 28.9062 122.177 28.9052 120.691 29.2818ZM126.052 29.879C129.441 30.6205 132.64 33.1463 134.13 36.2583C135.104 38.2907 135.438 39.7964 135.438 42.1507C135.438 48.7806 130.612 54.0506 124.222 54.401C120.716 54.5933 117.8 53.4236 115.299 50.8215C111.554 46.9251 110.655 41.4289 112.965 36.5553C115.386 31.4493 120.74 28.7176 126.052 29.879ZM120.671 40.045C119.31 42.5765 118.183 44.7386 118.17 44.8498C118.155 44.9611 118.281 45.0798 118.448 45.1137C118.666 45.1573 119.439 43.9223 121.136 40.8147C122.448 38.4163 123.567 36.456 123.623 36.4582C123.714 36.4616 127.677 43.6797 127.856 44.1632C127.891 44.257 126.498 44.359 124.761 44.3895C121.933 44.4394 121.598 44.4821 121.539 44.7992C121.479 45.1265 121.758 45.1533 125.23 45.1533C127.297 45.1533 129.034 45.1033 129.093 45.0421C129.152 44.9808 128.055 42.798 126.657 40.1911C124.405 35.9901 124.061 35.451 123.632 35.4471C123.202 35.4432 122.875 35.95 120.671 40.045ZM118.019 48.2891C118.019 48.5518 118.772 48.5925 123.632 48.5925C128.491 48.5925 129.244 48.5518 129.244 48.2891C129.244 48.0261 128.491 47.9856 123.632 47.9856C118.772 47.9856 118.019 48.0261 118.019 48.2891Z" fill="white"/>
</svg>
