<svg width="251" height="99" viewBox="0 0 251 99" fill="none" xmlns="http://www.w3.org/2000/svg">
<path d="M37.7428 52.588L38.5888 55H40.4968L36.2488 42.994H33.5668L29.3728 55H31.3168L32.1448 52.588H37.7428ZM37.2928 51.184H32.6128L34.9348 44.434L37.2928 51.184ZM53.3321 42.994H51.4961V50.968C51.4961 51.526 51.4961 52.12 51.5141 52.21L51.5321 52.822V53.434H51.4781L50.9741 52.48C50.0381 50.734 49.8221 50.338 49.4081 49.6L45.6821 42.994H42.6221V55H44.4401V47.08C44.4401 46.486 44.4401 45.856 44.4221 45.82L44.4041 45.19L44.3861 44.578H44.4581L44.8361 45.334C45.6101 46.828 45.8261 47.26 46.0421 47.656L50.2541 55H53.3321V42.994ZM63.9631 52.588L64.8091 55H66.7171L62.4691 42.994H59.7871L55.5931 55H57.5371L58.3651 52.588H63.9631ZM63.5131 51.184H58.8331L61.1551 44.434L63.5131 51.184ZM72.1642 44.65L75.8902 44.668V42.994H66.6562V44.65H70.3282V55H72.1642V44.65ZM83.0788 42.886C82.0168 42.886 81.0268 42.94 80.5948 43.03C79.5868 43.228 78.8488 43.714 78.4168 44.434C77.8768 45.334 77.7688 46.108 77.7688 49.006C77.7688 51.256 77.8048 51.724 78.0028 52.57C78.2368 53.596 78.7768 54.298 79.6408 54.676C80.4328 55.018 81.1168 55.108 83.0968 55.108C84.8248 55.108 85.5628 55.018 86.3368 54.694C87.2188 54.316 87.7948 53.596 88.0288 52.552C88.2088 51.67 88.2448 51.184 88.2448 48.772C88.2448 47.17 88.2268 46.612 88.1368 46.072C87.9208 44.614 87.3448 43.732 86.3008 43.282C85.5988 42.976 84.8428 42.886 83.0788 42.886ZM86.3908 50.644C86.3908 51.886 86.1028 52.804 85.6168 53.146C85.2028 53.452 84.6628 53.524 83.0248 53.524C81.5848 53.524 81.0988 53.47 80.6488 53.29C80.1268 53.092 79.8388 52.624 79.7128 51.85C79.6228 51.238 79.6228 51.238 79.6228 49.006C79.6228 46.45 79.6408 46.234 79.8388 45.64C80.1808 44.668 80.7028 44.47 82.8088 44.47C84.6088 44.47 85.1128 44.524 85.5628 44.794C86.1028 45.118 86.3908 45.982 86.3908 47.296V48.97V50.644ZM92.8908 42.994H91.0548V55H98.7768V53.344H92.8908V42.994ZM108.985 42.994H106.825L104.647 46.594C104.413 46.99 104.071 47.566 103.639 48.34H103.585L103.351 47.908C102.901 47.098 102.811 46.936 102.595 46.594L100.417 42.994H98.2927L102.667 50.212V55H104.503V50.212L108.985 42.994ZM126.029 42.994H123.869L121.691 46.594C121.457 46.99 121.115 47.566 120.683 48.34H120.629L120.395 47.908C119.945 47.098 119.855 46.936 119.639 46.594L117.461 42.994H115.337L119.711 50.212V55H121.547V50.212L126.029 42.994ZM134.016 52.588L134.862 55H136.77L132.522 42.994H129.84L125.646 55H127.59L128.418 52.588H134.016ZM133.566 51.184H128.886L131.208 44.434L133.566 51.184ZM140.731 42.994H138.895V55H140.731V49.654H141.865L146.779 55H149.191L143.449 48.826L148.615 42.994H146.293L141.865 48.052H140.731V42.994ZM155.663 42.886C154.601 42.886 153.611 42.94 153.179 43.03C152.171 43.228 151.433 43.714 151.001 44.434C150.461 45.334 150.353 46.108 150.353 49.006C150.353 51.256 150.389 51.724 150.587 52.57C150.821 53.596 151.361 54.298 152.225 54.676C153.017 55.018 153.701 55.108 155.681 55.108C157.409 55.108 158.147 55.018 158.921 54.694C159.803 54.316 160.379 53.596 160.613 52.552C160.793 51.67 160.829 51.184 160.829 48.772C160.829 47.17 160.811 46.612 160.721 46.072C160.505 44.614 159.929 43.732 158.885 43.282C158.183 42.976 157.427 42.886 155.663 42.886ZM158.975 50.644C158.975 51.886 158.687 52.804 158.201 53.146C157.787 53.452 157.247 53.524 155.609 53.524C154.169 53.524 153.683 53.47 153.233 53.29C152.711 53.092 152.423 52.624 152.297 51.85C152.207 51.238 152.207 51.238 152.207 49.006C152.207 46.45 152.225 46.234 152.423 45.64C152.765 44.668 153.287 44.47 155.393 44.47C157.193 44.47 157.697 44.524 158.147 44.794C158.687 45.118 158.975 45.982 158.975 47.296V48.97V50.644ZM171.273 42.994L168.609 50.896C168.393 51.562 168.141 52.372 167.835 53.47H167.799C167.565 52.696 167.223 51.544 167.007 50.878L164.307 42.994H162.381L166.431 55H169.185L173.217 42.994H171.273ZM177.258 44.542H183.378V42.994H175.422V55H183.414V53.452H177.258V49.546H183.108V48.124H177.258V44.542ZM196.825 42.994H194.989V50.968C194.989 51.526 194.989 52.12 195.007 52.21L195.025 52.822V53.434H194.971L194.467 52.48C193.531 50.734 193.315 50.338 192.901 49.6L189.175 42.994H186.115V55H187.933V47.08C187.933 46.486 187.933 45.856 187.915 45.82L187.897 45.19L187.879 44.578H187.951L188.329 45.334C189.103 46.828 189.319 47.26 189.535 47.656L193.747 55H196.825V42.994ZM201.844 42.994H200.008V55H201.844V49.654H202.978L207.892 55H210.304L204.562 48.826L209.728 42.994H207.406L202.978 48.052H201.844V42.994ZM216.775 42.886C215.713 42.886 214.723 42.94 214.291 43.03C213.283 43.228 212.545 43.714 212.113 44.434C211.573 45.334 211.465 46.108 211.465 49.006C211.465 51.256 211.501 51.724 211.699 52.57C211.933 53.596 212.473 54.298 213.337 54.676C214.129 55.018 214.813 55.108 216.793 55.108C218.521 55.108 219.259 55.018 220.033 54.694C220.915 54.316 221.491 53.596 221.725 52.552C221.905 51.67 221.941 51.184 221.941 48.772C221.941 47.17 221.923 46.612 221.833 46.072C221.617 44.614 221.041 43.732 219.997 43.282C219.295 42.976 218.539 42.886 216.775 42.886ZM220.087 50.644C220.087 51.886 219.799 52.804 219.313 53.146C218.899 53.452 218.359 53.524 216.721 53.524C215.281 53.524 214.795 53.47 214.345 53.29C213.823 53.092 213.535 52.624 213.409 51.85C213.319 51.238 213.319 51.238 213.319 49.006C213.319 46.45 213.337 46.234 213.535 45.64C213.877 44.668 214.399 44.47 216.505 44.47C218.305 44.47 218.809 44.524 219.259 44.794C219.799 45.118 220.087 45.982 220.087 47.296V48.97V50.644Z" fill="white"/>
</svg>
