<svg width="251" height="99" viewBox="0 0 251 99" fill="none" xmlns="http://www.w3.org/2000/svg">
<path d="M106.79 45.1879C104.509 45.5873 102.289 45.67 100.087 45.0692C97.4683 44.3568 94.9894 43.3745 92.9675 41.464C91.4745 40.0536 90.2081 38.4669 89.0964 36.7507C87.9091 34.9121 86.8838 32.9908 86.1607 30.9148C86.0239 30.5262 85.7325 30.3931 85.3404 30.5154C85.1353 30.5801 84.9194 30.6449 84.7108 30.6449C80.4331 30.6521 76.1518 30.6521 71.8742 30.6521H71.3813V31.2925C72.0612 31.4581 72.752 31.5948 73.4248 31.7927C75.515 32.4043 77.08 33.6312 77.7996 35.7468C78.1665 36.8226 78.2241 37.9128 77.8535 39.0354C76.1482 44.2057 72.8959 48.0591 68.093 50.6065C65.5458 51.9557 62.8259 52.5997 59.9478 52.5746C56.458 52.5458 53.2164 51.6499 50.2807 49.7214C50.1008 49.6026 49.9965 49.4947 50.0001 49.2536C50.1584 41.9929 52.6156 35.6245 57.5229 30.2671C62.0956 25.2767 67.7656 22.2401 74.4789 21.3082C82.5306 20.1892 89.8339 22.1141 96.2306 27.1369C101.868 31.566 105.326 37.3731 106.657 44.4323C106.704 44.6626 106.74 44.8965 106.79 45.1879V45.1879Z" fill="white"/>
<path d="M50.0898 52.4164C52.3312 53.0209 54.4826 53.3627 56.6664 53.5138C62.1242 53.8952 67.4092 53.2404 72.3848 50.8189C73.1727 50.4375 73.9103 49.9482 74.6694 49.5093C75.1659 49.2214 75.2846 49.189 75.6803 49.6064C76.3855 50.3476 76.9971 51.1823 77.7346 51.8911C78.1915 52.3301 78.1915 52.8086 78.1807 53.3411C78.0944 57.378 78.0152 61.4149 77.9181 65.4483C77.8641 67.7798 77.7382 70.1112 77.2022 72.3923C76.7956 74.1086 76.1588 75.7133 74.8708 76.9977C74.3204 77.5482 73.7951 77.7497 72.9713 77.5878C62.0126 75.4218 53.0975 66.7543 50.723 55.8741C50.4748 54.7551 50.3057 53.6253 50.0898 52.4164V52.4164ZM95.9642 72.2017C93.9711 73.7308 91.9168 74.9217 89.715 75.8572C87.5851 76.7603 85.3797 77.3935 83.0916 77.7497C82.9297 77.7749 82.721 77.7137 82.5807 77.6238C81.0265 76.6236 80.2458 75.116 79.8465 73.371C79.4543 71.6584 79.386 69.9098 79.3752 68.1683C79.3464 62.7822 79.3428 57.396 79.3572 52.0099C79.3716 46.4906 79.4255 40.9713 79.4615 35.4556C79.4615 35.3836 79.4687 35.3117 79.4723 35.2397C79.5083 35.2289 79.5407 35.2217 79.5766 35.2109C85.0344 47.534 90.4957 59.8606 95.9642 72.2017V72.2017ZM178.55 36.9488C178.56 37.0387 178.571 37.0891 178.571 37.1394C178.571 37.1898 178.56 37.2438 178.553 37.3014C178.24 37.3409 177.934 37.3589 177.636 37.4165C176.117 37.7115 175.243 38.7082 175.142 40.3524C175.038 42.0687 174.959 43.7849 174.945 45.5011C174.916 48.7825 174.927 52.0602 174.941 55.3416C174.945 56.5001 175.009 57.6587 175.038 58.8172C175.067 59.9254 175.639 60.6918 176.592 61.1451C177.172 61.4185 177.819 61.5553 178.445 61.71C178.675 61.7676 178.83 61.7927 178.744 62.0914H166.803C166.796 61.987 166.785 61.8755 166.774 61.7568C167.253 61.6776 167.717 61.6308 168.163 61.5193C170.055 61.0516 170.919 60.0117 171.048 58.0113C171.12 56.8563 171.167 55.6942 171.167 54.5356C171.181 49.4553 171.171 44.375 171.171 39.2946V38.9816L171.106 38.96C171.063 39.0392 171.009 39.1183 170.973 39.2011C168.39 44.9578 165.799 50.711 163.227 56.4713C162.54 58.0149 161.914 59.5836 161.252 61.1379C161.191 61.2818 161.068 61.4006 160.975 61.5301C160.888 61.4042 160.78 61.289 160.723 61.1523C158.244 55.5107 155.769 49.8691 153.29 44.2274C152.635 42.7415 151.966 41.2627 151.304 39.7804C151.265 39.6904 151.221 39.6005 151.131 39.4026C151.11 39.622 151.095 39.7192 151.095 39.8199C151.077 42.4716 151.056 45.1269 151.041 47.7786C151.027 50.1785 151.009 52.5783 151.02 54.9782C151.023 55.964 151.067 56.9499 151.146 57.9321C151.318 60.0693 152.355 61.1775 154.535 61.62C154.693 61.6524 154.848 61.6776 155.006 61.7064C155.265 61.7568 155.265 61.7568 155.251 62.0878H146.192C146.131 61.8611 146.149 61.7064 146.422 61.6848C146.541 61.6776 146.652 61.6272 146.771 61.5984C148.473 61.1811 149.53 60.0981 149.843 58.3962C150.074 57.1442 150.225 55.8633 150.254 54.5932C150.347 50.4879 150.369 46.3826 150.415 42.2809C150.423 41.7089 150.405 41.1332 150.372 40.5647C150.29 39.0176 149.419 37.9598 147.915 37.5496C147.67 37.4849 147.426 37.4237 147.178 37.3805C146.936 37.3409 146.85 37.2294 146.965 36.9488H147.336C149.548 36.9488 151.761 36.956 153.977 36.9416C154.272 36.9416 154.413 37.0279 154.535 37.3086C157.19 43.3819 159.859 49.4481 162.525 55.5143C162.572 55.6222 162.626 55.7302 162.705 55.8993C162.788 55.7338 162.856 55.615 162.91 55.4927C165.594 49.4481 168.278 43.4035 170.948 37.3517C171.081 37.0495 171.221 36.9416 171.556 36.9416C173.869 36.956 176.189 36.9488 178.55 36.9488V36.9488ZM101.627 66.4269C98.4646 59.2274 95.3346 52.1034 92.1758 44.9111C97.0075 46.5589 101.929 46.7784 106.966 46.4114C107.668 53.7405 105.923 60.3751 101.627 66.4269ZM184.237 62.1489V55.1365C184.489 55.0178 184.565 55.2085 184.648 55.4207C185.292 57.0938 186.205 58.6013 187.486 59.8642C189.623 61.9726 193.232 62.4656 195.696 61.0084C198.045 59.6196 198.851 56.3994 197.402 54.2262C196.865 53.4203 196.11 52.8662 195.232 52.5208C193.635 51.8911 192.005 51.3514 190.408 50.7326C189.418 50.3476 188.378 50.0094 187.511 49.4265C185.069 47.793 183.957 45.4652 184.446 42.5184C184.935 39.5753 186.795 37.7943 189.584 37.0135C192.361 36.2328 195.117 36.3839 197.765 37.6324C198.017 37.7511 198.265 37.8914 198.481 38.0641C198.733 38.2656 198.898 38.2188 199.071 37.9814C199.258 37.7223 199.441 37.4561 199.657 37.2258C199.78 37.0963 199.963 37.0243 200.197 36.8768V43.4287C199.913 43.5366 199.79 43.4251 199.686 43.166C198.974 41.3887 198.013 39.7804 196.509 38.5427C194.074 36.5314 191.102 36.9596 189.469 38.0677C188.015 39.0572 187.49 40.5071 187.501 42.209C187.515 44.1159 188.562 45.3824 190.163 46.156C191.57 46.836 193.073 47.3109 194.541 47.8686C195.473 48.2248 196.437 48.5018 197.34 48.9228C199.492 49.9194 200.999 51.4917 201.363 53.9276C201.924 57.7054 199.999 60.7565 196.315 61.7999C193.088 62.7138 189.864 62.6095 186.713 61.379C186.479 61.289 186.252 61.1631 186.044 61.0264C185.752 60.8321 185.536 60.8753 185.335 61.1559C185.148 61.4149 184.95 61.6668 184.73 61.8971C184.637 61.9942 184.475 62.0338 184.237 62.1489ZM141.389 53.8772V61.4905C141.047 61.62 140.874 61.5121 140.698 61.2782C140.399 60.8896 140.05 60.537 139.723 60.1701C139.55 59.9794 139.374 59.9794 139.162 60.1197C137.367 61.307 135.366 61.9295 133.247 62.1381C129.462 62.5159 125.818 62.059 122.526 59.983C119.479 58.058 117.77 55.23 117.234 51.704C116.665 47.9765 117.504 44.5585 119.745 41.5146C121.663 38.9097 124.307 37.4201 127.423 36.7868C131.013 36.0565 134.524 36.3479 137.874 37.9382C138.327 38.1541 138.759 38.4275 139.18 38.7046C139.421 38.8629 139.612 38.8845 139.809 38.6614C140.176 38.2584 140.536 37.8482 140.914 37.4561C141.04 37.3265 141.223 37.2474 141.468 37.0927V45.037C141.335 45.0478 141.209 45.0586 141.169 45.0622C140.698 44.0511 140.327 43.0473 139.795 42.137C138.291 39.5753 136.147 37.7835 133.172 37.2258C129.513 36.5386 126.527 37.7907 124.257 40.6906C122.522 42.9034 121.695 45.4831 121.45 48.2608C121.213 50.9413 121.565 53.5354 122.756 55.9604C124.3 59.1086 126.746 61.1343 130.29 61.5912C133.567 62.0158 136.309 60.8501 138.557 58.4826C139.723 57.2557 140.54 55.8129 140.946 54.1614C141.015 53.852 141.155 53.8124 141.389 53.8772V53.8772Z" fill="white"/>
</svg>
