<svg width="251" height="99" viewBox="0 0 251 99" fill="none" xmlns="http://www.w3.org/2000/svg">
<path fill-rule="evenodd" clip-rule="evenodd" d="M45.2843 23.4126C45.7903 23.6281 49.3391 24.9763 53.1704 26.4089C59.629 28.8235 60.1612 28.9812 60.4764 28.5733C60.8974 28.0287 61.1739 27.0309 60.9604 26.8268C60.8044 26.6774 44.8359 22.96 44.5236 23.0003C44.436 23.0113 44.7784 23.1971 45.2843 23.4126ZM61.7436 25.0143C62.0822 26.2623 62.0619 26.3785 60.946 29.6026C60.3162 31.4218 59.5023 33.6614 59.1373 34.5793L58.4735 36.2481L59.3176 37.0306C59.9028 37.5731 60.4179 37.8129 60.9979 37.8129C61.7055 37.8129 61.915 37.662 62.3576 36.8322C62.8061 35.9913 63.1375 35.7577 64.6822 35.1931C67.5451 34.1469 68.657 32.6949 68.0219 30.8326C67.7036 29.8995 68.6181 30.4237 69.1794 31.4957C70.0568 33.1726 70.0765 33.735 69.3161 35.4044C68.743 36.6628 68.3184 37.1623 67.0475 38.0742C63.9295 40.3108 62.2882 42.7479 61.9599 45.6284C61.8587 46.5154 61.7272 47.323 61.6679 47.4228C61.5283 47.6578 57.9649 44.8967 56.8729 43.7071C56.4115 43.2046 55.6095 42.182 55.0909 41.4345C54.1417 40.0674 53.7918 39.9045 52.1189 40.0506C51.9021 40.0695 49.7615 42.0204 47.3624 44.3859L43 48.687L43.7437 50.9561C44.1529 52.204 44.5375 53.2731 44.5988 53.3314C44.7917 53.516 47.3873 52.54 47.3873 52.283C47.3873 51.65 46.1676 49.1265 45.8616 49.1265C45.2159 49.1265 45.7951 48.6893 46.6588 48.5246C47.2725 48.4078 48.213 47.6998 49.9418 46.0541C51.2746 44.7852 52.4092 43.7978 52.4631 43.8597C52.5169 43.9218 53.3551 45.415 54.326 47.1781C56.0798 50.3627 56.087 50.3835 55.409 50.3835C54.2713 50.3835 52.7332 51.287 52.4236 52.1372C52.0477 53.1677 52.475 54.2461 54.2695 56.7946C55.4003 58.4011 55.7844 59.2215 56.1773 60.8708L56.6691 62.9356L58.1399 63.239C58.9487 63.406 60.8833 64.1471 62.4386 64.8858C65.2148 66.2042 65.2889 66.2233 66.476 65.9375L67.6857 65.6461L67.5109 64.3631C67.187 61.9878 67.2233 62.0328 65.0819 61.3442C63.2942 60.7695 63.055 60.7453 62.5135 61.0848C61.9484 61.4387 61.8194 61.3861 60.1065 60.104C58.4532 58.8665 58.2222 58.5757 57.4419 56.7488C56.4646 54.4608 56.4163 54.1548 57.0321 54.1548C57.2767 54.1548 59.7097 54.9578 62.4391 55.9393C65.1685 56.9206 67.4331 57.6843 67.4717 57.6364C67.5107 57.588 67.6921 56.7203 67.8752 55.7077C68.5963 51.7236 71.5906 48.0073 74.8788 47.0159C77.3093 46.2833 81.0231 46.1943 83.5341 46.8085C86.4509 47.522 89.7937 48.9161 92.9911 50.7527C94.4839 51.6103 95.5804 52.1324 95.4271 51.9134C95.1738 51.5499 91.2151 48.0473 89.3143 46.5064L88.5257 45.8665L89.3806 46.0195C90.4278 46.2071 90.442 46.0556 89.4793 44.8887C88.7843 44.0455 87.6422 40.4606 87.9683 40.1483C88.0346 40.0847 88.9661 40.6647 90.0393 41.4371C91.1124 42.2095 92.0713 42.8412 92.17 42.8412C92.2687 42.8412 90.1796 40.4372 87.5266 37.4987C84.8567 34.541 82.5641 31.7708 82.3913 31.2926C82.2197 30.8177 81.885 30.2236 81.6477 29.9727C81.0863 29.3793 81.3317 29.3969 82.6878 30.0469C84.1707 30.7576 83.702 30.3614 81.1659 28.7599C80.0092 28.0293 78.5614 27.0458 77.9484 26.5736C77.1313 25.9445 76.3946 25.6414 75.1883 25.4377C73.1879 25.1 72.6426 24.7395 74.1317 24.7395C75.872 24.7395 75.6499 24.3401 73.7304 24.0177C72.4776 23.8076 71.6984 23.797 71.0455 23.9817C70.5394 24.1248 68.9835 24.4167 67.588 24.6299L65.0505 25.0178L63.4556 24.376C62.5785 24.0227 61.7565 23.7339 61.6288 23.7339C61.5009 23.7339 61.5525 24.3101 61.7436 25.0143ZM87.6968 24.7929C87.9631 24.9709 89.0701 25.6688 90.1575 26.3433C92.7222 27.9364 96.8121 31.704 98.7024 34.215C105.575 43.3433 106.851 54.1143 102.001 62.0479C100.697 64.1822 97.2798 67.5053 95.1569 68.7027C94.3332 69.168 92.6806 69.8704 91.4866 70.2632C85.0867 72.3691 78.0428 71.7584 71.1768 68.5022L68.0224 67.0062L69.3367 68.164C73.6274 71.9437 79.7798 74.2678 85.4946 74.2678C90.9786 74.2678 95.1192 72.6398 98.909 68.9942C101.439 66.562 102.557 64.8984 103.81 61.7095C107.72 51.7505 104.583 39.1699 96.0871 30.74C93.4965 28.1693 91.2917 26.5073 88.8661 25.2956C87.9567 24.8409 87.4305 24.6146 87.6968 24.7929ZM117.967 29.9259C115.351 30.1944 114.157 30.5444 114.157 31.0428C114.157 31.45 114.346 31.5277 115.339 31.5277H116.522V36.9024C116.522 42.7532 116.535 42.7005 114.985 42.9969C114.409 43.1073 114.157 43.2991 114.157 43.6269C114.157 44.0732 114.454 44.0981 119.742 44.0958C125.04 44.0936 125.396 44.0631 126.642 43.5067C132.396 40.9388 131.821 32.4104 125.757 30.396C124.532 29.989 120.012 29.7162 117.967 29.9259ZM159.129 30.2487C158.827 30.5373 158.581 30.9997 158.581 31.2762C158.581 31.9239 159.481 32.7847 160.158 32.7847C160.814 32.7847 161.735 31.9312 161.735 31.3243C161.735 30.0849 160.034 29.3828 159.129 30.2487ZM143.334 30.557C143.334 30.826 143.643 31.0241 144.223 31.1282C145.388 31.3374 145.438 31.6096 145.438 37.8409V42.834L144.241 43.1217C143.371 43.3318 143.068 43.5203 143.128 43.8169C143.181 44.079 143.467 44.2185 143.929 44.2084C144.326 44.1996 146.137 44.1715 147.953 44.1455C150.933 44.1028 151.25 44.0556 151.171 43.6621C151.114 43.3763 150.74 43.1725 150.086 43.0709C149.539 42.986 148.974 42.8045 148.831 42.668C148.684 42.5277 148.605 41.3381 148.647 39.9306C148.735 37.065 148.642 37.149 151.395 37.4311C152.991 37.5945 153.09 37.6439 153.447 38.4621C153.654 38.9349 154.006 39.3214 154.229 39.3214C154.571 39.3214 154.637 38.9112 154.637 36.8074C154.637 34.5167 154.595 34.2932 154.145 34.2932C153.806 34.2932 153.602 34.5315 153.494 35.0516C153.294 36.0063 152.53 36.3045 150.284 36.3045H148.591V33.9274V31.5505L149.446 31.399C149.916 31.3155 151.128 31.282 152.14 31.3246C153.968 31.4015 153.984 31.4081 154.506 32.344C154.887 33.0266 155.204 33.2863 155.656 33.2867C156.216 33.2875 156.264 33.2056 156.116 32.5019C156.026 32.0697 155.952 31.3467 155.952 30.8951V30.0738L149.643 30.1094C143.989 30.1411 143.334 30.1877 143.334 30.557ZM124.014 31.5C125.882 32.3247 126.81 33.7169 127.162 36.2251C127.368 37.698 126.946 40.0757 126.285 41.1615C125.616 42.2609 124.351 42.8806 122.75 42.8945C121.206 42.9078 120.382 42.5403 119.958 41.6487C119.651 41.0044 119.554 31.4768 119.852 31.1925C120.217 30.8423 122.987 31.0469 124.014 31.5ZM160.028 34.7948C159.756 35.0808 159.025 35.4379 158.401 35.5882C157.086 35.9048 156.915 36.4259 158.054 36.6438L158.843 36.7948V39.7677C158.843 42.9221 158.697 43.3441 157.607 43.3441C157.246 43.3441 157.003 43.4951 157.003 43.7212C157.003 44.0344 157.514 44.0982 160.027 44.0982C162.476 44.0982 163.05 44.0298 163.05 43.7378C163.05 43.5316 162.741 43.3436 162.326 43.2978L161.604 43.2183L161.473 38.8216C161.361 35.1018 161.278 34.4134 160.93 34.3497C160.705 34.3085 160.298 34.5087 160.028 34.7948ZM177.549 34.9233C177.21 35.2647 176.471 35.6765 175.906 35.8384C174.722 36.1776 174.592 36.6017 175.544 37.0168C176.207 37.3058 176.21 37.315 176.136 40.2517C176.063 43.1363 176.048 43.1996 175.424 43.3401C175.073 43.4189 174.738 43.6219 174.679 43.7911C174.601 44.0163 175.208 44.1083 176.961 44.136C178.273 44.1569 179.494 44.1851 179.672 44.1988C180.258 44.244 180.163 43.4748 179.551 43.2178C178.987 42.9812 178.948 42.8061 178.879 40.1639L178.805 37.3609L179.699 36.8327C180.19 36.5424 180.948 36.3045 181.383 36.3045C182.704 36.3045 182.895 36.7925 182.895 40.1639C182.895 43.1623 182.89 43.1943 182.259 43.3383C181.908 43.4181 181.573 43.6219 181.514 43.7911C181.434 44.0189 182.057 44.0982 183.926 44.0982C185.312 44.0982 186.533 44.0982 186.642 44.0982C187.145 44.0982 186.766 43.4758 186.182 43.3441L185.525 43.1956V40.0201C185.525 37.1897 185.465 36.7674 184.974 36.1345C183.874 34.7158 181.326 34.5487 179.584 35.7803L178.853 36.2974L178.772 35.3775C178.672 34.2406 178.345 34.1197 177.549 34.9233ZM135.951 35.0223C134.75 35.3951 133.867 36.097 133.174 37.2272C132.587 38.1856 132.512 38.5544 132.6 40.0475C132.683 41.4622 132.834 41.9316 133.452 42.707C133.866 43.2251 134.598 43.8063 135.08 43.9992C136.241 44.4629 138.383 44.4444 139.593 43.9604C140.56 43.574 141.757 42.6675 141.757 42.3216C141.757 41.9251 140.893 41.8578 140.363 42.2127C139.694 42.6608 137.845 42.7072 136.911 42.2997C136.196 41.9887 135.186 40.2698 135.186 39.3677C135.186 38.8325 135.269 38.8186 138.471 38.8186C141.745 38.8186 141.757 38.8166 141.757 38.2272C141.757 37.5213 140.832 36.1564 139.913 35.5058C139.163 34.9746 136.968 34.7065 135.951 35.0223ZM191.733 35.1583C187.244 36.5562 186.688 42.3017 190.88 43.9922C192.003 44.4449 194.092 44.452 195.207 44.0067C196.046 43.6709 197.485 42.283 197.485 41.8085C197.485 41.2698 196.714 41.34 196.091 41.9349C194.801 43.1683 193.233 43.098 191.816 41.7428C190.296 40.2896 190.341 37.4715 191.904 36.2962C192.786 35.6322 194.079 35.718 194.466 36.4662C194.979 37.4572 195.441 37.8129 196.212 37.8129C197.029 37.8129 197.518 37.1078 197.287 36.2628C196.963 35.0793 193.926 34.4755 191.733 35.1583ZM202.159 35.0316C201.13 35.3482 200.072 36.2025 199.393 37.2664C198.17 39.1805 198.813 42.3514 200.682 43.6243C202.429 44.8137 206.01 44.4579 207.493 42.9474C208.004 42.4272 208.051 42.2721 207.745 42.092C207.514 41.9552 207.1 42.0078 206.649 42.2311C205.541 42.7789 203.735 42.6896 202.878 42.0447C202.113 41.4698 201.429 40.1866 201.429 39.3295C201.429 38.8433 201.586 38.8186 204.714 38.8186C207.988 38.8186 208 38.8166 208 38.2272C208 37.5213 207.076 36.1564 206.156 35.5058C205.396 34.9677 203.208 34.7083 202.159 35.0316ZM166.85 35.5201C165.564 36.0784 164.363 37.3776 164.363 38.2094C164.363 38.9212 164.682 38.9526 165.941 38.3658C166.607 38.0551 166.884 37.7473 166.944 37.2493C167.086 36.0611 168.881 35.3261 169.604 36.1592C169.775 36.3561 169.879 37.0378 169.833 37.6759L169.752 38.8349L167.687 39.6922C165.275 40.6934 164.718 41.1168 164.487 42.1231C164.265 43.0937 164.893 44.0037 165.938 44.2232C167.111 44.4699 168.762 44.1317 169.551 43.4828L170.24 42.9165L170.809 43.5492C171.561 44.3855 172.923 44.4148 173.606 43.6096C174.189 42.9187 174.24 42.0869 173.696 42.0869C173.479 42.0869 173.302 42.2001 173.302 42.3384C173.302 42.4767 173.133 42.5898 172.928 42.5898C172.629 42.5898 172.537 41.9358 172.468 39.2986C172.386 36.1926 172.347 35.9804 171.761 35.5273C170.928 34.8837 168.325 34.8797 166.85 35.5201ZM137.904 35.8293C138.492 36.0855 139.129 36.9923 139.129 37.5734C139.129 37.7051 138.241 37.8129 137.157 37.8129C136.073 37.8129 135.186 37.7509 135.186 37.6748C135.186 37.5987 135.369 37.197 135.594 36.7819C135.924 36.172 136.411 35.8048 137.21 35.5661C137.24 35.5576 137.551 35.676 137.904 35.8293ZM204.147 35.8293C204.734 36.0855 205.372 36.9923 205.372 37.5734C205.372 37.7051 204.49 37.8129 203.414 37.8129H201.456L201.733 37.0527C201.885 36.6347 202.322 36.13 202.704 35.9314C203.558 35.4879 203.39 35.4997 204.147 35.8293ZM169.832 41.1359C169.764 42.266 169.652 42.501 169.033 42.8329C168.486 43.1254 168.2 43.1515 167.849 42.9413C167.259 42.5875 167.114 41.6744 167.563 41.1525C167.947 40.7083 169.367 39.8268 169.701 39.8253C169.816 39.8247 169.876 40.4146 169.832 41.1359ZM121.175 56.5117C118.713 57.394 116.873 59.2723 116.224 61.5677C115.821 62.9915 116.072 65.6426 116.726 66.8682C117.375 68.0823 119.094 69.6297 120.428 70.2001C121.776 70.7772 127.04 70.7767 128.389 70.1993C129.234 69.8387 129.383 69.635 129.638 68.4966C129.798 67.7854 129.928 67.0316 129.928 66.8217C129.928 66.1946 128.848 66.6799 127.9 67.7325C126.841 68.9077 125.581 69.491 124.101 69.491C122.365 69.491 121.246 68.8048 120.38 67.2112C119.683 65.9306 119.643 65.6885 119.731 63.3313C119.812 61.1529 119.921 60.647 120.555 59.5423C121.444 57.9919 122.377 57.4231 124.031 57.4231C125.501 57.4231 127.228 58.2792 128.088 59.4354C128.745 60.3169 129.665 60.4547 129.665 59.6715C129.665 58.5294 129.055 56.8949 128.528 56.6254C127.646 56.1733 122.348 56.0916 121.175 56.5117ZM166.352 56.5C165.417 57.1546 166.085 59.1831 167.237 59.1831C168.04 59.1831 168.833 58.4331 168.833 57.6745C168.833 56.4697 167.38 55.7816 166.352 56.5ZM201.297 56.4769C201.008 56.6392 200.239 56.9029 199.589 57.0626C198.259 57.3892 197.996 58.0067 199.133 58.1316L199.86 58.2115L199.79 63.9141L199.72 69.6166L198.996 69.6961C198.583 69.7419 198.274 69.9299 198.274 70.136C198.274 70.4285 198.85 70.4965 201.318 70.4965C203.637 70.4965 204.338 70.4217 204.254 70.1823C204.193 70.0096 203.8 69.8105 203.379 69.7401L202.611 69.6119L202.541 62.8891C202.467 55.8141 202.468 55.8186 201.297 56.4769ZM176.741 60.4504C176.267 61.0151 175.477 61.6606 174.984 61.8852C173.905 62.3777 173.826 62.8917 174.813 63.0005L175.535 63.0799V66.0969C175.535 69.5189 175.73 70.0601 177.119 70.4983C178.149 70.8237 179.332 70.5645 180.184 69.8268C180.918 69.1912 180.359 68.7 179.326 69.0732C178.179 69.4869 178.021 69.0719 178.099 65.8455L178.164 63.0799L179.298 63.0018C180.294 62.9334 180.422 62.8572 180.349 62.3732C180.28 61.9046 180.123 61.8333 179.296 61.8948L178.326 61.9669L178.244 60.783C178.201 60.1322 178.039 59.5599 177.884 59.5114C177.731 59.4631 177.216 59.8858 176.741 60.4504ZM151.096 60.9329C151.01 61.0654 150.293 61.369 149.503 61.6071C148.713 61.8455 148.066 62.1301 148.066 62.2394C148.066 62.3489 148.403 62.6047 148.813 62.8082L149.561 63.178L149.745 68.7294C149.846 71.7825 149.856 74.3927 149.768 74.5294C149.68 74.6662 149.202 74.9405 148.705 75.1387C147.105 75.7782 147.666 75.9929 150.957 75.9998C153.466 76.0048 154.111 75.9351 154.111 75.6599C154.111 75.4692 153.757 75.2387 153.323 75.1477L152.534 74.982V72.5868C152.534 70.3972 152.574 70.2084 152.994 70.3903C153.247 70.4996 154.061 70.6343 154.801 70.6899C157.744 70.9104 159.895 68.8534 159.895 65.8173C159.895 64.0287 159.024 62.458 157.696 61.8556C156.567 61.3432 154.65 61.3286 153.415 61.8229C152.208 62.3048 152.272 62.3259 152.272 61.4458C152.272 60.8668 152.153 60.6915 151.761 60.6915C151.48 60.6915 151.182 60.8001 151.096 60.9329ZM167.255 61.2013C166.894 61.4757 166.095 61.8261 165.481 61.9801C164.22 62.2957 163.994 62.88 165.087 63.0005L165.809 63.0799L165.882 66.2726L165.956 69.4652L165.029 69.6317C164.496 69.7275 164.101 69.947 164.101 70.1474C164.101 70.4252 164.719 70.4965 167.124 70.4965C169.513 70.4965 170.147 70.4241 170.147 70.1509C170.147 69.9608 169.793 69.7373 169.359 69.6544L168.57 69.5035V65.0975C168.57 60.3558 168.529 60.2349 167.255 61.2013ZM138.998 61.4273C137.592 61.6609 136.447 62.2661 135.61 63.2159C134.939 63.98 134.67 65.217 135.177 65.217C135.922 65.217 137.319 64.3033 137.463 63.7211C137.711 62.7161 138.334 62.2 139.295 62.2C140.29 62.2 140.541 62.6861 140.395 64.3282C140.314 65.2451 140.253 65.2994 138.556 65.941C135.492 67.099 134.468 68.2115 135.149 69.6403C135.749 70.9006 138.228 71.0334 139.977 69.8983L140.858 69.326L141.319 69.9113C141.958 70.7211 143.654 70.7365 144.24 69.9377C144.465 69.6304 144.649 69.178 144.649 68.932C144.649 68.4365 143.963 68.3146 143.801 68.7811C143.745 68.9439 143.556 68.9939 143.385 68.8921C143.173 68.7674 143.072 67.8168 143.072 65.9727C143.072 63.0596 142.856 62.122 142.097 61.7422C141.341 61.3623 140.129 61.2394 138.998 61.4273ZM189.862 61.3389C189.645 61.3791 189.038 61.4791 188.512 61.5606C187.142 61.7734 185.13 63.5131 185.13 64.4841C185.13 65.3316 185.303 65.3697 186.556 64.7984C187.187 64.5109 187.524 64.1557 187.637 63.6644C187.861 62.6927 188.436 62.2 189.346 62.2C190.266 62.2 190.65 62.781 190.65 64.1665V65.1603L188.546 65.9719C186.234 66.8629 185.13 67.8318 185.13 68.9686C185.13 70.7852 188.275 71.3182 190.14 69.8175L190.924 69.1857L191.464 69.8411C191.846 70.3041 192.248 70.4956 192.838 70.4928C193.833 70.488 194.144 70.3153 194.579 69.5269C194.974 68.8091 194.549 68.1756 194.015 68.6864C193.384 69.2901 193.28 68.9381 193.28 66.2145C193.28 63.2358 192.907 61.8423 192.055 61.619C191.132 61.3779 190.254 61.2657 189.862 61.3389ZM155.833 63.5676C157.628 64.6928 157.717 68.5879 155.967 69.4833C155.032 69.9616 153.614 69.7911 152.907 69.1163C152.285 68.5198 152.257 68.3701 152.329 65.9216C152.401 63.4249 152.421 63.348 153.06 63.1696C153.894 62.9372 155.104 63.1106 155.833 63.5676ZM190.65 67.2184C190.65 68.5993 189.914 69.5737 188.973 69.438C187.537 69.2307 187.795 67.5372 189.403 66.6155C190.018 66.2639 190.549 65.9748 190.585 65.9734C190.62 65.9721 190.65 66.5323 190.65 67.2184ZM140.39 67.5342C140.323 68.6643 140.211 68.8993 139.59 69.2313C138.703 69.7062 137.984 69.3712 137.866 68.4267C137.805 67.9463 138.028 67.5986 138.779 67.0065C140.216 65.8739 140.486 65.9623 140.39 67.5342Z" fill="white"/>
</svg>
