<svg width="251" height="99" viewBox="0 0 251 99" fill="none" xmlns="http://www.w3.org/2000/svg">
<path d="M40.3028 55H46.2428C46.6928 55 47.3048 54.928 47.8088 54.82C48.8348 54.586 49.5008 54.082 49.9508 53.182C50.4008 52.336 50.5088 51.346 50.5088 48.214C50.5088 45.964 50.2388 44.92 49.4108 44.038C48.7268 43.3 47.7188 42.994 46.0268 42.994H40.3028V55ZM42.1388 53.416V44.596H45.9008C47.0888 44.596 47.7188 44.812 48.0968 45.334C48.5468 45.946 48.6548 46.63 48.6548 49.096C48.6548 51.292 48.5288 52.066 48.0608 52.678C47.6828 53.182 46.9088 53.416 45.7028 53.416H42.1388ZM62.4866 42.994H60.3266L58.1486 46.594C57.9146 46.99 57.5726 47.566 57.1406 48.34H57.0866L56.8526 47.908C56.4026 47.098 56.3126 46.936 56.0966 46.594L53.9186 42.994H51.7946L56.1686 50.212V55H58.0046V50.212L62.4866 42.994ZM66.3551 42.994H64.5191V55H72.2411V53.344H66.3551V42.994ZM82.362 52.588L83.208 55H85.116L80.868 42.994H78.186L73.992 55H75.936L76.764 52.588H82.362ZM81.912 51.184H77.232L79.554 44.434L81.912 51.184ZM97.9513 42.994H96.1153V50.968C96.1153 51.526 96.1153 52.12 96.1333 52.21L96.1513 52.822V53.434H96.0973L95.5933 52.48C94.6573 50.734 94.4413 50.338 94.0273 49.6L90.3013 42.994H87.2413V55H89.0593V47.08C89.0593 46.486 89.0593 45.856 89.0413 45.82L89.0233 45.19L89.0053 44.578H89.0773L89.4553 45.334C90.2293 46.828 90.4453 47.26 90.6613 47.656L94.8733 55H97.9513V42.994ZM120.232 42.994H117.136L114.49 49.618C114.274 50.176 114.148 50.518 113.698 51.814L113.446 52.552H113.392L113.14 51.814C112.654 50.5 112.564 50.212 112.33 49.618L109.666 42.994H106.624V55H108.442V46.99C108.442 46.324 108.442 46.144 108.388 45.136L108.37 44.524H108.406L108.604 45.1C108.964 46.126 109.054 46.378 109.216 46.792L112.582 55H114.31L117.64 46.702C117.784 46.36 117.892 46.072 118.252 45.01L118.432 44.452H118.486L118.468 45.082C118.414 46.144 118.414 46.234 118.414 46.99V55H120.232V42.994ZM130.865 52.588L131.711 55H133.619L129.371 42.994H126.689L122.495 55H124.439L125.267 52.588H130.865ZM130.415 51.184H125.735L128.057 44.434L130.415 51.184ZM143.308 50.86C143.326 51.13 143.326 51.274 143.326 51.436C143.326 53.272 142.948 53.524 140.194 53.524C138.322 53.524 137.782 53.326 137.458 52.534C137.206 51.904 137.152 51.076 137.152 47.278C137.152 44.758 137.512 44.47 140.734 44.47C142.912 44.47 143.146 44.686 143.182 46.828H145.018C145 46.072 144.982 45.856 144.946 45.478C144.856 44.506 144.442 43.732 143.776 43.354C143.146 42.976 142.57 42.886 140.914 42.886C137.98 42.886 137.098 43.084 136.234 43.912C135.406 44.686 135.226 45.46 135.226 48.268C135.226 49.456 135.262 50.86 135.334 51.58C135.46 53.218 135.928 54.1 136.936 54.622C137.656 55 138.358 55.108 140.158 55.108C141.364 55.108 142.336 55.072 142.768 54.982C143.452 54.874 144.1 54.568 144.442 54.19C144.982 53.614 145.144 52.966 145.144 51.274V50.86H143.308ZM155.116 52.588L155.962 55H157.87L153.622 42.994H150.94L146.746 55H148.69L149.518 52.588H155.116ZM154.666 51.184H149.986L152.308 44.434L154.666 51.184ZM161.832 42.994H159.996V55H167.718V53.344H161.832V42.994ZM171.716 42.994H169.88V55H171.716V42.994ZM185.606 42.994H183.77V50.968C183.77 51.526 183.77 52.12 183.788 52.21L183.806 52.822V53.434H183.752L183.248 52.48C182.312 50.734 182.096 50.338 181.682 49.6L177.956 42.994H174.896V55H176.714V47.08C176.714 46.486 176.714 45.856 176.696 45.82L176.678 45.19L176.66 44.578H176.732L177.11 45.334C177.884 46.828 178.1 47.26 178.316 47.656L182.528 55H185.606V42.994ZM196.237 52.588L197.083 55H198.991L194.743 42.994H192.061L187.867 55H189.811L190.639 52.588H196.237ZM195.787 51.184H191.107L193.429 44.434L195.787 51.184ZM205.907 42.886C204.845 42.886 203.855 42.94 203.423 43.03C202.415 43.228 201.677 43.714 201.245 44.434C200.705 45.334 200.597 46.108 200.597 49.006C200.597 51.256 200.633 51.724 200.831 52.57C201.065 53.596 201.605 54.298 202.469 54.676C203.261 55.018 203.945 55.108 205.925 55.108C207.653 55.108 208.391 55.018 209.165 54.694C210.047 54.316 210.623 53.596 210.857 52.552C211.037 51.67 211.073 51.184 211.073 48.772C211.073 47.17 211.055 46.612 210.965 46.072C210.749 44.614 210.173 43.732 209.129 43.282C208.427 42.976 207.671 42.886 205.907 42.886ZM209.219 50.644C209.219 51.886 208.931 52.804 208.445 53.146C208.031 53.452 207.491 53.524 205.853 53.524C204.413 53.524 203.927 53.47 203.477 53.29C202.955 53.092 202.667 52.624 202.541 51.85C202.451 51.238 202.451 51.238 202.451 49.006C202.451 46.45 202.469 46.234 202.667 45.64C203.009 44.668 203.531 44.47 205.637 44.47C207.437 44.47 207.941 44.524 208.391 44.794C208.931 45.118 209.219 45.982 209.219 47.296V48.97V50.644Z" fill="white"/>
</svg>
