<svg width="251" height="99" viewBox="0 0 251 99" fill="none" xmlns="http://www.w3.org/2000/svg">
<path d="M128.004 34.8037V48.3973H125.275V39.9581L122.596 44.304H120.423L117.745 39.9581V48.3467H114.966V34.8037H117.745L121.535 40.8677L125.325 34.8037H128.004Z" fill="white"/>
<path d="M139.828 45.6684V48.3973H129.52V34.8037H139.828V37.5325H132.248V40.2613H138.464V42.9902H132.248V45.719H139.828V45.6684Z" fill="white"/>
<path d="M151.957 38.2905C151.957 38.8969 151.957 39.5033 151.957 40.0592C151.957 40.6656 151.957 41.2215 151.856 41.8279C151.805 42.1311 151.755 42.4343 151.603 42.687C151.451 42.9396 151.199 43.1418 150.946 43.2934C150.693 43.4955 150.39 43.5966 150.087 43.5966C149.784 43.5966 149.481 43.6471 149.177 43.6471L151.856 48.3973H148.723L146.044 43.6471H143.922V48.3973H141.143V34.8037H149.733C150.036 34.8037 150.34 34.8542 150.592 34.9553C150.845 35.0564 151.098 35.208 151.3 35.4101C151.502 35.6122 151.654 35.8649 151.755 36.1176C151.856 36.3703 151.957 36.6735 151.906 36.9767V38.2905H151.957ZM149.127 40.9183V37.5325H143.922V40.9183H149.127Z" fill="white"/>
<path d="M162.164 34.8032C162.619 34.8032 163.074 34.9548 163.428 35.258C163.68 35.5107 163.882 35.8644 163.983 36.2687C164.084 36.673 164.135 37.1278 164.135 37.532V38.7954H161.356V37.431H155.847V45.5669H161.356V44.2025H164.135C164.135 44.6067 164.135 45.011 164.135 45.5163C164.135 45.9712 164.084 46.426 163.933 46.8302C163.781 47.2345 163.579 47.5882 163.276 47.8914C162.872 48.1946 162.417 48.3462 161.962 48.2957H156.605C156.353 48.2957 156.05 48.2957 155.645 48.2452C155.241 48.2452 154.837 48.1441 154.483 47.9925C154.129 47.8914 153.776 47.6388 153.472 47.3356C153.321 47.184 153.22 46.9818 153.119 46.7292C153.018 46.4765 153.018 46.2744 153.018 46.0217V38.9975C153.018 38.5932 153.018 38.189 153.068 37.8858C153.119 37.532 153.119 37.1783 153.169 36.774C153.22 36.2687 153.422 35.8139 153.725 35.4602C154.028 35.157 154.382 34.9548 154.736 34.8537C155.14 34.7527 155.544 34.7021 155.999 34.7021C156.454 34.7021 156.858 34.7021 157.262 34.7021C157.667 34.7021 158.02 34.7021 158.273 34.7021C158.576 34.7021 158.879 34.7021 159.183 34.7021C159.486 34.7021 159.89 34.7021 160.345 34.7021C160.85 34.8032 161.457 34.8032 162.164 34.8032Z" fill="white"/>
<path d="M165.65 44.9104V34.8037H168.43V45.6684H173.938V34.8037H176.717V44.9104C176.717 44.961 176.717 45.062 176.717 45.2642C176.717 45.4663 176.717 45.6684 176.717 45.8706C176.717 46.0727 176.717 46.2748 176.717 46.477C176.717 46.578 176.717 46.7297 176.667 46.8307C176.566 47.1845 176.414 47.4877 176.212 47.7403C175.959 47.993 175.656 48.1951 175.302 48.2457C175.05 48.2962 174.797 48.3467 174.544 48.3467C174.14 48.3467 173.736 48.3467 173.281 48.3467H169.238C168.783 48.3467 168.379 48.3467 167.975 48.3467C167.722 48.3467 167.47 48.3467 167.217 48.2457C166.863 48.1446 166.56 47.993 166.307 47.7909C166.055 47.5887 165.903 47.235 165.853 46.9318C165.751 46.5781 165.701 46.2748 165.701 45.9211C165.65 45.5674 165.65 45.2136 165.65 44.9104Z" fill="white"/>
<path d="M188.998 38.2905C188.998 38.8969 188.998 39.5033 188.998 40.0592C188.998 40.6656 188.998 41.2215 188.897 41.8279C188.846 42.1311 188.796 42.4343 188.644 42.687C188.492 42.9396 188.24 43.1418 187.987 43.2934C187.734 43.4955 187.431 43.5966 187.128 43.5966C186.825 43.5966 186.522 43.6471 186.218 43.6471L188.897 48.3973H185.764L183.085 43.6471H180.963V48.3973H178.184V34.8037H186.724C187.027 34.8037 187.33 34.8542 187.583 34.9553C187.836 35.0564 188.088 35.208 188.29 35.4101C188.492 35.6122 188.644 35.8649 188.745 36.1176C188.846 36.3703 188.947 36.6735 188.947 36.9767V38.2905H188.998ZM186.168 40.9183V37.5325H180.963V40.9183H186.168Z" fill="white"/>
<path d="M193.09 34.8037V48.3973H190.311V34.8037H193.09Z" fill="white"/>
<path d="M202.086 34.8037L207.089 48.3973H204.158L203.147 45.6684H198.043L197.033 48.3973H194.102L199.104 34.8037H202.086ZM202.187 42.9396L200.671 38.7453L199.104 42.9396H202.187Z" fill="white"/>
<path d="M217.095 45.6684V48.3973H208.1V34.8037H210.879V45.6684H217.095Z" fill="white"/>
<path d="M125.931 56.5835V59.3123H117.694V62.0411H123.859V64.7699H117.694V70.2276H114.915V56.5835H125.931Z" fill="white"/>
<path d="M129.924 56.5835V70.177H127.145V56.5835H129.924Z" fill="white"/>
<path d="M142.557 56.6338V70.2273H139.778L134.27 61.6872V70.2273H131.541V56.6338H134.27L139.778 65.1234V56.6338H142.557Z" fill="white"/>
<path d="M151.602 56.5835L156.605 70.177H153.674L152.663 67.4482H147.559L146.548 70.177H143.668L148.671 56.5835H151.602ZM151.703 64.7194L150.187 60.5251L148.62 64.7194H151.703Z" fill="white"/>
<path d="M168.632 56.6338V70.2273H165.852L160.344 61.6872V70.2273H157.615V56.6338H160.344L165.852 65.1234V56.6338H168.632Z" fill="white"/>
<path d="M179.093 56.5835C179.548 56.5835 180.003 56.7351 180.356 57.0383C180.609 57.291 180.811 57.6447 180.912 58.049C181.013 58.4532 181.064 58.908 181.064 59.3123V60.5756H178.285V59.2112H172.776V67.3472H178.285V65.9827H181.064C181.064 66.387 181.064 66.7913 181.064 67.2966C181.064 67.7514 181.013 68.2062 180.862 68.6105C180.71 69.0148 180.508 69.3685 180.205 69.6717C179.801 69.9749 179.346 70.1265 178.891 70.076H173.585C173.332 70.076 173.029 70.076 172.625 70.0254C172.221 70.0254 171.816 69.9244 171.463 69.7728C171.109 69.6717 170.755 69.419 170.452 69.1158C170.3 68.9642 170.199 68.7621 170.098 68.5094C170.048 68.3073 169.997 68.0546 169.997 67.802V60.7778C169.997 60.3735 169.997 59.9692 170.048 59.666C170.098 59.3628 170.098 58.9586 170.149 58.5543C170.199 58.049 170.401 57.5942 170.705 57.2404C171.008 56.9372 171.361 56.7351 171.715 56.634C172.119 56.533 172.524 56.4824 172.979 56.4824C173.433 56.4824 173.838 56.4824 174.242 56.4824C174.646 56.4824 175 56.4824 175.253 56.4824C175.556 56.4824 175.859 56.4824 176.162 56.4824C176.465 56.4824 176.87 56.4824 177.324 56.4824C177.779 56.5835 178.335 56.5835 179.093 56.5835Z" fill="white"/>
<path d="M192.737 67.4482V70.177H182.428V56.5835H192.737V59.3123H185.157V62.0411H191.372V64.7699H185.157V67.4482H192.737Z" fill="white"/>
<path d="M63.017 47.8412L38.0534 32.9338C36.8911 32.2263 35.8299 31.2156 35.0213 30.0028C34.1623 28.79 33.5559 27.3245 33.2021 25.8085L33 25L57.8626 39.6548C59.1764 40.4128 60.3387 41.575 61.1978 42.99C62.1074 44.4555 62.7138 46.0725 63.017 47.8412Z" fill="white"/>
<path d="M58.7722 72.906L45.4313 65.1239C44.3196 64.4669 43.3594 63.5573 42.6014 62.4456C41.8434 61.3338 41.237 59.9694 40.8833 58.5545C40.7822 58.2008 40.7317 57.7965 40.6306 57.4427L40.7317 57.4933L59.4796 68.4591C59.7828 68.6612 60.1366 68.7117 60.4903 68.6612C60.8441 68.6107 61.1978 68.4591 61.4505 68.1559C61.7537 67.9032 61.9558 67.5495 62.0569 67.0947C62.1579 66.6904 62.2085 66.2356 62.1579 65.8313C61.9053 64.2143 61.3494 62.7488 60.5409 61.4349C59.7323 60.1716 58.7216 59.1104 57.5088 58.4029L41.5907 49.0542C40.5295 48.3972 39.5694 47.5382 38.8114 46.4264C38.0534 45.3147 37.447 44.0008 37.0932 42.5859C36.9922 42.1311 36.8911 41.7268 36.79 41.373L36.8406 41.4236L58.2163 54.057C60.1366 55.2193 61.8547 56.8869 63.1686 58.9588C64.4825 61.0306 65.3921 63.5068 65.7963 66.084C65.9985 67.1957 65.8974 68.4085 65.5942 69.4698C65.291 70.531 64.6846 71.4911 63.9771 72.1986C63.2191 72.906 62.3601 73.3608 61.4505 73.4619C60.5409 73.6135 59.5807 73.4114 58.7722 72.906Z" fill="white"/>
<path d="M68.8789 47.8412L93.8425 32.8832C95.0048 32.1758 96.066 31.1651 96.8745 29.9523C97.7336 28.7395 98.34 27.274 98.6938 25.758C98.7443 25.5053 98.7948 25.2527 98.8959 25L74.0333 39.6548C72.7195 40.4128 71.5572 41.575 70.6981 42.99C69.7885 44.4555 69.1821 46.0725 68.8789 47.8412Z" fill="white"/>
<path d="M73.1235 72.9058L86.4644 65.1236C87.5761 64.4667 88.5362 63.5571 89.2942 62.4453C90.1028 61.3336 90.6587 59.9692 91.0124 58.5542C91.1135 58.2005 91.164 57.7962 91.2651 57.4425L91.164 57.493L72.416 68.4588C72.1128 68.661 71.7591 68.7115 71.4053 68.661C71.0516 68.6104 70.6979 68.4588 70.4452 68.1556C70.142 67.903 69.9399 67.5492 69.8388 67.0944C69.7377 66.6902 69.6872 66.2354 69.7377 65.8311C69.9904 64.214 70.5463 62.7485 71.3548 61.4347C72.1633 60.1713 73.174 59.1101 74.3868 58.4026L90.3049 49.0034C91.3661 48.3464 92.3263 47.4874 93.0843 46.3756C93.8423 45.2639 94.4487 43.95 94.8024 42.5351C94.9035 42.0803 95.0045 41.676 95.1056 41.3223L95.0551 41.3728L73.6793 54.0062C71.7591 55.1685 70.0409 56.8361 68.7271 58.908C67.4132 60.9799 66.5036 63.456 66.0993 66.0332C65.8972 67.145 65.9982 68.3578 66.3014 69.419C66.6046 70.4802 67.211 71.4403 67.9185 72.1478C68.6765 72.8553 69.5356 73.3101 70.4452 73.4111C71.3548 73.6133 72.2644 73.4111 73.1235 72.9058Z" fill="white"/>
</svg>
