<svg width="251" height="99" viewBox="0 0 251 99" fill="none" xmlns="http://www.w3.org/2000/svg">
<path d="M62.5202 38.3994C61.3976 38.8134 58.5533 39.6665 57.924 39.7826C57.8183 39.7977 57.7176 39.8432 57.7025 39.8785C57.6925 39.9138 57.8838 40.242 58.1355 40.6004C58.3872 40.9588 58.6439 41.3626 58.7094 41.4989L58.8201 41.7463L58.8352 50.2776C58.8453 55.8052 58.8302 58.9602 58.7949 59.2328C58.7698 59.4651 58.7094 59.7124 58.6691 59.778C58.5533 59.9547 58.3117 60.086 58.0348 60.1213L57.7881 60.1566V60.3838C57.7881 60.5706 57.8032 60.6059 57.8787 60.5807C58.0499 60.5352 61.6594 60.505 62.938 60.5403L64.2318 60.5756V60.3687C64.2318 60.1617 64.2268 60.1566 64.0254 60.1263C63.6327 60.0658 63.4817 59.9648 63.3609 59.7074L63.2501 59.4651V49.5203C63.2552 42.978 63.2703 39.3434 63.3055 38.8941C63.3458 38.3994 63.3458 38.2026 63.3055 38.1773C63.235 38.1268 63.3156 38.1066 62.5202 38.3994Z" fill="white"/>
<path d="M232.723 38.1824C232.436 38.349 229.38 39.3132 228.066 39.6514C227.654 39.7574 227.306 39.8634 227.301 39.8887C227.291 39.9139 227.477 40.2168 227.719 40.5601C227.961 40.9033 228.212 41.3072 228.288 41.4637L228.419 41.7464V50.5805C228.419 59.0411 228.414 59.4247 228.328 59.6569C228.222 59.9245 228.016 60.0658 227.643 60.1264C227.442 60.1567 227.437 60.1617 227.437 60.3687V60.5757L229.038 60.5353C229.919 60.5151 231.354 60.5151 232.235 60.5353L233.83 60.5757V60.3687V60.1617L233.533 60.1012C233.186 60.0305 233.005 59.879 232.914 59.5711C232.824 59.2884 232.824 40.237 232.909 39.0204C232.95 38.4096 232.95 38.2026 232.909 38.1774C232.834 38.1269 232.819 38.1319 232.723 38.1824Z" fill="white"/>
<path d="M79.0566 39.6061C77.4658 40.1563 76.907 42.1453 77.9743 43.478C78.1857 43.7455 78.6589 44.0736 79.0214 44.2099C79.4443 44.3664 80.2497 44.3614 80.6575 44.1998C81.5838 43.8364 82.203 42.9227 82.203 41.9282C82.203 40.8277 81.5737 39.9494 80.5518 39.6061C80.1339 39.4647 79.4745 39.4647 79.0566 39.6061Z" fill="white"/>
<path d="M116.868 39.5556C116.289 39.6919 115.66 40.2169 115.363 40.8025C114.894 41.7465 115.045 42.8419 115.755 43.584C117.019 44.9116 119.168 44.4219 119.757 42.6753C119.853 42.3977 119.868 42.2715 119.848 41.7868C119.828 41.2618 119.813 41.2013 119.642 40.8529C119.219 39.9847 118.423 39.495 117.472 39.5051C117.25 39.5102 116.979 39.5303 116.868 39.5556Z" fill="white"/>
<path d="M197.681 39.5708C197.153 39.7172 196.579 40.1615 196.302 40.6309C196.055 41.055 195.965 41.4083 195.965 41.9232C195.965 42.6754 196.212 43.2408 196.745 43.7204C198.205 45.0379 200.48 44.1494 200.727 42.1706C200.803 41.58 200.571 40.8177 200.173 40.3331C199.932 40.0302 199.464 39.7273 199.061 39.6011C198.683 39.485 198.049 39.4699 197.681 39.5708Z" fill="white"/>
<path d="M154.494 40.0555C151.483 40.2574 148.735 41.4488 146.761 43.4125C145.186 44.9824 144.219 46.8654 143.847 49.0916C143.716 49.8589 143.691 51.3582 143.796 52.1709C143.998 53.761 144.481 55.0937 145.332 56.3709C146.922 58.7687 149.701 60.3993 152.908 60.8082C153.598 60.894 155.068 60.8839 155.777 60.7829C157.771 60.5002 159.578 59.7279 161.038 58.5466C161.738 57.9762 161.682 58.0772 162.372 56.1286C162.714 55.1594 162.976 54.3517 162.961 54.3365C162.941 54.3163 162.881 54.286 162.82 54.2709C162.73 54.2406 162.669 54.3113 162.372 54.8161C161.29 56.6536 159.926 57.6632 157.952 58.0872C157.258 58.2336 155.747 58.2488 155.088 58.1125C152.5 57.5875 150.537 55.7298 149.606 52.9281C148.79 50.4748 148.881 47.3702 149.837 45.1339C150.693 43.1197 152.143 41.8022 154.076 41.2822C154.529 41.156 154.65 41.1459 155.526 41.1459C156.397 41.1459 156.528 41.161 156.96 41.2772C157.952 41.5447 158.687 41.9889 159.457 42.7916C159.739 43.0894 160.117 43.5538 160.323 43.8668C160.706 44.4423 161.32 45.6387 161.607 46.3606C161.698 46.5978 161.798 46.7947 161.823 46.8048C161.849 46.8149 161.914 46.7897 161.969 46.7493C162.065 46.6836 162.055 46.618 161.723 44.1142C161.531 42.7007 161.375 41.5397 161.37 41.5346C161.34 41.4993 160.399 41.0803 159.966 40.9086C158.249 40.2221 156.371 39.9293 154.494 40.0555Z" fill="white"/>
<path d="M15.3499 40.57V40.8123H15.6469C16.1 40.8123 16.8048 40.9536 17.137 41.1101C17.6707 41.3625 17.9828 41.7916 18.1187 42.4529C18.1539 42.6195 18.1791 43.0738 18.1791 43.4625C18.1791 44.0733 18.0633 45.0729 17.3384 50.6813C16.8803 54.2654 16.4574 57.4154 16.4021 57.688C16.0698 59.3438 15.4154 59.9647 13.8296 60.1212L13.4873 60.1565V60.3786C13.4873 60.5957 13.4923 60.6058 13.6031 60.5704C13.744 60.525 20.7667 60.525 20.9781 60.5755L21.1392 60.6108V60.3534V60.0959H20.8673C20.4847 60.0959 19.6189 60.0051 19.2111 59.9192C18.5315 59.7779 18.0986 59.4902 17.9123 59.051C17.7865 58.7531 17.7009 58.0817 17.7411 57.6274C17.8318 56.4411 19.3068 43.0839 19.342 43.0991C19.3672 43.1041 20.8623 47.0517 22.6696 51.8676C25.4786 59.3791 25.9619 60.626 26.0475 60.626C26.128 60.626 26.5609 59.4498 29.224 51.9281C30.9205 47.1426 32.32 43.2152 32.3351 43.2C32.3502 43.1798 32.3754 43.1798 32.3854 43.1899C32.4207 43.2253 33.9208 57.269 33.9561 57.8748C33.9913 58.5462 33.9309 59.0055 33.7597 59.3387C33.5433 59.7628 32.9492 60.0101 31.9626 60.0808L31.5095 60.1111V60.3584C31.5095 60.5957 31.5145 60.6058 31.6253 60.5704C31.7713 60.525 41.4016 60.525 41.618 60.5704L41.7791 60.6108V60.3635V60.1161L41.2405 60.0606C39.7554 59.8991 39.2872 59.4094 39.0103 57.7486C38.8895 57.0216 37.5152 44.5075 37.4699 43.7149C37.4045 42.6195 37.5907 41.8673 38.0287 41.4382C38.4264 41.0445 39.1463 40.8173 40.0071 40.8123H40.3696V40.57V40.3327H36.3171C32.9492 40.3327 32.2596 40.3428 32.2394 40.3983C32.2243 40.4387 31.283 43.1849 30.1452 46.5065C29.0025 49.8332 28.0661 52.5591 28.0561 52.5692C28.046 52.5793 28.0259 52.5793 28.0108 52.5642C27.9957 52.5541 27.009 49.7928 25.8159 46.4358L23.6462 40.3327H19.4981H15.3499V40.57Z" fill="white"/>
<path d="M70.4482 44.0334C69.4313 44.9824 67.609 46.3959 66.1189 47.3904C65.6205 47.7236 65.2178 48.0214 65.2178 48.0567C65.2228 48.0921 65.4896 48.4505 65.8168 48.8594L66.4109 49.6065L66.4008 53.8014C66.3857 58.4154 66.3857 58.4204 66.6877 59.0211C67.1509 59.9348 68.1325 60.576 69.4162 60.8082C69.9096 60.894 70.8812 60.8839 71.3795 60.7829C72.1246 60.6264 72.92 60.268 73.6449 59.7531C74.1282 59.4149 74.984 58.5264 75.3515 57.9863C75.7542 57.3906 75.724 57.33 75.1551 57.5925C74.4806 57.9005 73.9923 57.9964 73.0912 57.9964C71.8075 58.0014 71.2084 57.7945 70.9265 57.2392L70.8006 56.9969L70.7855 52.7312L70.7755 48.4707L72.6482 48.4909L74.5259 48.5111L74.7625 48.1577C75.0293 47.7639 75.286 47.1935 75.3364 46.8906L75.3666 46.6937L73.0962 46.7644C71.8477 46.8048 70.8107 46.8199 70.7906 46.7998C70.7604 46.7695 70.8308 45.2601 70.9114 44.1647C70.9315 43.8416 70.9265 43.7507 70.8711 43.7305C70.8308 43.7154 70.6546 43.8416 70.4482 44.0334Z" fill="white"/>
<path d="M207.477 44.1544C206.329 45.1893 204.658 46.4715 203.183 47.4508C202.735 47.7486 202.367 48.0162 202.367 48.0414C202.367 48.0717 202.639 48.4352 202.971 48.8491L203.575 49.6114V53.9073C203.575 58.5566 203.57 58.4809 203.847 59.0261C204.738 60.7929 207.562 61.4188 209.803 60.3486C210.825 59.864 211.716 59.0866 212.481 58.0215C212.884 57.4611 212.899 57.2895 212.521 57.4965C211.58 58.0265 209.762 58.183 208.786 57.8196C208.423 57.6883 208.106 57.3854 208.015 57.0825C207.97 56.9311 207.955 55.8407 207.955 52.6756V48.4705L209.793 48.4958L211.635 48.521L211.806 48.3191C212.018 48.0717 212.405 47.2943 212.481 46.951C212.516 46.8148 212.536 46.7037 212.526 46.6986C212.516 46.6936 211.741 46.7188 210.799 46.7491C209.858 46.7845 208.831 46.8148 208.524 46.8148L207.955 46.8198V46.2998C207.955 45.8051 208.021 44.7198 208.086 44.0635C208.111 43.8263 208.101 43.7506 208.046 43.7304C208.005 43.7102 207.774 43.8818 207.477 44.1544Z" fill="white"/>
<path d="M80.9946 46.6632C79.9475 47.1175 78.5178 47.6678 77.3901 48.0464C76.8817 48.218 76.4639 48.3745 76.4639 48.3997C76.4639 48.4199 76.6652 48.7884 76.9119 49.2226C77.1938 49.7072 77.3851 50.106 77.4204 50.2675C77.4606 50.4543 77.4707 51.8173 77.4606 54.9976C77.4455 59.4247 77.4455 59.4651 77.3398 59.6973C77.224 59.9497 77.0378 60.0658 76.6753 60.1264C76.4689 60.1567 76.4639 60.1617 76.4639 60.3687V60.5757L78.0647 60.5353C78.9457 60.5151 80.3804 60.5151 81.2614 60.5353L82.8572 60.5757V60.3687V60.1617L82.5602 60.1012C82.3689 60.0608 82.2179 60.0002 82.1373 59.9194C81.8705 59.6468 81.8756 59.7528 81.8756 53.8113C81.8756 50.7824 81.8907 47.8596 81.9108 47.3093C81.946 46.3805 81.946 46.3149 81.8605 46.3199C81.8152 46.325 81.4225 46.4764 80.9946 46.6632Z" fill="white"/>
<path d="M119.299 46.3905C118.856 46.6328 116.067 47.7181 114.814 48.1371C114.356 48.2886 114.169 48.3744 114.169 48.4299C114.169 48.4703 114.356 48.8186 114.577 49.2073C114.804 49.591 115.015 50.01 115.055 50.1362C115.116 50.328 115.126 51.166 115.126 54.8006C115.126 57.8951 115.111 59.3136 115.071 59.5004C114.99 59.8638 114.824 60.0203 114.426 60.1011L114.119 60.1667V60.3737V60.5756L115.438 60.5403C116.732 60.5049 120.301 60.5352 120.477 60.5806C120.548 60.6059 120.563 60.5705 120.563 60.3888V60.1667L120.271 60.1061C119.742 59.9951 119.626 59.8335 119.556 59.0965C119.46 58.1121 119.516 47.4405 119.621 46.441C119.637 46.3148 119.48 46.2895 119.299 46.3905Z" fill="white"/>
<path d="M126.756 46.5016C125.895 46.9055 122.774 48.0918 122.079 48.2836C121.953 48.319 121.873 48.3694 121.873 48.4149C121.873 48.4603 122.049 48.7935 122.26 49.1569C122.92 50.2928 122.854 49.7476 122.869 54.104C122.879 56.1839 122.864 58.2637 122.839 58.7281C122.779 59.8538 122.708 59.9851 122.114 60.1062L121.822 60.1668V60.3738V60.5757L123.433 60.5353C124.319 60.5151 125.769 60.5151 126.655 60.5353L128.266 60.5757V60.3738V60.1668L127.964 60.1062C127.576 60.0254 127.42 59.8891 127.32 59.5408C127.249 59.2985 127.239 58.6473 127.219 54.2101L127.204 49.1519L127.445 49.0661C127.596 49.0105 127.904 48.9702 128.276 48.955C128.774 48.9298 128.91 48.9449 129.207 49.0358C130.139 49.3185 130.662 50.1665 130.914 51.792C131.015 52.418 131.07 57.3702 130.994 58.7079C130.929 59.8538 130.864 59.9851 130.27 60.1062L129.978 60.1668V60.3738V60.5757L131.588 60.5353C132.474 60.5151 133.924 60.5151 134.81 60.5353L136.421 60.5757V60.3738V60.1668L136.119 60.1062C135.953 60.0709 135.762 59.9901 135.686 59.9295C135.399 59.6771 135.399 59.7175 135.364 54.3413C135.329 49.0257 135.349 49.3387 135.062 48.5764C134.695 47.5819 133.698 46.6935 132.696 46.4613C131.437 46.1735 129.937 46.749 127.838 48.3341C127.546 48.5562 127.284 48.7379 127.254 48.7379C127.229 48.7379 127.219 48.6875 127.229 48.6218C127.244 48.5613 127.269 48.0766 127.284 47.5516C127.304 47.0216 127.325 46.537 127.33 46.4663C127.34 46.2846 127.199 46.2896 126.756 46.5016Z" fill="white"/>
<path d="M182.835 46.5017C182.175 46.8197 180.026 47.6627 178.974 48.0161C178.319 48.2382 177.952 48.3846 177.952 48.43C177.952 48.4654 178.123 48.7885 178.334 49.1469C178.546 49.5053 178.767 49.9142 178.823 50.0606L178.934 50.3281L178.949 58.0264C178.959 65.6087 178.939 66.906 178.803 67.1887C178.702 67.3906 178.511 67.5219 178.193 67.5875C177.932 67.6481 177.927 67.6531 177.912 67.85L177.896 68.0469H181.677H185.453V67.8147V67.5875L184.657 67.532C184.224 67.5017 183.802 67.4462 183.726 67.4108C183.449 67.2846 183.379 67.0373 183.333 66.0529C183.273 64.7656 183.278 60.4647 183.338 60.4243C183.364 60.4091 183.429 60.4192 183.484 60.4495C183.54 60.4748 183.847 60.5707 184.174 60.6514C186.203 61.1764 188.428 60.7675 190.26 59.5257C190.874 59.1067 191.841 58.1375 192.244 57.5267C193.623 55.4418 194.021 52.5897 193.271 50.1767C192.903 49.0005 192.118 47.905 191.177 47.2639C189.988 46.4512 188.362 46.1837 186.963 46.5673C186.107 46.7995 184.929 47.5012 183.837 48.42C183.565 48.6522 183.333 48.8188 183.323 48.7986C183.308 48.7683 183.359 47.3144 183.399 46.6329C183.414 46.3704 183.404 46.3401 183.313 46.33C183.258 46.325 183.041 46.4058 182.835 46.5017ZM185.931 49.1065C186.49 49.2933 186.918 49.5558 187.366 50C188.498 51.1207 189.032 52.9531 188.876 55.1995C188.745 57.0623 188.272 58.4101 187.456 59.238C186.898 59.8084 186.324 60.0255 185.498 59.9851C184.285 59.9296 183.605 59.0361 183.389 57.2188C183.353 56.8906 183.338 55.5125 183.348 52.9026L183.364 49.0661L183.691 49.0055C183.877 48.9702 184.34 48.95 184.773 48.9601C185.433 48.9702 185.579 48.9904 185.931 49.1065Z" fill="white"/>
<path d="M199.926 46.4865C199.071 46.8903 196.322 47.9504 195.386 48.2331C195.144 48.3038 195.018 48.3694 195.018 48.4199C195.018 48.4603 195.194 48.7935 195.406 49.1569C196.065 50.2928 196 49.7425 196.015 54.1495C196.025 56.2495 196.01 58.3293 195.985 58.7735C195.919 59.8488 195.844 59.9851 195.26 60.1062L194.968 60.1668V60.3738V60.5757L196.579 60.5353C197.465 60.5151 198.915 60.5151 199.801 60.5353L201.411 60.5757V60.3738V60.1668L201.109 60.1062C200.943 60.0709 200.752 59.9901 200.676 59.9295C200.395 59.6822 200.39 59.6367 200.364 55.2247C200.349 51.994 200.405 47.3699 200.47 46.4663C200.485 46.2846 200.344 46.2896 199.926 46.4865Z" fill="white"/>
<path d="M91.3397 46.4157C87.8863 46.7135 84.9313 49.283 84.2215 52.5945C83.9345 53.9121 84.01 55.4416 84.4128 56.6279C84.6343 57.269 84.7953 57.6022 85.1528 58.1424C86.3157 59.889 88.2387 60.8633 90.5343 60.8633C91.2944 60.8633 91.7324 60.7926 92.412 60.5654C93.9927 60.0354 95.4274 58.7481 96.1423 57.2135C96.3789 56.7087 96.4343 56.5118 96.3487 56.5118C96.3134 56.5118 96.1121 56.6784 95.9006 56.8753C94.929 57.8041 93.7964 58.1121 92.2962 57.8698C90.5745 57.5871 89.2606 56.3654 88.6767 54.4926C88.2437 53.1145 88.2236 51.2265 88.6314 49.9241C89.0744 48.5106 89.9553 47.5666 91.0024 47.3748C91.823 47.2284 92.1854 47.5263 92.6738 48.763C93.006 49.601 93.2829 50.0049 93.6705 50.2169C94.1639 50.4844 94.8183 50.4895 95.2714 50.227C95.5432 50.0654 95.8805 49.6919 96.0064 49.4092C96.1574 49.071 96.1171 48.4652 95.9208 48.0815C95.3469 46.9558 93.3735 46.239 91.3397 46.4157Z" fill="white"/>
<path d="M104.354 46.4157C103.12 46.5268 101.736 46.9861 100.759 47.6171C99.4404 48.4703 98.3833 49.7171 97.8396 51.0751C97.0945 52.9328 97.165 55.0126 98.041 56.7643C99.8834 60.4494 104.822 61.9638 108.683 60.0203C109.695 59.5104 110.722 58.6573 111.376 57.7789C112.006 56.9409 112.509 55.7647 112.68 54.7501C112.786 54.1292 112.786 52.9883 112.68 52.3674C112.121 49.0357 109.101 46.5722 105.361 46.4006C105.069 46.3854 104.616 46.3955 104.354 46.4157ZM105.809 47.2234C106.775 47.7433 107.425 49.177 107.762 51.5647C107.832 52.0746 107.852 52.534 107.847 53.9626C107.847 55.5325 107.837 55.8102 107.737 56.4412C107.354 58.8946 106.508 60.1465 105.169 60.2323C104.585 60.2727 104.288 60.1414 103.8 59.6467C103.226 59.0662 102.869 58.2837 102.572 56.9561C102.31 55.7849 102.265 55.265 102.265 53.3568C102.265 51.5496 102.295 51.1609 102.491 50.1765C102.778 48.7782 103.312 47.7686 104.006 47.3193C104.354 47.0972 104.656 47.0215 105.109 47.0366C105.426 47.0518 105.542 47.082 105.809 47.2234Z" fill="white"/>
<path d="M170.199 46.4209C169.319 46.5168 168.151 47.0065 167.234 47.6627C166.59 48.1271 165.79 48.9045 165.342 49.5002C164.742 50.2978 164.31 51.2822 164.31 51.8476C164.31 52.1454 164.385 52.1908 164.833 52.1555C165.145 52.1252 166.837 51.8173 167.083 51.7416C167.149 51.7163 167.149 51.6709 167.068 51.2721C167.023 51.0298 166.958 50.5855 166.932 50.2827C166.817 48.9348 167.139 48.4855 168.216 48.4855C168.448 48.4855 168.755 48.5108 168.901 48.5411C169.852 48.743 170.512 49.4194 170.653 50.3331C170.683 50.53 170.698 51.2166 170.693 51.893L170.678 53.0995L168.261 54.1394C166.932 54.7098 165.709 55.25 165.543 55.3358C164.833 55.7043 164.4 56.1435 164.194 56.7038C164.058 57.0824 164.048 57.9961 164.179 58.4757C164.38 59.2178 164.894 59.9346 165.483 60.2879C166.374 60.8281 167.647 60.9038 168.503 60.4697C169.117 60.1567 169.711 59.6418 170.305 58.9098C170.451 58.7281 170.582 58.5817 170.597 58.5817C170.612 58.5817 170.713 58.7483 170.814 58.9502C171.393 60.0759 172.354 60.6817 173.728 60.7827C174.267 60.823 174.77 60.717 175.284 60.4646C175.813 60.2072 176.487 59.5257 176.779 58.9603C176.991 58.5464 177.177 57.9608 177.121 57.8699C177.101 57.8447 177.031 57.8649 176.945 57.9254C176.618 58.1577 176.019 58.2485 175.586 58.1274C175.354 58.0617 175.108 57.8093 175.002 57.5216C174.901 57.249 174.896 56.4363 174.987 53.0793C175.017 51.8728 175.037 50.4038 175.027 49.8233L175.007 48.7632L174.821 48.3694C174.489 47.6728 173.804 47.1074 172.878 46.7692C172.077 46.4764 170.985 46.3351 170.199 46.4209ZM170.648 55.9264C170.632 57.1884 170.607 58.2384 170.587 58.2637C170.562 58.2839 170.315 58.3041 170.033 58.3041C169.575 58.3041 169.495 58.2889 169.263 58.1678C168.669 57.8548 168.377 57.2843 168.377 56.411C168.372 55.8355 168.488 55.4771 168.81 55.0834C168.996 54.8512 170.517 53.6346 170.622 53.6346C170.642 53.6346 170.658 54.6593 170.648 55.9264Z" fill="white"/>
<path d="M219.741 46.421C218.402 46.5775 216.882 47.4104 215.633 48.6674C214.566 49.7477 213.866 51.04 213.906 51.8477L213.922 52.1455L214.158 52.1607C214.485 52.1808 216.6 51.7972 216.695 51.7013C216.71 51.6861 216.69 51.5145 216.645 51.3176C216.6 51.1258 216.539 50.6917 216.504 50.3585C216.403 49.3236 216.544 48.8592 217.038 48.6119C217.254 48.5058 217.36 48.4857 217.773 48.4857C218.991 48.4857 219.842 49.0308 220.139 49.99C220.229 50.2777 220.239 50.4645 220.239 51.7114V53.1046L218.065 54.0335C215.074 55.3056 214.561 55.5681 214.153 56.0376C213.534 56.7443 213.468 58.0417 213.997 59.122C214.762 60.6818 216.836 61.232 218.412 60.2931C218.709 60.1164 219.55 59.3138 219.947 58.8342L220.174 58.5566L220.315 58.8342C220.793 59.7883 221.493 60.3789 222.48 60.6566C223.079 60.8282 223.954 60.8181 224.453 60.6414C225.349 60.3183 226.109 59.5712 226.522 58.597C226.643 58.3092 226.723 57.8751 226.653 57.8751C226.628 57.8751 226.472 57.9457 226.31 58.0265C226.059 58.1578 225.958 58.178 225.631 58.178C224.956 58.1729 224.689 57.971 224.533 57.345C224.458 57.032 224.458 56.7695 224.538 53.6902C224.634 49.8486 224.639 49.2429 224.564 48.8794C224.498 48.5513 224.287 48.1121 224.06 47.8294C223.663 47.3347 222.771 46.8248 221.896 46.5977C221.483 46.4917 220.431 46.3503 220.189 46.3705C220.149 46.3756 219.947 46.3957 219.741 46.421ZM220.199 55.9417L220.174 58.2739L219.952 58.3092C218.915 58.4657 218.15 57.9155 217.969 56.8907C217.838 56.1335 218.009 55.4772 218.472 54.9926C218.704 54.7503 220.189 53.564 220.219 53.5994C220.224 53.6044 220.214 54.6595 220.199 55.9417Z" fill="white"/>
<path d="M47.3674 46.5977C46.2045 46.9763 43.9392 47.4306 42.3232 47.6022C42.0363 47.6325 42.0312 47.6376 42.0312 47.7991C42.0312 47.9556 42.0413 47.9657 42.3232 48.0465C42.7058 48.1525 43.023 48.3847 43.1438 48.6522C43.2344 48.8542 43.2394 49.046 43.2394 52.9785C43.2394 55.4217 43.2596 57.2794 43.2898 57.547C43.4559 58.9857 44.1053 60.0508 45.1423 60.5708C45.978 60.9897 47.0805 60.9645 48.2534 60.5001C49.0891 60.1669 50.1362 59.5611 50.8561 58.9958C51.0121 58.8696 51.1531 58.7787 51.1581 58.7888C51.1833 58.8191 51.0977 60.0811 51.0474 60.4748C51.0172 60.6667 51.0071 60.8383 51.0222 60.8484C51.0373 60.8635 51.1883 60.8383 51.3595 60.7878C52.2203 60.5506 54.1081 60.071 55.0696 59.8438C56.6151 59.4804 56.5295 59.5056 56.5295 59.3643C56.5295 59.2381 56.4943 59.2179 56.1671 59.1674C55.9254 59.122 55.6989 58.9049 55.6133 58.6272C55.563 58.4455 55.5479 57.4561 55.558 53.4328C55.563 50.6967 55.5882 48.0414 55.6133 47.5265C55.6435 47.0116 55.6435 46.5724 55.6234 46.5523C55.6033 46.527 55.3365 46.5775 55.0394 46.6633C54.2239 46.8955 53.1214 47.153 52.326 47.2994C51.6968 47.4155 50.2016 47.6275 50.0103 47.6275C49.96 47.6275 49.9348 47.683 49.9348 47.7991C49.9348 47.9607 49.9499 47.9708 50.1664 48.0263C50.6295 48.1424 50.8813 48.3292 51.0725 48.6876C51.1632 48.8542 51.1682 49.0914 51.1833 53.6902L51.1984 58.5162L51.0373 58.5515C50.7302 58.6121 49.6126 58.5818 49.2804 58.501C48.4699 58.3092 48.0521 57.7943 47.8054 56.6787C47.6997 56.1941 47.6946 56.0931 47.6946 52.4232C47.6946 50.3535 47.7047 48.1878 47.7198 47.6022C47.75 46.4109 47.7702 46.4715 47.3674 46.5977Z" fill="white"/>
</svg>
