<svg width="251" height="99" viewBox="0 0 251 99" fill="none" xmlns="http://www.w3.org/2000/svg">
<path d="M76.5657 55H78.4017V50.608H82.0557C83.4957 50.554 84.1257 51.148 84.0897 52.57V55H85.9437V52.174C85.9617 50.734 85.2777 49.924 83.9637 49.852V49.798C85.6377 49.492 86.0877 48.808 86.0877 46.504C86.0877 43.912 85.1337 42.994 82.3797 42.994H76.5657V55ZM78.4017 49.024V44.578H82.2717C82.8657 44.578 83.3157 44.65 83.5857 44.794C84.1077 45.082 84.2337 45.496 84.2337 46.9C84.2337 47.944 84.1077 48.34 83.6397 48.664C83.2977 48.916 82.7757 49.024 81.9657 49.024H78.4017ZM96.4829 52.588L97.3289 55H99.2369L94.9889 42.994H92.3069L88.1129 55H90.0569L90.8849 52.588H96.4829ZM96.0329 51.184H91.3529L93.6749 44.434L96.0329 51.184ZM108.522 42.994H106.686V51.13C106.686 53.2 106.398 53.524 104.634 53.524C103.608 53.524 103.14 53.416 102.924 53.11C102.672 52.75 102.654 52.57 102.654 50.878V50.464H100.89C100.872 50.896 100.872 51.13 100.872 51.472C100.872 52.732 100.926 53.236 101.106 53.668C101.538 54.676 102.618 55.108 104.742 55.108C106.542 55.108 107.442 54.802 108.036 53.974C108.396 53.452 108.522 52.822 108.522 51.382V42.994ZM121.749 48.826V50.266H125.151C125.169 50.518 125.169 50.752 125.169 50.842C125.169 52.138 124.989 52.912 124.611 53.164C124.215 53.452 123.567 53.542 122.127 53.542C119.967 53.542 119.265 53.344 118.941 52.642C118.689 52.102 118.635 51.508 118.635 48.952C118.635 46.576 118.689 45.91 118.941 45.352C119.265 44.65 119.931 44.452 121.821 44.452C124.845 44.452 125.079 44.596 125.133 46.54H126.969C126.969 45.694 126.933 45.352 126.843 44.884C126.717 44.29 126.357 43.75 125.907 43.462C125.079 42.958 124.557 42.886 121.983 42.886C120.471 42.886 119.733 42.94 119.193 43.102C118.005 43.426 117.285 44.218 116.997 45.532C116.799 46.468 116.781 46.774 116.781 50.14C116.781 51.508 116.835 52.156 117.015 52.732C117.321 53.776 117.825 54.352 118.761 54.73C119.481 55.018 120.183 55.108 121.875 55.108C123.477 55.108 124.485 55.036 125.007 54.874C125.727 54.676 126.231 54.28 126.555 53.704C126.933 53.038 127.005 52.462 127.005 50.284C127.005 49.564 127.005 49.402 126.969 48.826H121.749ZM134.612 42.886C133.55 42.886 132.56 42.94 132.128 43.03C131.12 43.228 130.382 43.714 129.95 44.434C129.41 45.334 129.302 46.108 129.302 49.006C129.302 51.256 129.338 51.724 129.536 52.57C129.77 53.596 130.31 54.298 131.174 54.676C131.966 55.018 132.65 55.108 134.63 55.108C136.358 55.108 137.096 55.018 137.87 54.694C138.752 54.316 139.328 53.596 139.562 52.552C139.742 51.67 139.778 51.184 139.778 48.772C139.778 47.17 139.76 46.612 139.67 46.072C139.454 44.614 138.878 43.732 137.834 43.282C137.132 42.976 136.376 42.886 134.612 42.886ZM137.924 50.644C137.924 51.886 137.636 52.804 137.15 53.146C136.736 53.452 136.196 53.524 134.558 53.524C133.118 53.524 132.632 53.47 132.182 53.29C131.66 53.092 131.372 52.624 131.246 51.85C131.156 51.238 131.156 51.238 131.156 49.006C131.156 46.45 131.174 46.234 131.372 45.64C131.714 44.668 132.236 44.47 134.342 44.47C136.142 44.47 136.646 44.524 137.096 44.794C137.636 45.118 137.924 45.982 137.924 47.296V48.97V50.644ZM144.424 42.994H142.588V55H144.424V49.654H145.558L150.472 55H152.884L147.142 48.826L152.308 42.994H149.986L145.558 48.052H144.424V42.994ZM162.856 52.588L163.702 55H165.61L161.362 42.994H158.68L154.486 55H156.43L157.258 52.588H162.856ZM162.406 51.184H157.726L160.048 44.434L162.406 51.184ZM169.572 42.994H167.736V55H175.458V53.344H169.572V42.994Z" fill="white"/>
</svg>
