<svg width="251" height="99" viewBox="0 0 251 99" fill="none" xmlns="http://www.w3.org/2000/svg">
<path d="M96.0272 50.9755H102.974C103.95 50.9755 104.742 51.7639 104.742 52.7266C104.742 53.6975 103.95 54.4777 102.974 54.4777H94.5958C94.4611 54.4777 94.3348 54.5274 94.2422 54.6104L91.7162 56.7599C91.3289 57.0919 91.5647 57.7143 92.0699 57.7143H102.553C102.553 57.7143 102.561 57.7143 102.561 57.706C102.561 57.6977 102.569 57.6977 102.569 57.6977C102.704 57.706 102.83 57.7143 102.965 57.7143C105.744 57.7143 108 55.4818 108 52.7266C108 50.1124 105.971 47.9629 103.378 47.7554C103.378 47.7554 103.369 47.7554 103.369 47.7471C103.369 47.7388 103.369 47.7388 103.361 47.7388H95.8841C94.9074 47.7388 94.1159 46.9504 94.1159 45.9877C94.1159 45.0167 94.9074 44.2366 95.8841 44.2366H104.245C104.38 44.2366 104.514 44.1868 104.615 44.0955L106.965 41.9461C107.335 41.6058 107.091 41 106.594 41H96.0272C95.9851 41 95.9346 41 95.8925 41C93.1139 41 90.8574 43.2324 90.8574 45.9877C90.8574 48.743 93.1139 50.9755 95.8925 50.9755C95.9346 50.9755 95.9767 50.9755 96.0272 50.9755Z" fill="white"/>
<path d="M136.833 40.5798C136.53 40.5798 136.285 40.8263 136.285 41.1407V57.1532C136.285 57.4592 136.53 57.7141 136.833 57.7141H149.565C149.717 57.7141 149.86 57.6462 149.97 57.5357L151.563 55.8103C151.892 55.4534 151.648 54.8669 151.159 54.8669H140.046C139.742 54.8669 139.498 54.6204 139.498 54.306V41.1322C139.498 40.8263 139.253 40.5713 138.95 40.5713H136.833V40.5798Z" fill="white"/>
<path fill-rule="evenodd" clip-rule="evenodd" d="M116.226 41C116.226 41.0083 116.226 41.0083 116.226 41C114.559 41.0747 113.22 42.3617 113.143 43.9642V54.4844C113.143 54.5259 113.143 54.5757 113.143 54.6172C113.143 56.2861 114.507 57.6479 116.226 57.7143H128.059C129.769 57.6396 131.143 56.2778 131.143 54.6172C131.143 54.5757 131.143 54.5259 131.143 54.4844V43.9725C131.073 42.37 129.735 41.0747 128.068 41.0083H116.226V41ZM118.437 43.9725C118.429 43.9725 118.429 43.9725 118.437 43.9725C117.392 44.0141 116.554 44.8278 116.511 45.8408V52.4584C116.511 52.4833 116.511 52.5165 116.511 52.5414C116.511 53.5876 117.366 54.4511 118.437 54.4927H125.857C126.928 54.4511 127.783 53.5876 127.783 52.5414C127.783 52.5165 127.783 52.4833 127.783 52.4584V45.8408C127.74 44.8278 126.902 44.0224 125.857 43.9725H118.437Z" fill="white"/>
<path fill-rule="evenodd" clip-rule="evenodd" d="M170.268 57.5729C170.268 57.8791 170.516 58.1344 170.824 58.1344H173.015C173.323 58.1344 173.571 57.8876 173.571 57.5729V44.3095C173.571 44.2669 173.571 44.2159 173.571 44.1733C173.571 42.4633 172.228 41.0681 170.55 41H159.295C159.252 41 159.201 41 159.158 41C157.412 41 156 42.4208 156 44.1819C156 44.2244 156 44.2754 156 44.318V57.5814C156 57.8876 156.248 58.1429 156.556 58.1429H158.747C159.056 58.1429 159.304 57.8961 159.304 57.5814V52.0599C159.304 51.7536 159.552 51.4984 159.86 51.4984H169.737C170.045 51.4984 170.293 51.7451 170.293 52.0599V57.5729H170.268ZM159.287 48.4442V45.6877C159.287 44.6157 160.151 43.748 161.212 43.748H168.35C169.412 43.748 170.276 44.6157 170.276 45.6877V48.4442C170.276 48.7504 170.028 49.0057 169.72 49.0057H159.843C159.535 49.0057 159.287 48.759 159.287 48.4442Z" fill="white"/>
<path fill-rule="evenodd" clip-rule="evenodd" d="M216.248 57.7143C215.943 57.7143 215.698 57.4737 215.698 57.1668V51.7834C215.698 51.4848 215.452 51.2359 215.147 51.2359H205.265C204.96 51.2359 204.714 51.4765 204.714 51.7834V57.1668C204.714 57.4654 204.469 57.7143 204.164 57.7143H201.979C201.674 57.7143 201.429 57.4737 201.429 57.1668V44.235C201.429 44.1935 201.429 44.1438 201.429 44.1023C201.429 42.3935 202.843 41 204.587 41C204.63 41 204.68 41 204.723 41H215.977C217.654 41.0747 219 42.435 219 44.094C219 44.1355 219 44.1853 219 44.2267V57.1585C219 57.4571 218.755 57.706 218.45 57.706H216.248V57.7143ZM204.714 45.5788V48.2664C204.714 48.565 204.96 48.8138 205.265 48.8138H215.147C215.452 48.8138 215.698 48.5733 215.698 48.2664V45.5788C215.698 44.5336 214.834 43.6876 213.775 43.6876H206.637C205.57 43.6876 204.714 44.5336 204.714 45.5788Z" fill="white"/>
<path d="M181.783 41C181.945 41 182.099 41.068 182.202 41.1955L192.013 52.8309C192.346 53.2218 192.987 52.9839 192.987 52.4654V41.5609C192.987 41.255 193.235 41 193.543 41H195.731C196.038 41 196.286 41.2465 196.286 41.5609V57.5734C196.286 57.8794 196.038 58.1344 195.731 58.1344H193.013C193.004 58.1344 192.996 58.1259 192.996 58.1174C192.996 58.1089 192.996 58.1089 192.987 58.1004L183.005 46.55C182.672 46.159 182.031 46.4055 182.031 46.9154V57.5819C182.031 57.8879 181.783 58.1429 181.475 58.1429H179.27C178.963 58.1429 178.715 57.8964 178.715 57.5819V41.5609C178.715 41.255 178.963 41 179.27 41H181.783V41Z" fill="white"/>
<path d="M40.2455 58.5641C40.5188 58.2946 40.8861 58.1431 41.2704 58.1431H76.8425C77.4916 58.1431 77.8161 58.9177 77.3549 59.3639L70.3259 66.2935C70.0526 66.5629 69.6854 66.7145 69.301 66.7145H33.729C33.0799 66.7145 32.7553 65.9399 33.2165 65.4936L40.2455 58.5641Z" fill="white"/>
<path d="M40.2455 32.4214C40.5188 32.1517 40.8861 32 41.2704 32H76.8425C77.4916 32 77.8161 32.7754 77.3549 33.2221L70.3259 40.15C70.0526 40.4197 69.6854 40.5714 69.301 40.5714H33.729C33.0799 40.5714 32.7553 39.796 33.2165 39.3493L40.2455 32.4214Z" fill="white"/>
<path d="M70.3259 45.2783C70.0526 45.0086 69.6854 44.8569 69.301 44.8569H33.729C33.0799 44.8569 32.7553 45.6323 33.2165 46.079L40.2455 53.007C40.5188 53.2767 40.8861 53.4284 41.2704 53.4284H76.8425C77.4916 53.4284 77.8161 52.653 77.3549 52.2063L70.3259 45.2783Z" fill="white"/>
</svg>
