<svg width="25" height="19" viewBox="0 0 25 19" fill="none" xmlns="http://www.w3.org/2000/svg">
<path d="M21.0863 1.60469C23.8951 5.74529 25.2823 10.4158 24.7637 15.7926C24.7615 15.8153 24.7497 15.8362 24.7311 15.8499C22.604 17.4159 20.5431 18.3663 18.5112 18.9965C18.4954 19.0014 18.4785 19.0011 18.4628 18.9958C18.4471 18.9905 18.4335 18.9804 18.4238 18.9669C17.9544 18.312 17.5279 17.6216 17.1542 16.8966C17.1327 16.8539 17.1523 16.8025 17.1965 16.7857C17.8739 16.5298 18.518 16.223 19.1376 15.8599C19.1864 15.8312 19.1896 15.7611 19.1445 15.7274C19.013 15.6296 18.8827 15.5267 18.758 15.4238C18.7347 15.4048 18.7033 15.4011 18.6769 15.4139C14.6544 17.2763 10.2479 17.2763 6.1778 15.4139C6.15138 15.402 6.11998 15.4061 6.09728 15.4248C5.97293 15.5276 5.84236 15.6296 5.7121 15.7274C5.66702 15.7611 5.67075 15.8312 5.71987 15.8599C6.33946 16.2162 6.98361 16.5298 7.6601 16.7869C7.70393 16.8037 7.72476 16.8539 7.703 16.8966C7.3374 17.6226 6.91087 18.313 6.43273 18.9679C6.4119 18.9944 6.3777 19.0065 6.34537 18.9965C4.32306 18.3663 2.26221 17.4159 0.135142 15.8499C0.117422 15.8362 0.104676 15.8144 0.10281 15.7916C-0.330562 11.1408 0.55266 6.43165 3.77684 1.60376C3.78461 1.59098 3.79643 1.581 3.81011 1.57508C5.39655 0.845082 7.09615 0.308025 8.87255 0.00131397C8.90488 -0.00367321 8.93721 0.0112883 8.954 0.0399646C9.17348 0.429588 9.42437 0.92924 9.59411 1.33757C11.4666 1.0508 13.3682 1.0508 15.2799 1.33757C15.4496 0.937968 15.6918 0.429588 15.9103 0.0399646C15.9181 0.0257386 15.9302 0.0143415 15.9448 0.00740043C15.9594 0.000459356 15.9759 -0.00167084 15.9918 0.00131397C17.7691 0.30896 19.4687 0.846017 21.0539 1.57508C21.0679 1.581 21.0794 1.59098 21.0863 1.60469ZM10.546 10.4476C10.5656 9.07268 9.56582 7.93498 8.31078 7.93498C7.066 7.93498 6.07583 9.0627 6.07583 10.4476C6.07583 11.8321 7.08558 12.9599 8.31078 12.9599C9.55587 12.9599 10.546 11.8321 10.546 10.4476ZM18.81 10.4476C18.8295 9.07268 17.8297 7.93498 16.575 7.93498C15.3299 7.93498 14.3398 9.0627 14.3398 10.4476C14.3398 11.8321 15.3495 12.9599 16.575 12.9599C17.8297 12.9599 18.81 11.8321 18.81 10.4476Z" fill="#838383"/>
</svg>
