<svg width="20" height="19" viewBox="0 0 20 19" fill="none" xmlns="http://www.w3.org/2000/svg">
<path d="M9.80052 0.000236485C7.47769 -0.0159491 5.22567 0.799173 3.45133 2.29833C1.67699 3.7975 0.497346 5.88183 0.12552 8.17476C-0.246306 10.4677 0.214211 12.818 1.42387 14.801C2.63352 16.7841 4.51255 18.2691 6.72145 18.9878C7.20808 19.0674 7.36735 18.7401 7.36735 18.5012V16.8732C4.68644 17.4394 4.12017 15.5814 4.12017 15.5814C3.63354 14.44 2.98764 14.1215 2.98764 14.1215C2.17364 13.5464 3.07612 13.5464 3.07612 13.5464C4.04939 13.5464 4.6068 14.5196 4.6068 14.5196C5.42081 15.9795 6.88071 15.5814 7.44698 15.3336C7.44654 15.0895 7.49662 14.8479 7.59408 14.6241C7.69153 14.4002 7.83424 14.199 8.01324 14.033C5.82781 13.7941 3.55391 12.9801 3.55391 9.16665C3.55391 8.19338 3.96091 7.30859 4.61565 6.65385C4.44215 6.24373 4.35274 5.80295 4.35274 5.35763C4.35274 4.91232 4.44215 4.47154 4.61565 4.06142C4.61565 4.06142 5.42081 3.81368 7.36735 5.03469C8.95997 4.60114 10.6411 4.60114 12.2337 5.03469C14.0917 3.81368 14.9057 4.06142 14.9057 4.06142C15.0793 4.47154 15.1687 4.91232 15.1687 5.35763C15.1687 5.80295 15.0793 6.24373 14.9057 6.65385C15.6401 7.30859 15.9675 8.19338 15.9675 9.25513C15.9675 12.9801 13.6936 13.7941 11.5082 14.033C11.9063 14.3604 12.2337 14.847 12.2337 15.8203V18.5012C12.2337 18.7401 12.3222 19.0674 12.8796 18.9878C15.0885 18.2691 16.9675 16.7841 18.1772 14.801C19.3868 12.818 19.8473 10.4677 19.4755 8.17476C19.1037 5.88183 17.924 3.7975 16.1497 2.29833C14.3754 0.799173 12.1233 -0.0159491 9.80052 0.000236485Z" fill="#838383"/>
</svg>
