<svg width="34" height="19" viewBox="0 0 34 19" fill="none" xmlns="http://www.w3.org/2000/svg">
<path d="M18.9563 9.50016C18.9563 14.7468 14.7128 19 9.47833 19C4.2439 19 0 14.7458 0 9.50016C0 4.25449 4.24358 0 9.47833 0C14.7131 0 18.9563 4.25353 18.9563 9.50016ZM29.354 9.50016C29.354 14.4387 27.2322 18.4438 24.6149 18.4438C21.9975 18.4438 19.8757 14.4387 19.8757 9.50016C19.8757 4.56159 21.9972 0.556495 24.6145 0.556495C27.2319 0.556495 29.3537 4.56031 29.3537 9.50016H29.354ZM33.6069 9.50016C33.6069 13.9239 32.8608 17.5123 31.9402 17.5123C31.0195 17.5123 30.2737 13.9249 30.2737 9.50016C30.2737 5.07545 31.0198 1.48805 31.9402 1.48805C32.8605 1.48805 33.6069 5.07513 33.6069 9.50016Z" fill="#838383"/>
</svg>
