<svg width="944" height="840" viewBox="0 0 944 840" fill="none" xmlns="http://www.w3.org/2000/svg">
<path d="M31 408.5L7.75 420.191L7.75 396.809L31 408.5Z" fill="white"/>
<line x1="43" y1="0.5" x2="57" y2="0.5" stroke="white"/>
<line x1="43" y1="21.5" x2="48" y2="21.5" stroke="#838383"/>
<line x1="43" y1="43.5" x2="48" y2="43.5" stroke="#838383"/>
<line x1="43" y1="64.5" x2="48" y2="64.5" stroke="#838383"/>
<line x1="43" y1="86.5" x2="48" y2="86.5" stroke="#838383"/>
<line x1="43" y1="107.5" x2="48" y2="107.5" stroke="#838383"/>
<line x1="43" y1="129.5" x2="48" y2="129.5" stroke="#838383"/>
<line x1="43" y1="151.5" x2="48" y2="151.5" stroke="#838383"/>
<line x1="43" y1="172.5" x2="48" y2="172.5" stroke="#838383"/>
<line x1="43" y1="194.5" x2="51" y2="194.5" stroke="white"/>
<line x1="43" y1="215.5" x2="48" y2="215.5" stroke="#838383"/>
<line x1="43" y1="237.5" x2="48" y2="237.5" stroke="#838383"/>
<line x1="43" y1="258.5" x2="48" y2="258.5" stroke="#838383"/>
<line x1="43" y1="280.5" x2="48" y2="280.5" stroke="#838383"/>
<line x1="43" y1="301.5" x2="48" y2="301.5" stroke="#838383"/>
<line x1="43" y1="323.5" x2="48" y2="323.5" stroke="#838383"/>
<line x1="43" y1="344.5" x2="48" y2="344.5" stroke="#838383"/>
<line x1="43" y1="365.5" x2="48" y2="365.5" stroke="#838383"/>
<line x1="43" y1="387.5" x2="48" y2="387.5" stroke="#838383"/>
<line x1="43" y1="408.5" x2="57" y2="408.5" stroke="white"/>
<line x1="43" y1="431.5" x2="48" y2="431.5" stroke="#838383"/>
<line x1="43" y1="452.5" x2="48" y2="452.5" stroke="#838383"/>
<line x1="43" y1="474.5" x2="48" y2="474.5" stroke="#838383"/>
<line x1="43" y1="495.5" x2="48" y2="495.5" stroke="#838383"/>
<line x1="43" y1="516.5" x2="48" y2="516.5" stroke="#838383"/>
<line x1="43" y1="538.5" x2="48" y2="538.5" stroke="#838383"/>
<line x1="43" y1="559.5" x2="48" y2="559.5" stroke="#838383"/>
<line x1="43" y1="581.5" x2="48" y2="581.5" stroke="#838383"/>
<line x1="43" y1="602.5" x2="48" y2="602.5" stroke="#838383"/>
<line x1="43" y1="624.5" x2="51" y2="624.5" stroke="white"/>
<line x1="43" y1="645.5" x2="48" y2="645.5" stroke="#838383"/>
<line x1="43" y1="667.5" x2="48" y2="667.5" stroke="#838383"/>
<line x1="43" y1="688.5" x2="48" y2="688.5" stroke="#838383"/>
<line x1="43" y1="710.5" x2="48" y2="710.5" stroke="#838383"/>
<line x1="43" y1="732.5" x2="48" y2="732.5" stroke="#838383"/>
<line x1="43" y1="753.5" x2="48" y2="753.5" stroke="#838383"/>
<line x1="43" y1="775.5" x2="48" y2="775.5" stroke="#838383"/>
<line x1="43" y1="796.5" x2="48" y2="796.5" stroke="#838383"/>
<line x1="43" y1="818.5" x2="48" y2="818.5" stroke="#838383"/>
<line x1="43" y1="839.5" x2="57" y2="839.5" stroke="white"/>
<path d="M132.664 364H95V462.201H132.664C142.913 462.201 151.112 454.345 151.112 444.525V380.94C151.112 371.12 142.913 364 132.664 364ZM132.664 446.243H111.654V379.958H132.664C133.945 379.958 134.458 380.694 134.458 381.553V444.525C134.458 445.875 134.073 446.243 132.664 446.243Z" fill="white"/>
<path d="M219.065 364H170.639V462.201H219.065V446.243H187.294V419.729H215.606V403.771H187.294V379.958H219.065V364Z" fill="white"/>
<path d="M252.421 364H235.895V462.201H284.064V446.243H252.421V364Z" fill="white"/>
<path d="M281.445 379.958H302.455V462.201H319.109V379.958H340.119V364H281.445V379.958Z" fill="white"/>
<path d="M389.773 440.842L393.104 462.201H409.758L393.744 368.174C393.36 366.087 390.926 364 388.236 364H362.998C360.308 364 357.874 366.21 357.49 368.174L341.476 462.201H358.13L361.461 440.842H389.773ZM387.339 424.885H363.895L370.685 381.308C370.813 380.326 371.197 379.958 371.71 379.958H379.396C379.909 379.958 380.293 380.326 380.549 381.308L387.339 424.885Z" fill="white"/>
<path d="M484.332 364H455.507V462.201H472.161V379.958H472.802L489.328 462.201H517.896V364H501.242V446.243H500.601L484.332 364Z" fill="white"/>
<path d="M587.703 364H539.278V462.201H587.703V446.243H555.932V419.729H584.245V403.771H555.932V379.958H587.703V364Z" fill="white"/>
<path d="M620.035 364H603.381V445.752C603.381 455.572 611.58 463.429 621.829 463.429H640.917C651.166 463.429 659.365 455.572 659.365 445.752V364H642.71V445.752C642.71 447.103 642.326 447.471 640.917 447.471H621.829C620.419 447.471 620.035 447.103 620.035 445.752V364Z" fill="white"/>
<path d="M671.477 379.958H692.487V462.201H709.141V379.958H730.151V364H671.477V379.958Z" fill="white"/>
<path d="M783.653 364H743.427V462.201H760.081V418.87H780.323C782.372 419.975 783.269 421.448 783.269 425.621V462.201H799.923V425.621C799.923 418.87 795.439 413.101 789.162 410.891C794.927 408.436 799.026 402.789 799.026 396.406V378.73C799.026 370.629 792.109 364 783.653 364ZM779.17 402.912H760.081V379.712H781.219C781.86 379.712 782.244 380.08 782.244 381.185V396.652C782.244 400.334 781.475 401.93 779.17 402.912Z" fill="white"/>
<path d="M860.324 440.842L863.654 462.201H880.309L864.295 368.174C863.911 366.087 861.477 364 858.786 364H833.549C830.858 364 828.424 366.21 828.04 368.174L812.027 462.201H828.681L832.012 440.842H860.324ZM857.89 424.885H834.446L841.235 381.308C841.363 380.326 841.748 379.958 842.26 379.958H849.947C850.459 379.958 850.844 380.326 851.1 381.308L857.89 424.885Z" fill="white"/>
<path d="M911.357 364H894.831V462.201H943V446.243H911.357V364Z" fill="white"/>
<mask id="mask0_3218_1329" style="mask-type:alpha" maskUnits="userSpaceOnUse" x="94" y="252" width="850" height="103">
<mask id="path-43-outside-1_3218_1329" maskUnits="userSpaceOnUse" x="94" y="252.895" width="850" height="102" fill="black">
<rect fill="white" x="94" y="252.895" width="850" height="102"/>
<path d="M132.664 253.895H95V352.096H132.664C142.913 352.096 151.112 344.24 151.112 334.419V270.834C151.112 261.014 142.913 253.895 132.664 253.895ZM132.664 336.138H111.654V269.852H132.664C133.945 269.852 134.458 270.589 134.458 271.448V334.419C134.458 335.77 134.073 336.138 132.664 336.138Z"/>
<path d="M219.065 253.895H170.639V352.096H219.065V336.138H187.294V309.624H215.606V293.666H187.294V269.852H219.065V253.895Z"/>
<path d="M252.421 253.895H235.895V352.096H284.064V336.138H252.421V253.895Z"/>
<path d="M281.445 269.852H302.455V352.096H319.109V269.852H340.119V253.895H281.445V269.852Z"/>
<path d="M389.773 330.737L393.104 352.096H409.758L393.744 258.068C393.36 255.981 390.926 253.895 388.236 253.895H362.998C360.308 253.895 357.874 256.104 357.49 258.068L341.476 352.096H358.13L361.461 330.737H389.773ZM387.339 314.779H363.895L370.685 271.202C370.813 270.22 371.197 269.852 371.71 269.852H379.396C379.909 269.852 380.293 270.22 380.549 271.202L387.339 314.779Z"/>
<path d="M484.332 253.895H455.507V352.096H472.161V269.852H472.802L489.328 352.096H517.896V253.895H501.242V336.138H500.601L484.332 253.895Z"/>
<path d="M587.703 253.895H539.278V352.096H587.703V336.138H555.932V309.624H584.245V293.666H555.932V269.852H587.703V253.895Z"/>
<path d="M620.035 253.895H603.381V335.647C603.381 345.467 611.58 353.323 621.829 353.323H640.917C651.166 353.323 659.365 345.467 659.365 335.647V253.895H642.71V335.647C642.71 336.997 642.326 337.365 640.917 337.365H621.829C620.419 337.365 620.035 336.997 620.035 335.647V253.895Z"/>
<path d="M671.477 269.852H692.487V352.096H709.141V269.852H730.151V253.895H671.477V269.852Z"/>
<path d="M783.653 253.895H743.427V352.096H760.081V308.764H780.323C782.372 309.869 783.269 311.342 783.269 315.516V352.096H799.923V315.516C799.923 308.764 795.439 302.995 789.162 300.786C794.927 298.331 799.026 292.684 799.026 286.301V268.625C799.026 260.523 792.109 253.895 783.653 253.895ZM779.17 292.807H760.081V269.607H781.219C781.86 269.607 782.244 269.975 782.244 271.08V286.546C782.244 290.229 781.475 291.825 779.17 292.807Z"/>
<path d="M860.324 330.737L863.654 352.096H880.309L864.295 258.068C863.911 255.981 861.477 253.895 858.786 253.895H833.549C830.858 253.895 828.424 256.104 828.04 258.068L812.027 352.096H828.681L832.012 330.737H860.324ZM857.89 314.779H834.446L841.235 271.202C841.363 270.22 841.748 269.852 842.26 269.852H849.947C850.459 269.852 850.844 270.22 851.1 271.202L857.89 314.779Z"/>
<path d="M911.357 253.895H894.831V352.096H943V336.138H911.357V253.895Z"/>
</mask>
<path d="M132.664 253.895H95V352.096H132.664C142.913 352.096 151.112 344.24 151.112 334.419V270.834C151.112 261.014 142.913 253.895 132.664 253.895ZM132.664 336.138H111.654V269.852H132.664C133.945 269.852 134.458 270.589 134.458 271.448V334.419C134.458 335.77 134.073 336.138 132.664 336.138Z" fill="white"/>
<path d="M219.065 253.895H170.639V352.096H219.065V336.138H187.294V309.624H215.606V293.666H187.294V269.852H219.065V253.895Z" fill="white"/>
<path d="M252.421 253.895H235.895V352.096H284.064V336.138H252.421V253.895Z" fill="white"/>
<path d="M281.445 269.852H302.455V352.096H319.109V269.852H340.119V253.895H281.445V269.852Z" fill="white"/>
<path d="M389.773 330.737L393.104 352.096H409.758L393.744 258.068C393.36 255.981 390.926 253.895 388.236 253.895H362.998C360.308 253.895 357.874 256.104 357.49 258.068L341.476 352.096H358.13L361.461 330.737H389.773ZM387.339 314.779H363.895L370.685 271.202C370.813 270.22 371.197 269.852 371.71 269.852H379.396C379.909 269.852 380.293 270.22 380.549 271.202L387.339 314.779Z" fill="white"/>
<path d="M484.332 253.895H455.507V352.096H472.161V269.852H472.802L489.328 352.096H517.896V253.895H501.242V336.138H500.601L484.332 253.895Z" fill="white"/>
<path d="M587.703 253.895H539.278V352.096H587.703V336.138H555.932V309.624H584.245V293.666H555.932V269.852H587.703V253.895Z" fill="white"/>
<path d="M620.035 253.895H603.381V335.647C603.381 345.467 611.58 353.323 621.829 353.323H640.917C651.166 353.323 659.365 345.467 659.365 335.647V253.895H642.71V335.647C642.71 336.997 642.326 337.365 640.917 337.365H621.829C620.419 337.365 620.035 336.997 620.035 335.647V253.895Z" fill="white"/>
<path d="M671.477 269.852H692.487V352.096H709.141V269.852H730.151V253.895H671.477V269.852Z" fill="white"/>
<path d="M783.653 253.895H743.427V352.096H760.081V308.764H780.323C782.372 309.869 783.269 311.342 783.269 315.516V352.096H799.923V315.516C799.923 308.764 795.439 302.995 789.162 300.786C794.927 298.331 799.026 292.684 799.026 286.301V268.625C799.026 260.523 792.109 253.895 783.653 253.895ZM779.17 292.807H760.081V269.607H781.219C781.86 269.607 782.244 269.975 782.244 271.08V286.546C782.244 290.229 781.475 291.825 779.17 292.807Z" fill="white"/>
<path d="M860.324 330.737L863.654 352.096H880.309L864.295 258.068C863.911 255.981 861.477 253.895 858.786 253.895H833.549C830.858 253.895 828.424 256.104 828.04 258.068L812.027 352.096H828.681L832.012 330.737H860.324ZM857.89 314.779H834.446L841.235 271.202C841.363 270.22 841.748 269.852 842.26 269.852H849.947C850.459 269.852 850.844 270.22 851.1 271.202L857.89 314.779Z" fill="white"/>
<path d="M911.357 253.895H894.831V352.096H943V336.138H911.357V253.895Z" fill="white"/>
<path d="M132.664 253.895H95V352.096H132.664C142.913 352.096 151.112 344.24 151.112 334.419V270.834C151.112 261.014 142.913 253.895 132.664 253.895ZM132.664 336.138H111.654V269.852H132.664C133.945 269.852 134.458 270.589 134.458 271.448V334.419C134.458 335.77 134.073 336.138 132.664 336.138Z" stroke="white" stroke-width="2" mask="url(#path-43-outside-1_3218_1329)"/>
<path d="M219.065 253.895H170.639V352.096H219.065V336.138H187.294V309.624H215.606V293.666H187.294V269.852H219.065V253.895Z" stroke="white" stroke-width="2" mask="url(#path-43-outside-1_3218_1329)"/>
<path d="M252.421 253.895H235.895V352.096H284.064V336.138H252.421V253.895Z" stroke="white" stroke-width="2" mask="url(#path-43-outside-1_3218_1329)"/>
<path d="M281.445 269.852H302.455V352.096H319.109V269.852H340.119V253.895H281.445V269.852Z" stroke="white" stroke-width="2" mask="url(#path-43-outside-1_3218_1329)"/>
<path d="M389.773 330.737L393.104 352.096H409.758L393.744 258.068C393.36 255.981 390.926 253.895 388.236 253.895H362.998C360.308 253.895 357.874 256.104 357.49 258.068L341.476 352.096H358.13L361.461 330.737H389.773ZM387.339 314.779H363.895L370.685 271.202C370.813 270.22 371.197 269.852 371.71 269.852H379.396C379.909 269.852 380.293 270.22 380.549 271.202L387.339 314.779Z" stroke="white" stroke-width="2" mask="url(#path-43-outside-1_3218_1329)"/>
<path d="M484.332 253.895H455.507V352.096H472.161V269.852H472.802L489.328 352.096H517.896V253.895H501.242V336.138H500.601L484.332 253.895Z" stroke="white" stroke-width="2" mask="url(#path-43-outside-1_3218_1329)"/>
<path d="M587.703 253.895H539.278V352.096H587.703V336.138H555.932V309.624H584.245V293.666H555.932V269.852H587.703V253.895Z" stroke="white" stroke-width="2" mask="url(#path-43-outside-1_3218_1329)"/>
<path d="M620.035 253.895H603.381V335.647C603.381 345.467 611.58 353.323 621.829 353.323H640.917C651.166 353.323 659.365 345.467 659.365 335.647V253.895H642.71V335.647C642.71 336.997 642.326 337.365 640.917 337.365H621.829C620.419 337.365 620.035 336.997 620.035 335.647V253.895Z" stroke="white" stroke-width="2" mask="url(#path-43-outside-1_3218_1329)"/>
<path d="M671.477 269.852H692.487V352.096H709.141V269.852H730.151V253.895H671.477V269.852Z" stroke="white" stroke-width="2" mask="url(#path-43-outside-1_3218_1329)"/>
<path d="M783.653 253.895H743.427V352.096H760.081V308.764H780.323C782.372 309.869 783.269 311.342 783.269 315.516V352.096H799.923V315.516C799.923 308.764 795.439 302.995 789.162 300.786C794.927 298.331 799.026 292.684 799.026 286.301V268.625C799.026 260.523 792.109 253.895 783.653 253.895ZM779.17 292.807H760.081V269.607H781.219C781.86 269.607 782.244 269.975 782.244 271.08V286.546C782.244 290.229 781.475 291.825 779.17 292.807Z" stroke="white" stroke-width="2" mask="url(#path-43-outside-1_3218_1329)"/>
<path d="M860.324 330.737L863.654 352.096H880.309L864.295 258.068C863.911 255.981 861.477 253.895 858.786 253.895H833.549C830.858 253.895 828.424 256.104 828.04 258.068L812.027 352.096H828.681L832.012 330.737H860.324ZM857.89 314.779H834.446L841.235 271.202C841.363 270.22 841.748 269.852 842.26 269.852H849.947C850.459 269.852 850.844 270.22 851.1 271.202L857.89 314.779Z" stroke="white" stroke-width="2" mask="url(#path-43-outside-1_3218_1329)"/>
<path d="M911.357 253.895H894.831V352.096H943V336.138H911.357V253.895Z" stroke="white" stroke-width="2" mask="url(#path-43-outside-1_3218_1329)"/>
</mask>
<g mask="url(#mask0_3218_1329)">
<rect x="93.9199" y="252.814" width="850.547" height="88.6211" fill="#525252"/>
</g>
<mask id="mask1_3218_1329" style="mask-type:alpha" maskUnits="userSpaceOnUse" x="94" y="473" width="850" height="102">
<mask id="path-45-outside-2_3218_1329" maskUnits="userSpaceOnUse" x="94" y="473.366" width="850" height="102" fill="black">
<rect fill="white" x="94" y="473.366" width="850" height="102"/>
<path d="M132.664 474.366H95V572.567H132.664C142.913 572.567 151.112 564.711 151.112 554.891V491.306C151.112 481.486 142.913 474.366 132.664 474.366ZM132.664 556.61H111.654V490.324H132.664C133.945 490.324 134.458 491.06 134.458 491.92V554.891C134.458 556.241 134.073 556.61 132.664 556.61Z"/>
<path d="M219.065 474.366H170.639V572.567H219.065V556.61H187.294V530.095H215.606V514.138H187.294V490.324H219.065V474.366Z"/>
<path d="M252.421 474.366H235.895V572.567H284.064V556.61H252.421V474.366Z"/>
<path d="M281.445 490.324H302.455V572.567H319.109V490.324H340.119V474.366H281.445V490.324Z"/>
<path d="M389.773 551.209L393.104 572.567H409.758L393.744 478.54C393.36 476.453 390.926 474.366 388.236 474.366H362.998C360.308 474.366 357.874 476.576 357.49 478.54L341.476 572.567H358.13L361.461 551.209H389.773ZM387.339 535.251H363.895L370.685 491.674C370.813 490.692 371.197 490.324 371.71 490.324H379.396C379.909 490.324 380.293 490.692 380.549 491.674L387.339 535.251Z"/>
<path d="M484.332 474.366H455.507V572.567H472.161V490.324H472.802L489.328 572.567H517.896V474.366H501.242V556.61H500.601L484.332 474.366Z"/>
<path d="M587.703 474.366H539.278V572.567H587.703V556.61H555.932V530.095H584.245V514.138H555.932V490.324H587.703V474.366Z"/>
<path d="M620.035 474.366H603.381V556.119C603.381 565.939 611.58 573.795 621.829 573.795H640.917C651.166 573.795 659.365 565.939 659.365 556.119V474.366H642.71V556.119C642.71 557.469 642.326 557.837 640.917 557.837H621.829C620.419 557.837 620.035 557.469 620.035 556.119V474.366Z"/>
<path d="M671.477 490.324H692.487V572.567H709.141V490.324H730.151V474.366H671.477V490.324Z"/>
<path d="M783.653 474.366H743.427V572.567H760.081V529.236H780.323C782.372 530.341 783.269 531.814 783.269 535.987V572.567H799.923V535.987C799.923 529.236 795.439 523.467 789.162 521.257C794.927 518.802 799.026 513.156 799.026 506.773V489.096C799.026 480.995 792.109 474.366 783.653 474.366ZM779.17 513.278H760.081V490.078H781.219C781.86 490.078 782.244 490.447 782.244 491.551V507.018C782.244 510.701 781.475 512.296 779.17 513.278Z"/>
<path d="M860.324 551.209L863.654 572.567H880.309L864.295 478.54C863.911 476.453 861.477 474.366 858.786 474.366H833.549C830.858 474.366 828.424 476.576 828.04 478.54L812.027 572.567H828.681L832.012 551.209H860.324ZM857.89 535.251H834.446L841.235 491.674C841.363 490.692 841.748 490.324 842.26 490.324H849.947C850.459 490.324 850.844 490.692 851.1 491.674L857.89 535.251Z"/>
<path d="M911.357 474.366H894.831V572.567H943V556.61H911.357V474.366Z"/>
</mask>
<path d="M132.664 474.366H95V572.567H132.664C142.913 572.567 151.112 564.711 151.112 554.891V491.306C151.112 481.486 142.913 474.366 132.664 474.366ZM132.664 556.61H111.654V490.324H132.664C133.945 490.324 134.458 491.06 134.458 491.92V554.891C134.458 556.241 134.073 556.61 132.664 556.61Z" fill="white"/>
<path d="M219.065 474.366H170.639V572.567H219.065V556.61H187.294V530.095H215.606V514.138H187.294V490.324H219.065V474.366Z" fill="white"/>
<path d="M252.421 474.366H235.895V572.567H284.064V556.61H252.421V474.366Z" fill="white"/>
<path d="M281.445 490.324H302.455V572.567H319.109V490.324H340.119V474.366H281.445V490.324Z" fill="white"/>
<path d="M389.773 551.209L393.104 572.567H409.758L393.744 478.54C393.36 476.453 390.926 474.366 388.236 474.366H362.998C360.308 474.366 357.874 476.576 357.49 478.54L341.476 572.567H358.13L361.461 551.209H389.773ZM387.339 535.251H363.895L370.685 491.674C370.813 490.692 371.197 490.324 371.71 490.324H379.396C379.909 490.324 380.293 490.692 380.549 491.674L387.339 535.251Z" fill="white"/>
<path d="M484.332 474.366H455.507V572.567H472.161V490.324H472.802L489.328 572.567H517.896V474.366H501.242V556.61H500.601L484.332 474.366Z" fill="white"/>
<path d="M587.703 474.366H539.278V572.567H587.703V556.61H555.932V530.095H584.245V514.138H555.932V490.324H587.703V474.366Z" fill="white"/>
<path d="M620.035 474.366H603.381V556.119C603.381 565.939 611.58 573.795 621.829 573.795H640.917C651.166 573.795 659.365 565.939 659.365 556.119V474.366H642.71V556.119C642.71 557.469 642.326 557.837 640.917 557.837H621.829C620.419 557.837 620.035 557.469 620.035 556.119V474.366Z" fill="white"/>
<path d="M671.477 490.324H692.487V572.567H709.141V490.324H730.151V474.366H671.477V490.324Z" fill="white"/>
<path d="M783.653 474.366H743.427V572.567H760.081V529.236H780.323C782.372 530.341 783.269 531.814 783.269 535.987V572.567H799.923V535.987C799.923 529.236 795.439 523.467 789.162 521.257C794.927 518.802 799.026 513.156 799.026 506.773V489.096C799.026 480.995 792.109 474.366 783.653 474.366ZM779.17 513.278H760.081V490.078H781.219C781.86 490.078 782.244 490.447 782.244 491.551V507.018C782.244 510.701 781.475 512.296 779.17 513.278Z" fill="white"/>
<path d="M860.324 551.209L863.654 572.567H880.309L864.295 478.54C863.911 476.453 861.477 474.366 858.786 474.366H833.549C830.858 474.366 828.424 476.576 828.04 478.54L812.027 572.567H828.681L832.012 551.209H860.324ZM857.89 535.251H834.446L841.235 491.674C841.363 490.692 841.748 490.324 842.26 490.324H849.947C850.459 490.324 850.844 490.692 851.1 491.674L857.89 535.251Z" fill="white"/>
<path d="M911.357 474.366H894.831V572.567H943V556.61H911.357V474.366Z" fill="white"/>
<path d="M132.664 474.366H95V572.567H132.664C142.913 572.567 151.112 564.711 151.112 554.891V491.306C151.112 481.486 142.913 474.366 132.664 474.366ZM132.664 556.61H111.654V490.324H132.664C133.945 490.324 134.458 491.06 134.458 491.92V554.891C134.458 556.241 134.073 556.61 132.664 556.61Z" stroke="white" stroke-width="2" mask="url(#path-45-outside-2_3218_1329)"/>
<path d="M219.065 474.366H170.639V572.567H219.065V556.61H187.294V530.095H215.606V514.138H187.294V490.324H219.065V474.366Z" stroke="white" stroke-width="2" mask="url(#path-45-outside-2_3218_1329)"/>
<path d="M252.421 474.366H235.895V572.567H284.064V556.61H252.421V474.366Z" stroke="white" stroke-width="2" mask="url(#path-45-outside-2_3218_1329)"/>
<path d="M281.445 490.324H302.455V572.567H319.109V490.324H340.119V474.366H281.445V490.324Z" stroke="white" stroke-width="2" mask="url(#path-45-outside-2_3218_1329)"/>
<path d="M389.773 551.209L393.104 572.567H409.758L393.744 478.54C393.36 476.453 390.926 474.366 388.236 474.366H362.998C360.308 474.366 357.874 476.576 357.49 478.54L341.476 572.567H358.13L361.461 551.209H389.773ZM387.339 535.251H363.895L370.685 491.674C370.813 490.692 371.197 490.324 371.71 490.324H379.396C379.909 490.324 380.293 490.692 380.549 491.674L387.339 535.251Z" stroke="white" stroke-width="2" mask="url(#path-45-outside-2_3218_1329)"/>
<path d="M484.332 474.366H455.507V572.567H472.161V490.324H472.802L489.328 572.567H517.896V474.366H501.242V556.61H500.601L484.332 474.366Z" stroke="white" stroke-width="2" mask="url(#path-45-outside-2_3218_1329)"/>
<path d="M587.703 474.366H539.278V572.567H587.703V556.61H555.932V530.095H584.245V514.138H555.932V490.324H587.703V474.366Z" stroke="white" stroke-width="2" mask="url(#path-45-outside-2_3218_1329)"/>
<path d="M620.035 474.366H603.381V556.119C603.381 565.939 611.58 573.795 621.829 573.795H640.917C651.166 573.795 659.365 565.939 659.365 556.119V474.366H642.71V556.119C642.71 557.469 642.326 557.837 640.917 557.837H621.829C620.419 557.837 620.035 557.469 620.035 556.119V474.366Z" stroke="white" stroke-width="2" mask="url(#path-45-outside-2_3218_1329)"/>
<path d="M671.477 490.324H692.487V572.567H709.141V490.324H730.151V474.366H671.477V490.324Z" stroke="white" stroke-width="2" mask="url(#path-45-outside-2_3218_1329)"/>
<path d="M783.653 474.366H743.427V572.567H760.081V529.236H780.323C782.372 530.341 783.269 531.814 783.269 535.987V572.567H799.923V535.987C799.923 529.236 795.439 523.467 789.162 521.257C794.927 518.802 799.026 513.156 799.026 506.773V489.096C799.026 480.995 792.109 474.366 783.653 474.366ZM779.17 513.278H760.081V490.078H781.219C781.86 490.078 782.244 490.447 782.244 491.551V507.018C782.244 510.701 781.475 512.296 779.17 513.278Z" stroke="white" stroke-width="2" mask="url(#path-45-outside-2_3218_1329)"/>
<path d="M860.324 551.209L863.654 572.567H880.309L864.295 478.54C863.911 476.453 861.477 474.366 858.786 474.366H833.549C830.858 474.366 828.424 476.576 828.04 478.54L812.027 572.567H828.681L832.012 551.209H860.324ZM857.89 535.251H834.446L841.235 491.674C841.363 490.692 841.748 490.324 842.26 490.324H849.947C850.459 490.324 850.844 490.692 851.1 491.674L857.89 535.251Z" stroke="white" stroke-width="2" mask="url(#path-45-outside-2_3218_1329)"/>
<path d="M911.357 474.366H894.831V572.567H943V556.61H911.357V474.366Z" stroke="white" stroke-width="2" mask="url(#path-45-outside-2_3218_1329)"/>
</mask>
<g mask="url(#mask1_3218_1329)">
<rect x="93.9199" y="485.174" width="850.547" height="88.6211" fill="#525252"/>
</g>
<mask id="mask2_3218_1329" style="mask-type:alpha" maskUnits="userSpaceOnUse" x="94" y="153" width="850" height="102">
<mask id="path-47-outside-3_3218_1329" maskUnits="userSpaceOnUse" x="94" y="153.466" width="850" height="102" fill="black">
<rect fill="white" x="94" y="153.466" width="850" height="102"/>
<path d="M132.664 154.466H95V252.667H132.664C142.913 252.667 151.112 244.811 151.112 234.991V171.405C151.112 161.585 142.913 154.466 132.664 154.466ZM132.664 236.709H111.654V170.423H132.664C133.945 170.423 134.458 171.16 134.458 172.019V234.991C134.458 236.341 134.073 236.709 132.664 236.709Z"/>
<path d="M219.065 154.466H170.639V252.667H219.065V236.709H187.294V210.195H215.606V194.237H187.294V170.423H219.065V154.466Z"/>
<path d="M252.421 154.466H235.895V252.667H284.064V236.709H252.421V154.466Z"/>
<path d="M281.445 170.423H302.455V252.667H319.109V170.423H340.119V154.466H281.445V170.423Z"/>
<path d="M389.773 231.308L393.104 252.667H409.758L393.744 158.639C393.36 156.553 390.926 154.466 388.236 154.466H362.998C360.308 154.466 357.874 156.675 357.49 158.639L341.476 252.667H358.13L361.461 231.308H389.773ZM387.339 215.35H363.895L370.685 171.774C370.813 170.792 371.197 170.423 371.71 170.423H379.396C379.909 170.423 380.293 170.792 380.549 171.774L387.339 215.35Z"/>
<path d="M484.332 154.466H455.507V252.667H472.161V170.423H472.802L489.328 252.667H517.896V154.466H501.242V236.709H500.601L484.332 154.466Z"/>
<path d="M587.703 154.466H539.278V252.667H587.703V236.709H555.932V210.195H584.245V194.237H555.932V170.423H587.703V154.466Z"/>
<path d="M620.035 154.466H603.381V236.218C603.381 246.038 611.58 253.894 621.829 253.894H640.917C651.166 253.894 659.365 246.038 659.365 236.218V154.466H642.71V236.218C642.71 237.568 642.326 237.937 640.917 237.937H621.829C620.419 237.937 620.035 237.568 620.035 236.218V154.466Z"/>
<path d="M671.477 170.423H692.487V252.667H709.141V170.423H730.151V154.466H671.477V170.423Z"/>
<path d="M783.653 154.466H743.427V252.667H760.081V209.336H780.323C782.372 210.44 783.269 211.913 783.269 216.087V252.667H799.923V216.087C799.923 209.336 795.439 203.566 789.162 201.357C794.927 198.902 799.026 193.255 799.026 186.872V169.196C799.026 161.094 792.109 154.466 783.653 154.466ZM779.17 193.378H760.081V170.178H781.219C781.86 170.178 782.244 170.546 782.244 171.651V187.118C782.244 190.8 781.475 192.396 779.17 193.378Z"/>
<path d="M860.324 231.308L863.654 252.667H880.309L864.295 158.639C863.911 156.553 861.477 154.466 858.786 154.466H833.549C830.858 154.466 828.424 156.675 828.04 158.639L812.027 252.667H828.681L832.012 231.308H860.324ZM857.89 215.35H834.446L841.235 171.774C841.363 170.792 841.748 170.423 842.26 170.423H849.947C850.459 170.423 850.844 170.792 851.1 171.774L857.89 215.35Z"/>
<path d="M911.357 154.466H894.831V252.667H943V236.709H911.357V154.466Z"/>
</mask>
<path d="M132.664 154.466H95V252.667H132.664C142.913 252.667 151.112 244.811 151.112 234.991V171.405C151.112 161.585 142.913 154.466 132.664 154.466ZM132.664 236.709H111.654V170.423H132.664C133.945 170.423 134.458 171.16 134.458 172.019V234.991C134.458 236.341 134.073 236.709 132.664 236.709Z" fill="white"/>
<path d="M219.065 154.466H170.639V252.667H219.065V236.709H187.294V210.195H215.606V194.237H187.294V170.423H219.065V154.466Z" fill="white"/>
<path d="M252.421 154.466H235.895V252.667H284.064V236.709H252.421V154.466Z" fill="white"/>
<path d="M281.445 170.423H302.455V252.667H319.109V170.423H340.119V154.466H281.445V170.423Z" fill="white"/>
<path d="M389.773 231.308L393.104 252.667H409.758L393.744 158.639C393.36 156.553 390.926 154.466 388.236 154.466H362.998C360.308 154.466 357.874 156.675 357.49 158.639L341.476 252.667H358.13L361.461 231.308H389.773ZM387.339 215.35H363.895L370.685 171.774C370.813 170.792 371.197 170.423 371.71 170.423H379.396C379.909 170.423 380.293 170.792 380.549 171.774L387.339 215.35Z" fill="white"/>
<path d="M484.332 154.466H455.507V252.667H472.161V170.423H472.802L489.328 252.667H517.896V154.466H501.242V236.709H500.601L484.332 154.466Z" fill="white"/>
<path d="M587.703 154.466H539.278V252.667H587.703V236.709H555.932V210.195H584.245V194.237H555.932V170.423H587.703V154.466Z" fill="white"/>
<path d="M620.035 154.466H603.381V236.218C603.381 246.038 611.58 253.894 621.829 253.894H640.917C651.166 253.894 659.365 246.038 659.365 236.218V154.466H642.71V236.218C642.71 237.568 642.326 237.937 640.917 237.937H621.829C620.419 237.937 620.035 237.568 620.035 236.218V154.466Z" fill="white"/>
<path d="M671.477 170.423H692.487V252.667H709.141V170.423H730.151V154.466H671.477V170.423Z" fill="white"/>
<path d="M783.653 154.466H743.427V252.667H760.081V209.336H780.323C782.372 210.44 783.269 211.913 783.269 216.087V252.667H799.923V216.087C799.923 209.336 795.439 203.566 789.162 201.357C794.927 198.902 799.026 193.255 799.026 186.872V169.196C799.026 161.094 792.109 154.466 783.653 154.466ZM779.17 193.378H760.081V170.178H781.219C781.86 170.178 782.244 170.546 782.244 171.651V187.118C782.244 190.8 781.475 192.396 779.17 193.378Z" fill="white"/>
<path d="M860.324 231.308L863.654 252.667H880.309L864.295 158.639C863.911 156.553 861.477 154.466 858.786 154.466H833.549C830.858 154.466 828.424 156.675 828.04 158.639L812.027 252.667H828.681L832.012 231.308H860.324ZM857.89 215.35H834.446L841.235 171.774C841.363 170.792 841.748 170.423 842.26 170.423H849.947C850.459 170.423 850.844 170.792 851.1 171.774L857.89 215.35Z" fill="white"/>
<path d="M911.357 154.466H894.831V252.667H943V236.709H911.357V154.466Z" fill="white"/>
<path d="M132.664 154.466H95V252.667H132.664C142.913 252.667 151.112 244.811 151.112 234.991V171.405C151.112 161.585 142.913 154.466 132.664 154.466ZM132.664 236.709H111.654V170.423H132.664C133.945 170.423 134.458 171.16 134.458 172.019V234.991C134.458 236.341 134.073 236.709 132.664 236.709Z" stroke="white" stroke-width="2" mask="url(#path-47-outside-3_3218_1329)"/>
<path d="M219.065 154.466H170.639V252.667H219.065V236.709H187.294V210.195H215.606V194.237H187.294V170.423H219.065V154.466Z" stroke="white" stroke-width="2" mask="url(#path-47-outside-3_3218_1329)"/>
<path d="M252.421 154.466H235.895V252.667H284.064V236.709H252.421V154.466Z" stroke="white" stroke-width="2" mask="url(#path-47-outside-3_3218_1329)"/>
<path d="M281.445 170.423H302.455V252.667H319.109V170.423H340.119V154.466H281.445V170.423Z" stroke="white" stroke-width="2" mask="url(#path-47-outside-3_3218_1329)"/>
<path d="M389.773 231.308L393.104 252.667H409.758L393.744 158.639C393.36 156.553 390.926 154.466 388.236 154.466H362.998C360.308 154.466 357.874 156.675 357.49 158.639L341.476 252.667H358.13L361.461 231.308H389.773ZM387.339 215.35H363.895L370.685 171.774C370.813 170.792 371.197 170.423 371.71 170.423H379.396C379.909 170.423 380.293 170.792 380.549 171.774L387.339 215.35Z" stroke="white" stroke-width="2" mask="url(#path-47-outside-3_3218_1329)"/>
<path d="M484.332 154.466H455.507V252.667H472.161V170.423H472.802L489.328 252.667H517.896V154.466H501.242V236.709H500.601L484.332 154.466Z" stroke="white" stroke-width="2" mask="url(#path-47-outside-3_3218_1329)"/>
<path d="M587.703 154.466H539.278V252.667H587.703V236.709H555.932V210.195H584.245V194.237H555.932V170.423H587.703V154.466Z" stroke="white" stroke-width="2" mask="url(#path-47-outside-3_3218_1329)"/>
<path d="M620.035 154.466H603.381V236.218C603.381 246.038 611.58 253.894 621.829 253.894H640.917C651.166 253.894 659.365 246.038 659.365 236.218V154.466H642.71V236.218C642.71 237.568 642.326 237.937 640.917 237.937H621.829C620.419 237.937 620.035 237.568 620.035 236.218V154.466Z" stroke="white" stroke-width="2" mask="url(#path-47-outside-3_3218_1329)"/>
<path d="M671.477 170.423H692.487V252.667H709.141V170.423H730.151V154.466H671.477V170.423Z" stroke="white" stroke-width="2" mask="url(#path-47-outside-3_3218_1329)"/>
<path d="M783.653 154.466H743.427V252.667H760.081V209.336H780.323C782.372 210.44 783.269 211.913 783.269 216.087V252.667H799.923V216.087C799.923 209.336 795.439 203.566 789.162 201.357C794.927 198.902 799.026 193.255 799.026 186.872V169.196C799.026 161.094 792.109 154.466 783.653 154.466ZM779.17 193.378H760.081V170.178H781.219C781.86 170.178 782.244 170.546 782.244 171.651V187.118C782.244 190.8 781.475 192.396 779.17 193.378Z" stroke="white" stroke-width="2" mask="url(#path-47-outside-3_3218_1329)"/>
<path d="M860.324 231.308L863.654 252.667H880.309L864.295 158.639C863.911 156.553 861.477 154.466 858.786 154.466H833.549C830.858 154.466 828.424 156.675 828.04 158.639L812.027 252.667H828.681L832.012 231.308H860.324ZM857.89 215.35H834.446L841.235 171.774C841.363 170.792 841.748 170.423 842.26 170.423H849.947C850.459 170.423 850.844 170.792 851.1 171.774L857.89 215.35Z" stroke="white" stroke-width="2" mask="url(#path-47-outside-3_3218_1329)"/>
<path d="M911.357 154.466H894.831V252.667H943V236.709H911.357V154.466Z" stroke="white" stroke-width="2" mask="url(#path-47-outside-3_3218_1329)"/>
</mask>
<g mask="url(#mask2_3218_1329)">
<rect x="93.9199" y="153.385" width="850.547" height="77.8137" fill="#373737"/>
</g>
<mask id="mask3_3218_1329" style="mask-type:alpha" maskUnits="userSpaceOnUse" x="94" y="572" width="850" height="103">
<mask id="path-49-outside-4_3218_1329" maskUnits="userSpaceOnUse" x="94" y="572.795" width="850" height="102" fill="black">
<rect fill="white" x="94" y="572.795" width="850" height="102"/>
<path d="M132.664 573.795H95V671.996H132.664C142.913 671.996 151.112 664.14 151.112 654.32V590.735C151.112 580.914 142.913 573.795 132.664 573.795ZM132.664 656.038H111.654V589.753H132.664C133.945 589.753 134.458 590.489 134.458 591.348V654.32C134.458 655.67 134.073 656.038 132.664 656.038Z"/>
<path d="M219.065 573.795H170.639V671.996H219.065V656.038H187.294V629.524H215.606V613.566H187.294V589.753H219.065V573.795Z"/>
<path d="M252.421 573.795H235.895V671.996H284.064V656.038H252.421V573.795Z"/>
<path d="M281.445 589.753H302.455V671.996H319.109V589.753H340.119V573.795H281.445V589.753Z"/>
<path d="M389.773 650.637L393.104 671.996H409.758L393.744 577.968C393.36 575.882 390.926 573.795 388.236 573.795H362.998C360.308 573.795 357.874 576.004 357.49 577.968L341.476 671.996H358.13L361.461 650.637H389.773ZM387.339 634.68H363.895L370.685 591.103C370.813 590.121 371.197 589.753 371.71 589.753H379.396C379.909 589.753 380.293 590.121 380.549 591.103L387.339 634.68Z"/>
<path d="M484.332 573.795H455.507V671.996H472.161V589.753H472.802L489.328 671.996H517.896V573.795H501.242V656.038H500.601L484.332 573.795Z"/>
<path d="M587.703 573.795H539.278V671.996H587.703V656.038H555.932V629.524H584.245V613.566H555.932V589.753H587.703V573.795Z"/>
<path d="M620.035 573.795H603.381V655.547C603.381 665.367 611.58 673.223 621.829 673.223H640.917C651.166 673.223 659.365 665.367 659.365 655.547V573.795H642.71V655.547C642.71 656.898 642.326 657.266 640.917 657.266H621.829C620.419 657.266 620.035 656.898 620.035 655.547V573.795Z"/>
<path d="M671.477 589.753H692.487V671.996H709.141V589.753H730.151V573.795H671.477V589.753Z"/>
<path d="M783.653 573.795H743.427V671.996H760.081V628.665H780.323C782.372 629.77 783.269 631.243 783.269 635.416V671.996H799.923V635.416C799.923 628.665 795.439 622.895 789.162 620.686C794.927 618.231 799.026 612.584 799.026 606.201V588.525C799.026 580.423 792.109 573.795 783.653 573.795ZM779.17 612.707H760.081V589.507H781.219C781.86 589.507 782.244 589.875 782.244 590.98V606.447C782.244 610.129 781.475 611.725 779.17 612.707Z"/>
<path d="M860.324 650.637L863.654 671.996H880.309L864.295 577.968C863.911 575.882 861.477 573.795 858.786 573.795H833.549C830.858 573.795 828.424 576.004 828.04 577.968L812.027 671.996H828.681L832.012 650.637H860.324ZM857.89 634.68H834.446L841.235 591.103C841.363 590.121 841.748 589.753 842.26 589.753H849.947C850.459 589.753 850.844 590.121 851.1 591.103L857.89 634.68Z"/>
<path d="M911.357 573.795H894.831V671.996H943V656.038H911.357V573.795Z"/>
</mask>
<path d="M132.664 573.795H95V671.996H132.664C142.913 671.996 151.112 664.14 151.112 654.32V590.735C151.112 580.914 142.913 573.795 132.664 573.795ZM132.664 656.038H111.654V589.753H132.664C133.945 589.753 134.458 590.489 134.458 591.348V654.32C134.458 655.67 134.073 656.038 132.664 656.038Z" fill="white"/>
<path d="M219.065 573.795H170.639V671.996H219.065V656.038H187.294V629.524H215.606V613.566H187.294V589.753H219.065V573.795Z" fill="white"/>
<path d="M252.421 573.795H235.895V671.996H284.064V656.038H252.421V573.795Z" fill="white"/>
<path d="M281.445 589.753H302.455V671.996H319.109V589.753H340.119V573.795H281.445V589.753Z" fill="white"/>
<path d="M389.773 650.637L393.104 671.996H409.758L393.744 577.968C393.36 575.882 390.926 573.795 388.236 573.795H362.998C360.308 573.795 357.874 576.004 357.49 577.968L341.476 671.996H358.13L361.461 650.637H389.773ZM387.339 634.68H363.895L370.685 591.103C370.813 590.121 371.197 589.753 371.71 589.753H379.396C379.909 589.753 380.293 590.121 380.549 591.103L387.339 634.68Z" fill="white"/>
<path d="M484.332 573.795H455.507V671.996H472.161V589.753H472.802L489.328 671.996H517.896V573.795H501.242V656.038H500.601L484.332 573.795Z" fill="white"/>
<path d="M587.703 573.795H539.278V671.996H587.703V656.038H555.932V629.524H584.245V613.566H555.932V589.753H587.703V573.795Z" fill="white"/>
<path d="M620.035 573.795H603.381V655.547C603.381 665.367 611.58 673.223 621.829 673.223H640.917C651.166 673.223 659.365 665.367 659.365 655.547V573.795H642.71V655.547C642.71 656.898 642.326 657.266 640.917 657.266H621.829C620.419 657.266 620.035 656.898 620.035 655.547V573.795Z" fill="white"/>
<path d="M671.477 589.753H692.487V671.996H709.141V589.753H730.151V573.795H671.477V589.753Z" fill="white"/>
<path d="M783.653 573.795H743.427V671.996H760.081V628.665H780.323C782.372 629.77 783.269 631.243 783.269 635.416V671.996H799.923V635.416C799.923 628.665 795.439 622.895 789.162 620.686C794.927 618.231 799.026 612.584 799.026 606.201V588.525C799.026 580.423 792.109 573.795 783.653 573.795ZM779.17 612.707H760.081V589.507H781.219C781.86 589.507 782.244 589.875 782.244 590.98V606.447C782.244 610.129 781.475 611.725 779.17 612.707Z" fill="white"/>
<path d="M860.324 650.637L863.654 671.996H880.309L864.295 577.968C863.911 575.882 861.477 573.795 858.786 573.795H833.549C830.858 573.795 828.424 576.004 828.04 577.968L812.027 671.996H828.681L832.012 650.637H860.324ZM857.89 634.68H834.446L841.235 591.103C841.363 590.121 841.748 589.753 842.26 589.753H849.947C850.459 589.753 850.844 590.121 851.1 591.103L857.89 634.68Z" fill="white"/>
<path d="M911.357 573.795H894.831V671.996H943V656.038H911.357V573.795Z" fill="white"/>
<path d="M132.664 573.795H95V671.996H132.664C142.913 671.996 151.112 664.14 151.112 654.32V590.735C151.112 580.914 142.913 573.795 132.664 573.795ZM132.664 656.038H111.654V589.753H132.664C133.945 589.753 134.458 590.489 134.458 591.348V654.32C134.458 655.67 134.073 656.038 132.664 656.038Z" stroke="white" stroke-width="2" mask="url(#path-49-outside-4_3218_1329)"/>
<path d="M219.065 573.795H170.639V671.996H219.065V656.038H187.294V629.524H215.606V613.566H187.294V589.753H219.065V573.795Z" stroke="white" stroke-width="2" mask="url(#path-49-outside-4_3218_1329)"/>
<path d="M252.421 573.795H235.895V671.996H284.064V656.038H252.421V573.795Z" stroke="white" stroke-width="2" mask="url(#path-49-outside-4_3218_1329)"/>
<path d="M281.445 589.753H302.455V671.996H319.109V589.753H340.119V573.795H281.445V589.753Z" stroke="white" stroke-width="2" mask="url(#path-49-outside-4_3218_1329)"/>
<path d="M389.773 650.637L393.104 671.996H409.758L393.744 577.968C393.36 575.882 390.926 573.795 388.236 573.795H362.998C360.308 573.795 357.874 576.004 357.49 577.968L341.476 671.996H358.13L361.461 650.637H389.773ZM387.339 634.68H363.895L370.685 591.103C370.813 590.121 371.197 589.753 371.71 589.753H379.396C379.909 589.753 380.293 590.121 380.549 591.103L387.339 634.68Z" stroke="white" stroke-width="2" mask="url(#path-49-outside-4_3218_1329)"/>
<path d="M484.332 573.795H455.507V671.996H472.161V589.753H472.802L489.328 671.996H517.896V573.795H501.242V656.038H500.601L484.332 573.795Z" stroke="white" stroke-width="2" mask="url(#path-49-outside-4_3218_1329)"/>
<path d="M587.703 573.795H539.278V671.996H587.703V656.038H555.932V629.524H584.245V613.566H555.932V589.753H587.703V573.795Z" stroke="white" stroke-width="2" mask="url(#path-49-outside-4_3218_1329)"/>
<path d="M620.035 573.795H603.381V655.547C603.381 665.367 611.58 673.223 621.829 673.223H640.917C651.166 673.223 659.365 665.367 659.365 655.547V573.795H642.71V655.547C642.71 656.898 642.326 657.266 640.917 657.266H621.829C620.419 657.266 620.035 656.898 620.035 655.547V573.795Z" stroke="white" stroke-width="2" mask="url(#path-49-outside-4_3218_1329)"/>
<path d="M671.477 589.753H692.487V671.996H709.141V589.753H730.151V573.795H671.477V589.753Z" stroke="white" stroke-width="2" mask="url(#path-49-outside-4_3218_1329)"/>
<path d="M783.653 573.795H743.427V671.996H760.081V628.665H780.323C782.372 629.77 783.269 631.243 783.269 635.416V671.996H799.923V635.416C799.923 628.665 795.439 622.895 789.162 620.686C794.927 618.231 799.026 612.584 799.026 606.201V588.525C799.026 580.423 792.109 573.795 783.653 573.795ZM779.17 612.707H760.081V589.507H781.219C781.86 589.507 782.244 589.875 782.244 590.98V606.447C782.244 610.129 781.475 611.725 779.17 612.707Z" stroke="white" stroke-width="2" mask="url(#path-49-outside-4_3218_1329)"/>
<path d="M860.324 650.637L863.654 671.996H880.309L864.295 577.968C863.911 575.882 861.477 573.795 858.786 573.795H833.549C830.858 573.795 828.424 576.004 828.04 577.968L812.027 671.996H828.681L832.012 650.637H860.324ZM857.89 634.68H834.446L841.235 591.103C841.363 590.121 841.748 589.753 842.26 589.753H849.947C850.459 589.753 850.844 590.121 851.1 591.103L857.89 634.68Z" stroke="white" stroke-width="2" mask="url(#path-49-outside-4_3218_1329)"/>
<path d="M911.357 573.795H894.831V671.996H943V656.038H911.357V573.795Z" stroke="white" stroke-width="2" mask="url(#path-49-outside-4_3218_1329)"/>
</mask>
<g mask="url(#mask3_3218_1329)">
<rect x="93.9199" y="595.41" width="850.547" height="77.8137" fill="#373737"/>
</g>
<mask id="mask4_3218_1329" style="mask-type:alpha" maskUnits="userSpaceOnUse" x="94" y="73" width="850" height="102">
<mask id="path-51-outside-5_3218_1329" maskUnits="userSpaceOnUse" x="94" y="73.4907" width="850" height="102" fill="black">
<rect fill="white" x="94" y="73.4907" width="850" height="102"/>
<path d="M132.664 74.4907H95V172.692H132.664C142.913 172.692 151.112 164.836 151.112 155.016V91.4304C151.112 81.6103 142.913 74.4907 132.664 74.4907ZM132.664 156.734H111.654V90.4484H132.664C133.945 90.4484 134.458 91.1849 134.458 92.0442V155.016C134.458 156.366 134.073 156.734 132.664 156.734Z"/>
<path d="M219.065 74.4907H170.639V172.692H219.065V156.734H187.294V130.22H215.606V114.262H187.294V90.4484H219.065V74.4907Z"/>
<path d="M252.421 74.4907H235.895V172.692H284.064V156.734H252.421V74.4907Z"/>
<path d="M281.445 90.4484H302.455V172.692H319.109V90.4484H340.119V74.4907H281.445V90.4484Z"/>
<path d="M389.773 151.333L393.104 172.692H409.758L393.744 78.6643C393.36 76.5775 390.926 74.4907 388.236 74.4907H362.998C360.308 74.4907 357.874 76.7002 357.49 78.6643L341.476 172.692H358.13L361.461 151.333H389.773ZM387.339 135.375H363.895L370.685 91.7987C370.813 90.8166 371.197 90.4484 371.71 90.4484H379.396C379.909 90.4484 380.293 90.8166 380.549 91.7987L387.339 135.375Z"/>
<path d="M484.332 74.4907H455.507V172.692H472.161V90.4484H472.802L489.328 172.692H517.896V74.4907H501.242V156.734H500.601L484.332 74.4907Z"/>
<path d="M587.703 74.4907H539.278V172.692H587.703V156.734H555.932V130.22H584.245V114.262H555.932V90.4484H587.703V74.4907Z"/>
<path d="M620.035 74.4907H603.381V156.243C603.381 166.063 611.58 173.919 621.829 173.919H640.917C651.166 173.919 659.365 166.063 659.365 156.243V74.4907H642.71V156.243C642.71 157.593 642.326 157.962 640.917 157.962H621.829C620.419 157.962 620.035 157.593 620.035 156.243V74.4907Z"/>
<path d="M671.477 90.4484H692.487V172.692H709.141V90.4484H730.151V74.4907H671.477V90.4484Z"/>
<path d="M783.653 74.4907H743.427V172.692H760.081V129.361H780.323C782.372 130.465 783.269 131.938 783.269 136.112V172.692H799.923V136.112C799.923 129.361 795.439 123.591 789.162 121.382C794.927 118.927 799.026 113.28 799.026 106.897V89.2209C799.026 81.1193 792.109 74.4907 783.653 74.4907ZM779.17 113.403H760.081V90.2029H781.219C781.86 90.2029 782.244 90.5711 782.244 91.6759V107.143C782.244 110.825 781.475 112.421 779.17 113.403Z"/>
<path d="M860.324 151.333L863.654 172.692H880.309L864.295 78.6643C863.911 76.5775 861.477 74.4907 858.786 74.4907H833.549C830.858 74.4907 828.424 76.7002 828.04 78.6643L812.027 172.692H828.681L832.012 151.333H860.324ZM857.89 135.375H834.446L841.235 91.7987C841.363 90.8166 841.748 90.4484 842.26 90.4484H849.947C850.459 90.4484 850.844 90.8166 851.1 91.7987L857.89 135.375Z"/>
<path d="M911.357 74.4907H894.831V172.692H943V156.734H911.357V74.4907Z"/>
</mask>
<path d="M132.664 74.4907H95V172.692H132.664C142.913 172.692 151.112 164.836 151.112 155.016V91.4304C151.112 81.6103 142.913 74.4907 132.664 74.4907ZM132.664 156.734H111.654V90.4484H132.664C133.945 90.4484 134.458 91.1849 134.458 92.0442V155.016C134.458 156.366 134.073 156.734 132.664 156.734Z" fill="white"/>
<path d="M219.065 74.4907H170.639V172.692H219.065V156.734H187.294V130.22H215.606V114.262H187.294V90.4484H219.065V74.4907Z" fill="white"/>
<path d="M252.421 74.4907H235.895V172.692H284.064V156.734H252.421V74.4907Z" fill="white"/>
<path d="M281.445 90.4484H302.455V172.692H319.109V90.4484H340.119V74.4907H281.445V90.4484Z" fill="white"/>
<path d="M389.773 151.333L393.104 172.692H409.758L393.744 78.6643C393.36 76.5775 390.926 74.4907 388.236 74.4907H362.998C360.308 74.4907 357.874 76.7002 357.49 78.6643L341.476 172.692H358.13L361.461 151.333H389.773ZM387.339 135.375H363.895L370.685 91.7987C370.813 90.8166 371.197 90.4484 371.71 90.4484H379.396C379.909 90.4484 380.293 90.8166 380.549 91.7987L387.339 135.375Z" fill="white"/>
<path d="M484.332 74.4907H455.507V172.692H472.161V90.4484H472.802L489.328 172.692H517.896V74.4907H501.242V156.734H500.601L484.332 74.4907Z" fill="white"/>
<path d="M587.703 74.4907H539.278V172.692H587.703V156.734H555.932V130.22H584.245V114.262H555.932V90.4484H587.703V74.4907Z" fill="white"/>
<path d="M620.035 74.4907H603.381V156.243C603.381 166.063 611.58 173.919 621.829 173.919H640.917C651.166 173.919 659.365 166.063 659.365 156.243V74.4907H642.71V156.243C642.71 157.593 642.326 157.962 640.917 157.962H621.829C620.419 157.962 620.035 157.593 620.035 156.243V74.4907Z" fill="white"/>
<path d="M671.477 90.4484H692.487V172.692H709.141V90.4484H730.151V74.4907H671.477V90.4484Z" fill="white"/>
<path d="M783.653 74.4907H743.427V172.692H760.081V129.361H780.323C782.372 130.465 783.269 131.938 783.269 136.112V172.692H799.923V136.112C799.923 129.361 795.439 123.591 789.162 121.382C794.927 118.927 799.026 113.28 799.026 106.897V89.2209C799.026 81.1193 792.109 74.4907 783.653 74.4907ZM779.17 113.403H760.081V90.2029H781.219C781.86 90.2029 782.244 90.5711 782.244 91.6759V107.143C782.244 110.825 781.475 112.421 779.17 113.403Z" fill="white"/>
<path d="M860.324 151.333L863.654 172.692H880.309L864.295 78.6643C863.911 76.5775 861.477 74.4907 858.786 74.4907H833.549C830.858 74.4907 828.424 76.7002 828.04 78.6643L812.027 172.692H828.681L832.012 151.333H860.324ZM857.89 135.375H834.446L841.235 91.7987C841.363 90.8166 841.748 90.4484 842.26 90.4484H849.947C850.459 90.4484 850.844 90.8166 851.1 91.7987L857.89 135.375Z" fill="white"/>
<path d="M911.357 74.4907H894.831V172.692H943V156.734H911.357V74.4907Z" fill="white"/>
<path d="M132.664 74.4907H95V172.692H132.664C142.913 172.692 151.112 164.836 151.112 155.016V91.4304C151.112 81.6103 142.913 74.4907 132.664 74.4907ZM132.664 156.734H111.654V90.4484H132.664C133.945 90.4484 134.458 91.1849 134.458 92.0442V155.016C134.458 156.366 134.073 156.734 132.664 156.734Z" stroke="white" stroke-width="2" mask="url(#path-51-outside-5_3218_1329)"/>
<path d="M219.065 74.4907H170.639V172.692H219.065V156.734H187.294V130.22H215.606V114.262H187.294V90.4484H219.065V74.4907Z" stroke="white" stroke-width="2" mask="url(#path-51-outside-5_3218_1329)"/>
<path d="M252.421 74.4907H235.895V172.692H284.064V156.734H252.421V74.4907Z" stroke="white" stroke-width="2" mask="url(#path-51-outside-5_3218_1329)"/>
<path d="M281.445 90.4484H302.455V172.692H319.109V90.4484H340.119V74.4907H281.445V90.4484Z" stroke="white" stroke-width="2" mask="url(#path-51-outside-5_3218_1329)"/>
<path d="M389.773 151.333L393.104 172.692H409.758L393.744 78.6643C393.36 76.5775 390.926 74.4907 388.236 74.4907H362.998C360.308 74.4907 357.874 76.7002 357.49 78.6643L341.476 172.692H358.13L361.461 151.333H389.773ZM387.339 135.375H363.895L370.685 91.7987C370.813 90.8166 371.197 90.4484 371.71 90.4484H379.396C379.909 90.4484 380.293 90.8166 380.549 91.7987L387.339 135.375Z" stroke="white" stroke-width="2" mask="url(#path-51-outside-5_3218_1329)"/>
<path d="M484.332 74.4907H455.507V172.692H472.161V90.4484H472.802L489.328 172.692H517.896V74.4907H501.242V156.734H500.601L484.332 74.4907Z" stroke="white" stroke-width="2" mask="url(#path-51-outside-5_3218_1329)"/>
<path d="M587.703 74.4907H539.278V172.692H587.703V156.734H555.932V130.22H584.245V114.262H555.932V90.4484H587.703V74.4907Z" stroke="white" stroke-width="2" mask="url(#path-51-outside-5_3218_1329)"/>
<path d="M620.035 74.4907H603.381V156.243C603.381 166.063 611.58 173.919 621.829 173.919H640.917C651.166 173.919 659.365 166.063 659.365 156.243V74.4907H642.71V156.243C642.71 157.593 642.326 157.962 640.917 157.962H621.829C620.419 157.962 620.035 157.593 620.035 156.243V74.4907Z" stroke="white" stroke-width="2" mask="url(#path-51-outside-5_3218_1329)"/>
<path d="M671.477 90.4484H692.487V172.692H709.141V90.4484H730.151V74.4907H671.477V90.4484Z" stroke="white" stroke-width="2" mask="url(#path-51-outside-5_3218_1329)"/>
<path d="M783.653 74.4907H743.427V172.692H760.081V129.361H780.323C782.372 130.465 783.269 131.938 783.269 136.112V172.692H799.923V136.112C799.923 129.361 795.439 123.591 789.162 121.382C794.927 118.927 799.026 113.28 799.026 106.897V89.2209C799.026 81.1193 792.109 74.4907 783.653 74.4907ZM779.17 113.403H760.081V90.2029H781.219C781.86 90.2029 782.244 90.5711 782.244 91.6759V107.143C782.244 110.825 781.475 112.421 779.17 113.403Z" stroke="white" stroke-width="2" mask="url(#path-51-outside-5_3218_1329)"/>
<path d="M860.324 151.333L863.654 172.692H880.309L864.295 78.6643C863.911 76.5775 861.477 74.4907 858.786 74.4907H833.549C830.858 74.4907 828.424 76.7002 828.04 78.6643L812.027 172.692H828.681L832.012 151.333H860.324ZM857.89 135.375H834.446L841.235 91.7987C841.363 90.8166 841.748 90.4484 842.26 90.4484H849.947C850.459 90.4484 850.844 90.8166 851.1 91.7987L857.89 135.375Z" stroke="white" stroke-width="2" mask="url(#path-51-outside-5_3218_1329)"/>
<path d="M911.357 74.4907H894.831V172.692H943V156.734H911.357V74.4907Z" stroke="white" stroke-width="2" mask="url(#path-51-outside-5_3218_1329)"/>
</mask>
<g mask="url(#mask4_3218_1329)">
<rect x="93.9199" y="64.764" width="850.547" height="67.0062" fill="#262626"/>
</g>
<mask id="mask5_3218_1329" style="mask-type:alpha" maskUnits="userSpaceOnUse" x="94" y="661" width="850" height="102">
<mask id="path-53-outside-6_3218_1329" maskUnits="userSpaceOnUse" x="94" y="661.416" width="850" height="102" fill="black">
<rect fill="white" x="94" y="661.416" width="850" height="102"/>
<path d="M132.664 662.416H95V760.617H132.664C142.913 760.617 151.112 752.761 151.112 742.941V679.356C151.112 669.536 142.913 662.416 132.664 662.416ZM132.664 744.659H111.654V678.374H132.664C133.945 678.374 134.458 679.11 134.458 679.969V742.941C134.458 744.291 134.073 744.659 132.664 744.659Z"/>
<path d="M219.065 662.416H170.639V760.617H219.065V744.659H187.294V718.145H215.606V702.187H187.294V678.374H219.065V662.416Z"/>
<path d="M252.421 662.416H235.895V760.617H284.064V744.659H252.421V662.416Z"/>
<path d="M281.445 678.374H302.455V760.617H319.109V678.374H340.119V662.416H281.445V678.374Z"/>
<path d="M389.773 739.258L393.104 760.617H409.758L393.744 666.59C393.36 664.503 390.926 662.416 388.236 662.416H362.998C360.308 662.416 357.874 664.626 357.49 666.59L341.476 760.617H358.13L361.461 739.258H389.773ZM387.339 723.301H363.895L370.685 679.724C370.813 678.742 371.197 678.374 371.71 678.374H379.396C379.909 678.374 380.293 678.742 380.549 679.724L387.339 723.301Z"/>
<path d="M484.332 662.416H455.507V760.617H472.161V678.374H472.802L489.328 760.617H517.896V662.416H501.242V744.659H500.601L484.332 662.416Z"/>
<path d="M587.703 662.416H539.278V760.617H587.703V744.659H555.932V718.145H584.245V702.187H555.932V678.374H587.703V662.416Z"/>
<path d="M620.035 662.416H603.381V744.168C603.381 753.989 611.58 761.845 621.829 761.845H640.917C651.166 761.845 659.365 753.989 659.365 744.168V662.416H642.71V744.168C642.71 745.519 642.326 745.887 640.917 745.887H621.829C620.419 745.887 620.035 745.519 620.035 744.168V662.416Z"/>
<path d="M671.477 678.374H692.487V760.617H709.141V678.374H730.151V662.416H671.477V678.374Z"/>
<path d="M783.653 662.416H743.427V760.617H760.081V717.286H780.323C782.372 718.391 783.269 719.864 783.269 724.037V760.617H799.923V724.037C799.923 717.286 795.439 711.517 789.162 709.307C794.927 706.852 799.026 701.205 799.026 694.822V677.146C799.026 669.045 792.109 662.416 783.653 662.416ZM779.17 701.328H760.081V678.128H781.219C781.86 678.128 782.244 678.496 782.244 679.601V695.068C782.244 698.75 781.475 700.346 779.17 701.328Z"/>
<path d="M860.324 739.258L863.654 760.617H880.309L864.295 666.59C863.911 664.503 861.477 662.416 858.786 662.416H833.549C830.858 662.416 828.424 664.626 828.04 666.59L812.027 760.617H828.681L832.012 739.258H860.324ZM857.89 723.301H834.446L841.235 679.724C841.363 678.742 841.748 678.374 842.26 678.374H849.947C850.459 678.374 850.844 678.742 851.1 679.724L857.89 723.301Z"/>
<path d="M911.357 662.416H894.831V760.617H943V744.659H911.357V662.416Z"/>
</mask>
<path d="M132.664 662.416H95V760.617H132.664C142.913 760.617 151.112 752.761 151.112 742.941V679.356C151.112 669.536 142.913 662.416 132.664 662.416ZM132.664 744.659H111.654V678.374H132.664C133.945 678.374 134.458 679.11 134.458 679.969V742.941C134.458 744.291 134.073 744.659 132.664 744.659Z" fill="white"/>
<path d="M219.065 662.416H170.639V760.617H219.065V744.659H187.294V718.145H215.606V702.187H187.294V678.374H219.065V662.416Z" fill="white"/>
<path d="M252.421 662.416H235.895V760.617H284.064V744.659H252.421V662.416Z" fill="white"/>
<path d="M281.445 678.374H302.455V760.617H319.109V678.374H340.119V662.416H281.445V678.374Z" fill="white"/>
<path d="M389.773 739.258L393.104 760.617H409.758L393.744 666.59C393.36 664.503 390.926 662.416 388.236 662.416H362.998C360.308 662.416 357.874 664.626 357.49 666.59L341.476 760.617H358.13L361.461 739.258H389.773ZM387.339 723.301H363.895L370.685 679.724C370.813 678.742 371.197 678.374 371.71 678.374H379.396C379.909 678.374 380.293 678.742 380.549 679.724L387.339 723.301Z" fill="white"/>
<path d="M484.332 662.416H455.507V760.617H472.161V678.374H472.802L489.328 760.617H517.896V662.416H501.242V744.659H500.601L484.332 662.416Z" fill="white"/>
<path d="M587.703 662.416H539.278V760.617H587.703V744.659H555.932V718.145H584.245V702.187H555.932V678.374H587.703V662.416Z" fill="white"/>
<path d="M620.035 662.416H603.381V744.168C603.381 753.989 611.58 761.845 621.829 761.845H640.917C651.166 761.845 659.365 753.989 659.365 744.168V662.416H642.71V744.168C642.71 745.519 642.326 745.887 640.917 745.887H621.829C620.419 745.887 620.035 745.519 620.035 744.168V662.416Z" fill="white"/>
<path d="M671.477 678.374H692.487V760.617H709.141V678.374H730.151V662.416H671.477V678.374Z" fill="white"/>
<path d="M783.653 662.416H743.427V760.617H760.081V717.286H780.323C782.372 718.391 783.269 719.864 783.269 724.037V760.617H799.923V724.037C799.923 717.286 795.439 711.517 789.162 709.307C794.927 706.852 799.026 701.205 799.026 694.822V677.146C799.026 669.045 792.109 662.416 783.653 662.416ZM779.17 701.328H760.081V678.128H781.219C781.86 678.128 782.244 678.496 782.244 679.601V695.068C782.244 698.75 781.475 700.346 779.17 701.328Z" fill="white"/>
<path d="M860.324 739.258L863.654 760.617H880.309L864.295 666.59C863.911 664.503 861.477 662.416 858.786 662.416H833.549C830.858 662.416 828.424 664.626 828.04 666.59L812.027 760.617H828.681L832.012 739.258H860.324ZM857.89 723.301H834.446L841.235 679.724C841.363 678.742 841.748 678.374 842.26 678.374H849.947C850.459 678.374 850.844 678.742 851.1 679.724L857.89 723.301Z" fill="white"/>
<path d="M911.357 662.416H894.831V760.617H943V744.659H911.357V662.416Z" fill="white"/>
<path d="M132.664 662.416H95V760.617H132.664C142.913 760.617 151.112 752.761 151.112 742.941V679.356C151.112 669.536 142.913 662.416 132.664 662.416ZM132.664 744.659H111.654V678.374H132.664C133.945 678.374 134.458 679.11 134.458 679.969V742.941C134.458 744.291 134.073 744.659 132.664 744.659Z" stroke="white" stroke-width="2" mask="url(#path-53-outside-6_3218_1329)"/>
<path d="M219.065 662.416H170.639V760.617H219.065V744.659H187.294V718.145H215.606V702.187H187.294V678.374H219.065V662.416Z" stroke="white" stroke-width="2" mask="url(#path-53-outside-6_3218_1329)"/>
<path d="M252.421 662.416H235.895V760.617H284.064V744.659H252.421V662.416Z" stroke="white" stroke-width="2" mask="url(#path-53-outside-6_3218_1329)"/>
<path d="M281.445 678.374H302.455V760.617H319.109V678.374H340.119V662.416H281.445V678.374Z" stroke="white" stroke-width="2" mask="url(#path-53-outside-6_3218_1329)"/>
<path d="M389.773 739.258L393.104 760.617H409.758L393.744 666.59C393.36 664.503 390.926 662.416 388.236 662.416H362.998C360.308 662.416 357.874 664.626 357.49 666.59L341.476 760.617H358.13L361.461 739.258H389.773ZM387.339 723.301H363.895L370.685 679.724C370.813 678.742 371.197 678.374 371.71 678.374H379.396C379.909 678.374 380.293 678.742 380.549 679.724L387.339 723.301Z" stroke="white" stroke-width="2" mask="url(#path-53-outside-6_3218_1329)"/>
<path d="M484.332 662.416H455.507V760.617H472.161V678.374H472.802L489.328 760.617H517.896V662.416H501.242V744.659H500.601L484.332 662.416Z" stroke="white" stroke-width="2" mask="url(#path-53-outside-6_3218_1329)"/>
<path d="M587.703 662.416H539.278V760.617H587.703V744.659H555.932V718.145H584.245V702.187H555.932V678.374H587.703V662.416Z" stroke="white" stroke-width="2" mask="url(#path-53-outside-6_3218_1329)"/>
<path d="M620.035 662.416H603.381V744.168C603.381 753.989 611.58 761.845 621.829 761.845H640.917C651.166 761.845 659.365 753.989 659.365 744.168V662.416H642.71V744.168C642.71 745.519 642.326 745.887 640.917 745.887H621.829C620.419 745.887 620.035 745.519 620.035 744.168V662.416Z" stroke="white" stroke-width="2" mask="url(#path-53-outside-6_3218_1329)"/>
<path d="M671.477 678.374H692.487V760.617H709.141V678.374H730.151V662.416H671.477V678.374Z" stroke="white" stroke-width="2" mask="url(#path-53-outside-6_3218_1329)"/>
<path d="M783.653 662.416H743.427V760.617H760.081V717.286H780.323C782.372 718.391 783.269 719.864 783.269 724.037V760.617H799.923V724.037C799.923 717.286 795.439 711.517 789.162 709.307C794.927 706.852 799.026 701.205 799.026 694.822V677.146C799.026 669.045 792.109 662.416 783.653 662.416ZM779.17 701.328H760.081V678.128H781.219C781.86 678.128 782.244 678.496 782.244 679.601V695.068C782.244 698.75 781.475 700.346 779.17 701.328Z" stroke="white" stroke-width="2" mask="url(#path-53-outside-6_3218_1329)"/>
<path d="M860.324 739.258L863.654 760.617H880.309L864.295 666.59C863.911 664.503 861.477 662.416 858.786 662.416H833.549C830.858 662.416 828.424 664.626 828.04 666.59L812.027 760.617H828.681L832.012 739.258H860.324ZM857.89 723.301H834.446L841.235 679.724C841.363 678.742 841.748 678.374 842.26 678.374H849.947C850.459 678.374 850.844 678.742 851.1 679.724L857.89 723.301Z" stroke="white" stroke-width="2" mask="url(#path-53-outside-6_3218_1329)"/>
<path d="M911.357 662.416H894.831V760.617H943V744.659H911.357V662.416Z" stroke="white" stroke-width="2" mask="url(#path-53-outside-6_3218_1329)"/>
</mask>
<g mask="url(#mask5_3218_1329)">
<rect x="93.9199" y="694.838" width="850.547" height="67.0062" fill="#262626"/>
</g>
<mask id="mask6_3218_1329" style="mask-type:alpha" maskUnits="userSpaceOnUse" x="94" y="0" width="850" height="102">
<mask id="path-55-outside-7_3218_1329" maskUnits="userSpaceOnUse" x="94" y="0" width="850" height="102" fill="black">
<rect fill="white" x="94" width="850" height="102"/>
<path d="M132.664 1H95V99.2011H132.664C142.913 99.2011 151.112 91.345 151.112 81.5249V17.9397C151.112 8.11957 142.913 1 132.664 1ZM132.664 83.2434H111.654V16.9577H132.664C133.945 16.9577 134.458 17.6942 134.458 18.5534V81.5249C134.458 82.8751 134.073 83.2434 132.664 83.2434Z"/>
<path d="M219.065 1H170.639V99.2011H219.065V83.2434H187.294V56.7291H215.606V40.7714H187.294V16.9577H219.065V1Z"/>
<path d="M252.421 1H235.895V99.2011H284.064V83.2434H252.421V1Z"/>
<path d="M281.445 16.9577H302.455V99.2011H319.109V16.9577H340.119V1H281.445V16.9577Z"/>
<path d="M389.773 77.8423L393.104 99.2011H409.758L393.744 5.17354C393.36 3.08677 390.926 1 388.236 1H362.998C360.308 1 357.874 3.20952 357.49 5.17354L341.476 99.2011H358.13L361.461 77.8423H389.773ZM387.339 61.8847H363.895L370.685 18.3079C370.813 17.3259 371.197 16.9577 371.71 16.9577H379.396C379.909 16.9577 380.293 17.3259 380.549 18.3079L387.339 61.8847Z"/>
<path d="M484.332 1H455.507V99.2011H472.161V16.9577H472.802L489.328 99.2011H517.896V1H501.242V83.2434H500.601L484.332 1Z"/>
<path d="M587.703 1H539.278V99.2011H587.703V83.2434H555.932V56.7291H584.245V40.7714H555.932V16.9577H587.703V1Z"/>
<path d="M620.035 1H603.381V82.7524C603.381 92.5725 611.58 100.429 621.829 100.429H640.917C651.166 100.429 659.365 92.5725 659.365 82.7524V1H642.71V82.7524C642.71 84.1027 642.326 84.4709 640.917 84.4709H621.829C620.419 84.4709 620.035 84.1027 620.035 82.7524V1Z"/>
<path d="M671.477 16.9577H692.487V99.2011H709.141V16.9577H730.151V1H671.477V16.9577Z"/>
<path d="M783.653 1H743.427V99.2011H760.081V55.8698H780.323C782.372 56.9746 783.269 58.4476 783.269 62.6212V99.2011H799.923V62.6212C799.923 55.8698 795.439 50.1005 789.162 47.891C794.927 45.436 799.026 39.7894 799.026 33.4064V15.7302C799.026 7.62857 792.109 1 783.653 1ZM779.17 39.9122H760.081V16.7122H781.219C781.86 16.7122 782.244 17.0804 782.244 18.1852V33.6519C782.244 37.3344 781.475 38.9302 779.17 39.9122Z"/>
<path d="M860.324 77.8423L863.654 99.2011H880.309L864.295 5.17354C863.911 3.08677 861.477 1 858.786 1H833.549C830.858 1 828.424 3.20952 828.04 5.17354L812.027 99.2011H828.681L832.012 77.8423H860.324ZM857.89 61.8847H834.446L841.235 18.3079C841.363 17.3259 841.748 16.9577 842.26 16.9577H849.947C850.459 16.9577 850.844 17.3259 851.1 18.3079L857.89 61.8847Z"/>
<path d="M911.357 1H894.831V99.2011H943V83.2434H911.357V1Z"/>
</mask>
<path d="M132.664 1H95V99.2011H132.664C142.913 99.2011 151.112 91.345 151.112 81.5249V17.9397C151.112 8.11957 142.913 1 132.664 1ZM132.664 83.2434H111.654V16.9577H132.664C133.945 16.9577 134.458 17.6942 134.458 18.5534V81.5249C134.458 82.8751 134.073 83.2434 132.664 83.2434Z" fill="white"/>
<path d="M219.065 1H170.639V99.2011H219.065V83.2434H187.294V56.7291H215.606V40.7714H187.294V16.9577H219.065V1Z" fill="white"/>
<path d="M252.421 1H235.895V99.2011H284.064V83.2434H252.421V1Z" fill="white"/>
<path d="M281.445 16.9577H302.455V99.2011H319.109V16.9577H340.119V1H281.445V16.9577Z" fill="white"/>
<path d="M389.773 77.8423L393.104 99.2011H409.758L393.744 5.17354C393.36 3.08677 390.926 1 388.236 1H362.998C360.308 1 357.874 3.20952 357.49 5.17354L341.476 99.2011H358.13L361.461 77.8423H389.773ZM387.339 61.8847H363.895L370.685 18.3079C370.813 17.3259 371.197 16.9577 371.71 16.9577H379.396C379.909 16.9577 380.293 17.3259 380.549 18.3079L387.339 61.8847Z" fill="white"/>
<path d="M484.332 1H455.507V99.2011H472.161V16.9577H472.802L489.328 99.2011H517.896V1H501.242V83.2434H500.601L484.332 1Z" fill="white"/>
<path d="M587.703 1H539.278V99.2011H587.703V83.2434H555.932V56.7291H584.245V40.7714H555.932V16.9577H587.703V1Z" fill="white"/>
<path d="M620.035 1H603.381V82.7524C603.381 92.5725 611.58 100.429 621.829 100.429H640.917C651.166 100.429 659.365 92.5725 659.365 82.7524V1H642.71V82.7524C642.71 84.1027 642.326 84.4709 640.917 84.4709H621.829C620.419 84.4709 620.035 84.1027 620.035 82.7524V1Z" fill="white"/>
<path d="M671.477 16.9577H692.487V99.2011H709.141V16.9577H730.151V1H671.477V16.9577Z" fill="white"/>
<path d="M783.653 1H743.427V99.2011H760.081V55.8698H780.323C782.372 56.9746 783.269 58.4476 783.269 62.6212V99.2011H799.923V62.6212C799.923 55.8698 795.439 50.1005 789.162 47.891C794.927 45.436 799.026 39.7894 799.026 33.4064V15.7302C799.026 7.62857 792.109 1 783.653 1ZM779.17 39.9122H760.081V16.7122H781.219C781.86 16.7122 782.244 17.0804 782.244 18.1852V33.6519C782.244 37.3344 781.475 38.9302 779.17 39.9122Z" fill="white"/>
<path d="M860.324 77.8423L863.654 99.2011H880.309L864.295 5.17354C863.911 3.08677 861.477 1 858.786 1H833.549C830.858 1 828.424 3.20952 828.04 5.17354L812.027 99.2011H828.681L832.012 77.8423H860.324ZM857.89 61.8847H834.446L841.235 18.3079C841.363 17.3259 841.748 16.9577 842.26 16.9577H849.947C850.459 16.9577 850.844 17.3259 851.1 18.3079L857.89 61.8847Z" fill="white"/>
<path d="M911.357 1H894.831V99.2011H943V83.2434H911.357V1Z" fill="white"/>
<path d="M132.664 1H95V99.2011H132.664C142.913 99.2011 151.112 91.345 151.112 81.5249V17.9397C151.112 8.11957 142.913 1 132.664 1ZM132.664 83.2434H111.654V16.9577H132.664C133.945 16.9577 134.458 17.6942 134.458 18.5534V81.5249C134.458 82.8751 134.073 83.2434 132.664 83.2434Z" stroke="white" stroke-width="2" mask="url(#path-55-outside-7_3218_1329)"/>
<path d="M219.065 1H170.639V99.2011H219.065V83.2434H187.294V56.7291H215.606V40.7714H187.294V16.9577H219.065V1Z" stroke="white" stroke-width="2" mask="url(#path-55-outside-7_3218_1329)"/>
<path d="M252.421 1H235.895V99.2011H284.064V83.2434H252.421V1Z" stroke="white" stroke-width="2" mask="url(#path-55-outside-7_3218_1329)"/>
<path d="M281.445 16.9577H302.455V99.2011H319.109V16.9577H340.119V1H281.445V16.9577Z" stroke="white" stroke-width="2" mask="url(#path-55-outside-7_3218_1329)"/>
<path d="M389.773 77.8423L393.104 99.2011H409.758L393.744 5.17354C393.36 3.08677 390.926 1 388.236 1H362.998C360.308 1 357.874 3.20952 357.49 5.17354L341.476 99.2011H358.13L361.461 77.8423H389.773ZM387.339 61.8847H363.895L370.685 18.3079C370.813 17.3259 371.197 16.9577 371.71 16.9577H379.396C379.909 16.9577 380.293 17.3259 380.549 18.3079L387.339 61.8847Z" stroke="white" stroke-width="2" mask="url(#path-55-outside-7_3218_1329)"/>
<path d="M484.332 1H455.507V99.2011H472.161V16.9577H472.802L489.328 99.2011H517.896V1H501.242V83.2434H500.601L484.332 1Z" stroke="white" stroke-width="2" mask="url(#path-55-outside-7_3218_1329)"/>
<path d="M587.703 1H539.278V99.2011H587.703V83.2434H555.932V56.7291H584.245V40.7714H555.932V16.9577H587.703V1Z" stroke="white" stroke-width="2" mask="url(#path-55-outside-7_3218_1329)"/>
<path d="M620.035 1H603.381V82.7524C603.381 92.5725 611.58 100.429 621.829 100.429H640.917C651.166 100.429 659.365 92.5725 659.365 82.7524V1H642.71V82.7524C642.71 84.1027 642.326 84.4709 640.917 84.4709H621.829C620.419 84.4709 620.035 84.1027 620.035 82.7524V1Z" stroke="white" stroke-width="2" mask="url(#path-55-outside-7_3218_1329)"/>
<path d="M671.477 16.9577H692.487V99.2011H709.141V16.9577H730.151V1H671.477V16.9577Z" stroke="white" stroke-width="2" mask="url(#path-55-outside-7_3218_1329)"/>
<path d="M783.653 1H743.427V99.2011H760.081V55.8698H780.323C782.372 56.9746 783.269 58.4476 783.269 62.6212V99.2011H799.923V62.6212C799.923 55.8698 795.439 50.1005 789.162 47.891C794.927 45.436 799.026 39.7894 799.026 33.4064V15.7302C799.026 7.62857 792.109 1 783.653 1ZM779.17 39.9122H760.081V16.7122H781.219C781.86 16.7122 782.244 17.0804 782.244 18.1852V33.6519C782.244 37.3344 781.475 38.9302 779.17 39.9122Z" stroke="white" stroke-width="2" mask="url(#path-55-outside-7_3218_1329)"/>
<path d="M860.324 77.8423L863.654 99.2011H880.309L864.295 5.17354C863.911 3.08677 861.477 1 858.786 1H833.549C830.858 1 828.424 3.20952 828.04 5.17354L812.027 99.2011H828.681L832.012 77.8423H860.324ZM857.89 61.8847H834.446L841.235 18.3079C841.363 17.3259 841.748 16.9577 842.26 16.9577H849.947C850.459 16.9577 850.844 17.3259 851.1 18.3079L857.89 61.8847Z" stroke="white" stroke-width="2" mask="url(#path-55-outside-7_3218_1329)"/>
<path d="M911.357 1H894.831V99.2011H943V83.2434H911.357V1Z" stroke="white" stroke-width="2" mask="url(#path-55-outside-7_3218_1329)"/>
</mask>
<g mask="url(#mask6_3218_1329)">
<rect x="93.9199" y="-4.40381" width="850.547" height="56.1987" fill="url(#paint0_linear_3218_1329)"/>
</g>
<mask id="mask7_3218_1329" style="mask-type:alpha" maskUnits="userSpaceOnUse" x="94" y="739" width="850" height="102">
<mask id="path-57-outside-8_3218_1329" maskUnits="userSpaceOnUse" x="94" y="739.229" width="850" height="102" fill="black">
<rect fill="white" x="94" y="739.229" width="850" height="102"/>
<path d="M132.664 740.229H95V838.431H132.664C142.913 838.431 151.112 830.574 151.112 820.754V757.169C151.112 747.349 142.913 740.229 132.664 740.229ZM132.664 822.473H111.654V756.187H132.664C133.945 756.187 134.458 756.924 134.458 757.783V820.754C134.458 822.105 134.073 822.473 132.664 822.473Z"/>
<path d="M219.065 740.229H170.639V838.431H219.065V822.473H187.294V795.959H215.606V780.001H187.294V756.187H219.065V740.229Z"/>
<path d="M252.421 740.229H235.895V838.431H284.064V822.473H252.421V740.229Z"/>
<path d="M281.445 756.187H302.455V838.431H319.109V756.187H340.119V740.229H281.445V756.187Z"/>
<path d="M389.773 817.072L393.104 838.431H409.758L393.744 744.403C393.36 742.316 390.926 740.229 388.236 740.229H362.998C360.308 740.229 357.874 742.439 357.49 744.403L341.476 838.431H358.13L361.461 817.072H389.773ZM387.339 801.114H363.895L370.685 757.537C370.813 756.555 371.197 756.187 371.71 756.187H379.396C379.909 756.187 380.293 756.555 380.549 757.537L387.339 801.114Z"/>
<path d="M484.332 740.229H455.507V838.431H472.161V756.187H472.802L489.328 838.431H517.896V740.229H501.242V822.473H500.601L484.332 740.229Z"/>
<path d="M587.703 740.229H539.278V838.431H587.703V822.473H555.932V795.959H584.245V780.001H555.932V756.187H587.703V740.229Z"/>
<path d="M620.035 740.229H603.381V821.982C603.381 831.802 611.58 839.658 621.829 839.658H640.917C651.166 839.658 659.365 831.802 659.365 821.982V740.229H642.71V821.982C642.71 823.332 642.326 823.7 640.917 823.7H621.829C620.419 823.7 620.035 823.332 620.035 821.982V740.229Z"/>
<path d="M671.477 756.187H692.487V838.431H709.141V756.187H730.151V740.229H671.477V756.187Z"/>
<path d="M783.653 740.229H743.427V838.431H760.081V795.099H780.323C782.372 796.204 783.269 797.677 783.269 801.851V838.431H799.923V801.851C799.923 795.099 795.439 789.33 789.162 787.12C794.927 784.665 799.026 779.019 799.026 772.636V754.96C799.026 746.858 792.109 740.229 783.653 740.229ZM779.17 779.142H760.081V755.942H781.219C781.86 755.942 782.244 756.31 782.244 757.415V772.881C782.244 776.564 781.475 778.16 779.17 779.142Z"/>
<path d="M860.324 817.072L863.654 838.431H880.309L864.295 744.403C863.911 742.316 861.477 740.229 858.786 740.229H833.549C830.858 740.229 828.424 742.439 828.04 744.403L812.027 838.431H828.681L832.012 817.072H860.324ZM857.89 801.114H834.446L841.235 757.537C841.363 756.555 841.748 756.187 842.26 756.187H849.947C850.459 756.187 850.844 756.555 851.1 757.537L857.89 801.114Z"/>
<path d="M911.357 740.229H894.831V838.431H943V822.473H911.357V740.229Z"/>
</mask>
<path d="M132.664 740.229H95V838.431H132.664C142.913 838.431 151.112 830.574 151.112 820.754V757.169C151.112 747.349 142.913 740.229 132.664 740.229ZM132.664 822.473H111.654V756.187H132.664C133.945 756.187 134.458 756.924 134.458 757.783V820.754C134.458 822.105 134.073 822.473 132.664 822.473Z" fill="white"/>
<path d="M219.065 740.229H170.639V838.431H219.065V822.473H187.294V795.959H215.606V780.001H187.294V756.187H219.065V740.229Z" fill="white"/>
<path d="M252.421 740.229H235.895V838.431H284.064V822.473H252.421V740.229Z" fill="white"/>
<path d="M281.445 756.187H302.455V838.431H319.109V756.187H340.119V740.229H281.445V756.187Z" fill="white"/>
<path d="M389.773 817.072L393.104 838.431H409.758L393.744 744.403C393.36 742.316 390.926 740.229 388.236 740.229H362.998C360.308 740.229 357.874 742.439 357.49 744.403L341.476 838.431H358.13L361.461 817.072H389.773ZM387.339 801.114H363.895L370.685 757.537C370.813 756.555 371.197 756.187 371.71 756.187H379.396C379.909 756.187 380.293 756.555 380.549 757.537L387.339 801.114Z" fill="white"/>
<path d="M484.332 740.229H455.507V838.431H472.161V756.187H472.802L489.328 838.431H517.896V740.229H501.242V822.473H500.601L484.332 740.229Z" fill="white"/>
<path d="M587.703 740.229H539.278V838.431H587.703V822.473H555.932V795.959H584.245V780.001H555.932V756.187H587.703V740.229Z" fill="white"/>
<path d="M620.035 740.229H603.381V821.982C603.381 831.802 611.58 839.658 621.829 839.658H640.917C651.166 839.658 659.365 831.802 659.365 821.982V740.229H642.71V821.982C642.71 823.332 642.326 823.7 640.917 823.7H621.829C620.419 823.7 620.035 823.332 620.035 821.982V740.229Z" fill="white"/>
<path d="M671.477 756.187H692.487V838.431H709.141V756.187H730.151V740.229H671.477V756.187Z" fill="white"/>
<path d="M783.653 740.229H743.427V838.431H760.081V795.099H780.323C782.372 796.204 783.269 797.677 783.269 801.851V838.431H799.923V801.851C799.923 795.099 795.439 789.33 789.162 787.12C794.927 784.665 799.026 779.019 799.026 772.636V754.96C799.026 746.858 792.109 740.229 783.653 740.229ZM779.17 779.142H760.081V755.942H781.219C781.86 755.942 782.244 756.31 782.244 757.415V772.881C782.244 776.564 781.475 778.16 779.17 779.142Z" fill="white"/>
<path d="M860.324 817.072L863.654 838.431H880.309L864.295 744.403C863.911 742.316 861.477 740.229 858.786 740.229H833.549C830.858 740.229 828.424 742.439 828.04 744.403L812.027 838.431H828.681L832.012 817.072H860.324ZM857.89 801.114H834.446L841.235 757.537C841.363 756.555 841.748 756.187 842.26 756.187H849.947C850.459 756.187 850.844 756.555 851.1 757.537L857.89 801.114Z" fill="white"/>
<path d="M911.357 740.229H894.831V838.431H943V822.473H911.357V740.229Z" fill="white"/>
<path d="M132.664 740.229H95V838.431H132.664C142.913 838.431 151.112 830.574 151.112 820.754V757.169C151.112 747.349 142.913 740.229 132.664 740.229ZM132.664 822.473H111.654V756.187H132.664C133.945 756.187 134.458 756.924 134.458 757.783V820.754C134.458 822.105 134.073 822.473 132.664 822.473Z" stroke="white" stroke-width="2" mask="url(#path-57-outside-8_3218_1329)"/>
<path d="M219.065 740.229H170.639V838.431H219.065V822.473H187.294V795.959H215.606V780.001H187.294V756.187H219.065V740.229Z" stroke="white" stroke-width="2" mask="url(#path-57-outside-8_3218_1329)"/>
<path d="M252.421 740.229H235.895V838.431H284.064V822.473H252.421V740.229Z" stroke="white" stroke-width="2" mask="url(#path-57-outside-8_3218_1329)"/>
<path d="M281.445 756.187H302.455V838.431H319.109V756.187H340.119V740.229H281.445V756.187Z" stroke="white" stroke-width="2" mask="url(#path-57-outside-8_3218_1329)"/>
<path d="M389.773 817.072L393.104 838.431H409.758L393.744 744.403C393.36 742.316 390.926 740.229 388.236 740.229H362.998C360.308 740.229 357.874 742.439 357.49 744.403L341.476 838.431H358.13L361.461 817.072H389.773ZM387.339 801.114H363.895L370.685 757.537C370.813 756.555 371.197 756.187 371.71 756.187H379.396C379.909 756.187 380.293 756.555 380.549 757.537L387.339 801.114Z" stroke="white" stroke-width="2" mask="url(#path-57-outside-8_3218_1329)"/>
<path d="M484.332 740.229H455.507V838.431H472.161V756.187H472.802L489.328 838.431H517.896V740.229H501.242V822.473H500.601L484.332 740.229Z" stroke="white" stroke-width="2" mask="url(#path-57-outside-8_3218_1329)"/>
<path d="M587.703 740.229H539.278V838.431H587.703V822.473H555.932V795.959H584.245V780.001H555.932V756.187H587.703V740.229Z" stroke="white" stroke-width="2" mask="url(#path-57-outside-8_3218_1329)"/>
<path d="M620.035 740.229H603.381V821.982C603.381 831.802 611.58 839.658 621.829 839.658H640.917C651.166 839.658 659.365 831.802 659.365 821.982V740.229H642.71V821.982C642.71 823.332 642.326 823.7 640.917 823.7H621.829C620.419 823.7 620.035 823.332 620.035 821.982V740.229Z" stroke="white" stroke-width="2" mask="url(#path-57-outside-8_3218_1329)"/>
<path d="M671.477 756.187H692.487V838.431H709.141V756.187H730.151V740.229H671.477V756.187Z" stroke="white" stroke-width="2" mask="url(#path-57-outside-8_3218_1329)"/>
<path d="M783.653 740.229H743.427V838.431H760.081V795.099H780.323C782.372 796.204 783.269 797.677 783.269 801.851V838.431H799.923V801.851C799.923 795.099 795.439 789.33 789.162 787.12C794.927 784.665 799.026 779.019 799.026 772.636V754.96C799.026 746.858 792.109 740.229 783.653 740.229ZM779.17 779.142H760.081V755.942H781.219C781.86 755.942 782.244 756.31 782.244 757.415V772.881C782.244 776.564 781.475 778.16 779.17 779.142Z" stroke="white" stroke-width="2" mask="url(#path-57-outside-8_3218_1329)"/>
<path d="M860.324 817.072L863.654 838.431H880.309L864.295 744.403C863.911 742.316 861.477 740.229 858.786 740.229H833.549C830.858 740.229 828.424 742.439 828.04 744.403L812.027 838.431H828.681L832.012 817.072H860.324ZM857.89 801.114H834.446L841.235 757.537C841.363 756.555 841.748 756.187 842.26 756.187H849.947C850.459 756.187 850.844 756.555 851.1 757.537L857.89 801.114Z" stroke="white" stroke-width="2" mask="url(#path-57-outside-8_3218_1329)"/>
<path d="M911.357 740.229H894.831V838.431H943V822.473H911.357V740.229Z" stroke="white" stroke-width="2" mask="url(#path-57-outside-8_3218_1329)"/>
</mask>
<g mask="url(#mask7_3218_1329)">
<rect x="93.9199" y="783.459" width="850.547" height="56.1987" fill="#171717"/>
</g>
<rect x="420" y="408" width="25" height="12" fill="white"/>
<defs>
<linearGradient id="paint0_linear_3218_1329" x1="519.193" y1="-4.40381" x2="519.193" y2="51.7949" gradientUnits="userSpaceOnUse">
<stop stop-color="#171717"/>
<stop offset="1" stop-color="#171717"/>
</linearGradient>
</defs>
</svg>
