<svg width="45" height="45" viewBox="0 0 45 45" fill="none" xmlns="http://www.w3.org/2000/svg">
<path d="M43.2382 13.7721C41.0738 8.62917 37.0755 4.47394 32.0197 2.11311C26.9638 -0.247716 21.2111 -0.645694 15.8784 0.996437C10.5456 2.63857 6.01327 6.20365 3.16123 10.9996C0.309188 15.7955 -0.659061 21.4801 0.444452 26.9497C1.54797 32.4194 4.64451 37.2839 9.13293 40.5989C13.6214 43.9138 19.1814 45.4427 24.7337 44.8888C30.286 44.3348 35.4344 41.7376 39.1794 37.6011C42.9244 33.4647 44.9989 28.0843 45 22.5045C45.0044 19.505 44.4052 16.5353 43.2382 13.7721ZM43.8683 22.5045C43.869 23.8621 43.7404 25.2167 43.4843 26.55H36.2605L23.1329 13.423V1.2104C34.6356 1.51021 43.8683 10.9292 43.8683 22.5045ZM22.0012 1.2104V13.423L8.87369 26.55H1.64987C1.39378 25.2167 1.26519 23.8621 1.26582 22.5045C1.26582 10.9292 10.4986 1.51021 22.0012 1.2104ZM22.5671 43.8057C12.5884 43.8057 4.21298 36.9443 1.89981 27.6822H9.34197L22.5671 14.4577L35.7922 27.6822H43.2343C40.9212 36.9443 32.5457 43.8057 22.5671 43.8057Z" fill="white"/>
</svg>
